<?xml version="1.0" standalone="no"?>
<!DOCTYPE svg PUBLIC "-//W3C//DTD SVG 1.1//EN" "http://www.w3.org/Graphics/SVG/1.1/DTD/svg11.dtd" >
<svg xmlns="http://www.w3.org/2000/svg" xmlns:xlink="http://www.w3.org/1999/xlink" version="1.1">
<metadata>
Created by FontForge 20161013 at Wed Sep 24 02:10:30 2014
 By ,,,
Copyright (c) 2013 by Lucas Sharp. All rights reserved.
</metadata>
<defs>
<font id="BikeSans-ExtraboldItalic" horiz-adv-x="598" >
  <font-face 
    font-family="Bike Sans Extrabold Italic"
    font-weight="795"
    font-style="italic"
    font-stretch="normal"
    units-per-em="1000"
    panose-1="-1 0 0 0 0 0 0 0 0 0"
    ascent="750"
    descent="-250"
    x-height="500"
    cap-height="730"
    bbox="-148 -459 1684 1099"
    underline-thickness="50"
    underline-position="-200"
    unicode-range="U+0020-F60B"
  />
<missing-glyph horiz-adv-x="900" 
d="M85 0v730h730v-730h-730zM450 331l-283 -283h566zM167 682l283 -283l283 283h-566zM484 365l283 -283v566zM416 365l-283 283v-566z" />
    <glyph glyph-name="interrobang" unicode="&#x21;&#x3f;" horiz-adv-x="530" 
d="M197 209q0 1 1 9t1 10q4 44 16 111t30 160t21 106q-44 -15 -66 -69l-133 70q82 134 251 134q118 0 184.5 -67.5t50.5 -158.5q-9 -50 -34.5 -83t-56.5 -50.5t-62 -34.5t-56 -47.5t-33 -77.5l-2 -12h-112zM132 0l30 175h173l-31 -175h-172zM409 533q6 38 -30 61
q-10 -58 -31 -139q19 13 28.5 21.5t19.5 23.5t13 33z" />
    <glyph glyph-name="interrobangdown" unicode="&#xa1;&#xbf;" horiz-adv-x="530" 
d="M210 -241q-118 0 -184.5 68t-50.5 158q9 50 34.5 83.5t56.5 51t62 34.5t56 47.5t33 77.5l2 12h113q0 -9 -3 -24q-5 -44 -17.5 -114t-28 -152t-20.5 -107q45 18 65 70l134 -70q-83 -135 -252 -135zM194 325l30 175h173l-31 -175h-172zM119 -33q-7 -37 29 -62q14 68 32 140
q-19 -13 -28.5 -21.5t-19.5 -23.5t-13 -33z" />
    <glyph glyph-name=".notdef" horiz-adv-x="900" 
d="M85 0v730h730v-730h-730zM450 331l-283 -283h566zM167 682l283 -283l283 283h-566zM484 365l283 -283v566zM416 365l-283 283v-566z" />
    <glyph glyph-name=".null" horiz-adv-x="0" 
 />
    <glyph glyph-name="nonmarkingreturn" horiz-adv-x="333" 
 />
    <glyph glyph-name="space" unicode=" " horiz-adv-x="242" 
 />
    <glyph glyph-name="exclam" unicode="!" horiz-adv-x="218" 
d="M53 209q3 234 34 404l20 117h172l-20 -117q-33 -185 -110 -404h-96zM-22 0l31 175h173l-31 -175h-173z" />
    <glyph glyph-name="quotedbl" unicode="&#x22;" horiz-adv-x="334" 
d="M109 500q-7 22 -14 73t-3 73l15 84h129l-15 -84q-3 -23 -28 -75t-39 -71h-45zM269 500q-7 21 -14 72.5t-4 73.5l15 84h130l-15 -84q-4 -23 -29 -75.5t-38 -70.5h-45z" />
    <glyph glyph-name="numbersign" unicode="#" horiz-adv-x="775" 
d="M409 0l24 138h-129l-24 -138h-172l24 138h-131l30 165h130l23 131h-130l30 167h129l23 129h172l-23 -129h129l23 129h172l-23 -129h133l-30 -167h-132l-23 -131h132l-30 -165h-131l-24 -138h-172zM356 434l-23 -131h129l23 131h-129z" />
    <glyph glyph-name="dollar" unicode="$" 
d="M168 -68l12 69q-122 31 -185 135l155 105q20 -42 57 -65.5t79 -23.5q80 0 90 62q5 30 -20 49t-81 42q-5 1 -7 2.5t-6 3t-7 2.5q-16 7 -27.5 12.5t-26.5 13.5t-26 15.5t-23.5 17t-21.5 20t-17.5 23t-13.5 26.5t-8.5 30.5t-3 35.5t4.5 40q14 81 72.5 130.5t147.5 60.5
l11 61h144l-13 -73q98 -31 154 -108l-146 -100q-16 31 -46.5 51t-67.5 20q-70 0 -82 -58q-4 -19 11.5 -35.5t35 -26.5t59.5 -27q8 -3 12 -5q43 -19 69.5 -34.5t56.5 -44t40 -69.5t1 -94q-14 -80 -72.5 -136t-155.5 -67l-10 -60h-145z" />
    <glyph glyph-name="percent" unicode="%" horiz-adv-x="873" 
d="M-27 0l755 730h215l-755 -730h-215zM240 371q-87 0 -134 62t-33 143q12 68 68.5 116t132.5 48q86 0 134 -61t34 -141q-12 -71 -67 -119t-135 -48zM265 523q13 5 20.5 18t4.5 25q-2 14 -14 21t-26 3q-14 -5 -21 -18t-4 -25q2 -14 13.5 -21.5t26.5 -2.5zM641 -11
q-87 0 -134 62t-33 143q12 68 68.5 116t132.5 48q86 0 134 -61t34 -141q-12 -71 -67.5 -119t-134.5 -48zM666 141q13 5 20.5 18t4.5 25q-2 14 -14 21t-26 3q-14 -5 -21 -18t-4 -25q2 -14 13.5 -21.5t26.5 -2.5z" />
    <glyph glyph-name="ampersand" unicode="&#x26;" horiz-adv-x="726" 
d="M480 0l-27 34q-88 -45 -182 -45q-78 0 -134.5 22t-85 58.5t-39 77.5t-3.5 85q18 125 153 193q-36 71 -24 139q12 78 75.5 125.5t156.5 47.5q78 0 130 -34.5t72 -88.5q-156 -67 -167 -72q-10 46 -48 46q-18 0 -31.5 -11t-15.5 -31q-4 -25 11 -55t60 -89l113 -148
q35 39 55 83h-101l26 148h274l-12 -74q-28 -155 -145 -274l104 -137h-215zM284 138q33 0 73 16l-111 147h-1q-58 -28 -66 -76q-6 -36 22 -61.5t83 -25.5z" />
    <glyph glyph-name="quotesingle" unicode="'" horiz-adv-x="175" 
d="M155 500h-45q-7 22 -14.5 73t-3.5 73l15 84h129l-15 -84q-3 -23 -27.5 -75t-38.5 -71z" />
    <glyph glyph-name="parenleft" unicode="(" horiz-adv-x="407" 
d="M337 -136l-126 -135q-128 118 -175 255.5t-16 305.5q48 291 352 486l100 -147q-112 -63 -181.5 -157.5t-89.5 -206.5q-20 -116 9 -213t127 -188z" />
    <glyph glyph-name="parenright" unicode=")" horiz-adv-x="407" 
d="M71 639l123 136q252 -232 192 -567q-47 -289 -350 -482l-102 145q112 63 182.5 159t89.5 208q20 116 -8.5 212.5t-126.5 188.5z" />
    <glyph glyph-name="asterisk" unicode="*" horiz-adv-x="403" 
d="M345 402l-61 78l11 -103h-144l49 104l-92 -79l-47 126l110 25l-102 29l96 123l61 -78l-13 104h144l-50 -109l95 83l49 -126l-115 -27l105 -27z" />
    <glyph glyph-name="plus" unicode="+" horiz-adv-x="416" 
d="M30 293l26 143h114l20 113h142l-20 -113h114l-25 -143h-114l-20 -114h-142l20 114h-115z" />
    <glyph glyph-name="comma" unicode="," horiz-adv-x="230" 
d="M-51 -89l82 224h164l-121 -224h-125z" />
    <glyph glyph-name="hyphen" unicode="-" horiz-adv-x="415" 
d="M11 183l25 143h370l-25 -143h-370z" />
    <glyph glyph-name="period" unicode="." horiz-adv-x="218" 
d="M-22 0l31 175h173l-31 -175h-173z" />
    <glyph glyph-name="slash" unicode="/" horiz-adv-x="537" 
d="M-35 0l465 730h188l-466 -730h-187z" />
    <glyph glyph-name="zero" unicode="0" horiz-adv-x="787" 
d="M382 -10q-169 0 -268.5 122.5t-71.5 287.5q25 146 139 243t264 97q111 0 196 -57t123.5 -151t20.5 -202q-25 -145 -138 -242.5t-265 -97.5zM398 162q80 0 138.5 53t73.5 133q15 90 -36 156.5t-142 66.5q-82 0 -140.5 -53.5t-73.5 -133.5q-16 -89 35.5 -155.5t144.5 -66.5
z" />
    <glyph glyph-name="one" unicode="1" horiz-adv-x="581" 
d="M-5 0l29 163h162l58 331q-40 -62 -126 -62h-11l32 178h5q66 0 104 35t46 85h166l-100 -567h166l-28 -163h-503z" />
    <glyph glyph-name="two" unicode="2" 
d="M-4 0l26 143q6 38 25 72.5t41 59t56.5 49.5t60.5 40.5t64 35.5q104 54 130 78q24 21 28 42q6 30 -16 50t-61 20q-40 0 -70.5 -26.5t-45.5 -68.5l-148 72q37 82 108.5 127.5t164.5 45.5q118 0 187 -69.5t50 -174.5q-7 -38 -27.5 -70.5t-56 -59.5t-64 -44t-74.5 -41
q-101 -53 -129 -77q-23 -20 -32 -41h331l-29 -163h-519z" />
    <glyph glyph-name="three" unicode="3" 
d="M283 -10q-191 0 -280 139l155 88q17 -36 51.5 -54t75.5 -18q36 0 65 19t35 53t-18 56t-70 22h-100l27 155h97q94 0 108 71q6 32 -18 54t-66 22q-73 0 -122 -67l-132 95q99 115 265 115q115 0 185 -68t52 -171q-16 -89 -104 -135q85 -68 65 -185q-15 -90 -89.5 -140.5
t-181.5 -50.5z" />
    <glyph glyph-name="four" unicode="4" 
d="M281 0l27 154h-291l27 155l351 421h180l-75 -426h75l-27 -150h-74l-27 -154h-166zM229 304h105l27 157z" />
    <glyph glyph-name="five" unicode="5" 
d="M273 -10q-93 0 -162 44t-95 121l177 70q7 -33 33.5 -52.5t60.5 -19.5q39 0 67.5 23.5t34.5 61.5q8 44 -16.5 73.5t-72.5 29.5q-70 0 -100 -64l-145 57l119 396h431l-28 -162h-287l-28 -93q35 16 86 16q108 -1 171.5 -78.5t43.5 -187.5q-19 -112 -94 -173.5t-196 -61.5z
" />
    <glyph glyph-name="six" unicode="6" 
d="M281 -10q-90 0 -151 40.5t-83.5 104.5t-9.5 138q11 74 68 139l260 318h202l-202 -241q105 -10 159 -87t36 -182q-17 -99 -88 -164t-191 -66zM290 149q39 0 67 24.5t34 62.5q8 41 -16 72.5t-65 31.5q-37 0 -66.5 -25.5t-36.5 -63.5q-7 -41 17.5 -71.5t65.5 -30.5z" />
    <glyph glyph-name="seven" unicode="7" 
d="M46 0l375 568h-326l28 162h517l-26 -148l-368 -582h-200z" />
    <glyph glyph-name="eight" unicode="8" 
d="M275 -10q-118 0 -187.5 70.5t-48.5 185.5q16 102 105 157q-49 64 -35 140q15 91 82 144t174 53q105 0 171 -67t48 -167q-16 -90 -86 -138q69 -69 53 -166q-17 -100 -89 -156t-187 -56zM288 141q86 0 101 78q7 39 -18.5 66t-67.5 27t-69 -21.5t-34 -56.5
q-7 -40 19.5 -66.5t68.5 -26.5zM340 452q38 0 61.5 18t28.5 49q6 32 -17 55t-59 23t-60.5 -19t-29.5 -48q-6 -32 15.5 -55t60.5 -23z" />
    <glyph glyph-name="nine" unicode="9" 
d="M71 -5l203 242q-106 9 -160.5 86t-35.5 182q18 99 88.5 164t191.5 66q133 0 198 -83t46 -199q-13 -72 -68 -140l-260 -318h-203zM329 385q37 0 66.5 26t35.5 64q8 40 -16.5 70.5t-66.5 30.5q-38 0 -66 -24.5t-35 -61.5q-7 -42 16.5 -73.5t65.5 -31.5z" />
    <glyph glyph-name="colon" unicode=":" horiz-adv-x="218" 
d="M-22 0l31 175h173l-31 -175h-173zM36 326l31 174h172l-30 -174h-173z" />
    <glyph glyph-name="semicolon" unicode=";" horiz-adv-x="230" 
d="M42 326l31 174h172l-30 -174h-173zM-51 -89l82 224h164l-121 -224h-125z" />
    <glyph glyph-name="less" unicode="&#x3c;" horiz-adv-x="416" 
d="M378 162l-348 131l25 141l393 129l-26 -151l-193 -53l174 -55z" />
    <glyph glyph-name="equal" unicode="=" horiz-adv-x="416" 
d="M45 377l26 142h370l-25 -142h-371zM14 200l25 143h371l-26 -143h-370z" />
    <glyph glyph-name="greater" unicode="&#x3e;" horiz-adv-x="416" 
d="M8 162l26 152l193 53l-174 55l25 141l348 -130l-25 -141z" />
    <glyph glyph-name="question" unicode="?" horiz-adv-x="529" 
d="M167 209l2 12q12 72 37 120.5t52 70.5t53 37t45 32t24 43q5 28 -14 48.5t-53 20.5q-58 0 -83 -56l-152 78q78 125 246 125q117 0 179 -67t46 -159q-9 -50 -33 -83t-54 -50.5t-59.5 -34.5t-53.5 -47.5t-32 -77.5l-2 -12h-148zM120 0l31 175h172l-30 -175h-173z" />
    <glyph glyph-name="at" unicode="@" horiz-adv-x="772" 
d="M351 -125q-110 0 -193 56.5t-120.5 151t-18.5 203.5q24 142 139.5 241t271.5 99q68 0 133 -26.5t115 -73t74.5 -118.5t10.5 -154q-16 -84 -69 -132t-132 -48q-71 0 -105 41q-41 -39 -104 -39q-78 0 -121 56.5t-29 138.5q13 74 63 117.5t112 43.5q53 0 85 -35l5 28h125
l-35 -178q-8 -44 27 -44q23 0 36.5 24.5t17.5 50.5q17 100 -52.5 164t-168.5 64q-98 0 -175 -68t-93 -162q-19 -110 42 -192.5t169 -82.5q47 0 78.5 13.5t68.5 46.5l105 -82q-104 -104 -262 -104zM382 192q26 0 43.5 16.5t22.5 43.5q5 28 -9.5 48t-40.5 20t-45 -17.5
t-24 -42.5q-5 -27 10.5 -47.5t42.5 -20.5z" />
    <glyph glyph-name="A" unicode="A" horiz-adv-x="680" 
d="M-43 0l390 730h174l112 -730h-176l-15 107h-246l-56 -107h-183zM391 481l-112 -215h142z" />
    <glyph glyph-name="B" unicode="B" horiz-adv-x="582" 
d="M-19 0l128 730h254q115 0 178.5 -66t45.5 -165q-16 -88 -89 -134q81 -57 60 -175q-17 -92 -92 -141t-199 -49h-286zM290 292h-84l-24 -137h90q98 0 111 66q6 34 -16 52.5t-77 18.5zM339 577h-82l-23 -131h85q85 0 97 62q7 32 -12.5 50.5t-64.5 18.5z" />
    <glyph glyph-name="C" unicode="C" horiz-adv-x="745" 
d="M385 -10q-180 -1 -276.5 122t-67.5 293q25 145 137.5 240t265.5 95q114 0 199 -57t124 -149l-170 -82q-19 54 -61.5 85.5t-105.5 31.5q-81 0 -140 -51.5t-73 -132.5q-16 -90 35 -156.5t144 -66.5q103 0 168 105l155 -97q-121 -179 -334 -180z" />
    <glyph glyph-name="D" unicode="D" horiz-adv-x="661" 
d="M-19 0l128 730h234q160 1 254 -112.5t67 -268.5q-26 -146 -133 -247.5t-267 -101.5h-283zM319 571h-64l-71 -411h90q77 0 138 60.5t74 138.5q15 90 -30 151t-137 61z" />
    <glyph glyph-name="E" unicode="E" horiz-adv-x="477" 
d="M-19 0l128 730h431l-29 -161h-256l-21 -123h256l-29 -162h-256l-21 -123h256l-28 -161h-431z" />
    <glyph glyph-name="F" unicode="F" horiz-adv-x="461" 
d="M-19 0l128 730h416l-29 -162h-241l-21 -120h241l-29 -162h-240l-50 -286h-175z" />
    <glyph glyph-name="G" unicode="G" horiz-adv-x="771" 
d="M380 -10q-172 0 -270 122t-70 288q25 144 138.5 242t268.5 98q111 0 194.5 -53.5t124.5 -139.5l-170 -82q-41 110 -164 110q-86 0 -145.5 -55t-74.5 -135q-17 -91 35.5 -159.5t147.5 -68.5q116 0 171 104h-202l29 162h393l-15 -85q-27 -158 -133 -253t-258 -95z" />
    <glyph glyph-name="H" unicode="H" horiz-adv-x="596" 
d="M352 0l49 280h-196l-49 -280h-175l128 730h175l-49 -276h196l49 276h175l-128 -730h-175z" />
    <glyph glyph-name="I" unicode="I" horiz-adv-x="230" 
d="M-17 0l129 730h174l-128 -730h-175z" />
    <glyph glyph-name="J" unicode="J" horiz-adv-x="508" 
d="M229 -10q-94 0 -154.5 49t-82.5 139l172 51q12 -76 68 -76q28 0 46.5 19.5t24.5 52.5l90 505h175l-91 -513q-20 -109 -82.5 -168t-165.5 -59z" />
    <glyph glyph-name="K" unicode="K" horiz-adv-x="614" 
d="M386 0l-113 312l-77 -83l-40 -229h-175l128 730h175l-44 -252l234 252h218l-281 -300l161 -430h-186z" />
    <glyph glyph-name="L" unicode="L" horiz-adv-x="447" 
d="M-19 0l128 730h175l-99 -563h228l-29 -167h-403z" />
    <glyph glyph-name="M" unicode="M" horiz-adv-x="770" 
d="M-19 0l128 730h149l161 -259l251 259h159l-128 -730h-174l78 445l-223 -228l-147 235l-79 -452h-175z" />
    <glyph glyph-name="N" unicode="N" horiz-adv-x="655" 
d="M-20 0l130 730h180l175 -414l74 414h175l-128 -730h-169l-185 435l-77 -435h-175z" />
    <glyph glyph-name="O" unicode="O" horiz-adv-x="783" 
d="M381 -10q-169 0 -268.5 122.5t-71.5 287.5q25 146 139 243t264 97q110 0 195 -56.5t123.5 -151t20.5 -202.5q-25 -147 -136.5 -243.5t-265.5 -96.5zM395 162q82 0 140 52t72 132q16 90 -35.5 156.5t-143.5 66.5q-81 0 -139 -52.5t-73 -132.5q-15 -89 36 -155.5t143 -66.5
z" />
    <glyph glyph-name="P" unicode="P" horiz-adv-x="568" 
d="M-19 0l128 730h243q108 0 182.5 -81.5t53.5 -206.5q-19 -113 -98.5 -181.5t-205.5 -68.5h-95l-33 -192h-175zM325 571h-69l-39 -218h76q51 0 83.5 30t41.5 78q8 48 -18.5 79t-74.5 31z" />
    <glyph glyph-name="Q" unicode="Q" horiz-adv-x="826" 
d="M376 -10q-111 0 -195.5 57t-121.5 151t-19 202q25 146 142 243t268 97q110 0 194.5 -55t123.5 -147t20 -197q-16 -90 -71 -165q24 -10 57 -10h19l-30 -165h-19q-49 0 -89.5 14t-68 36t-50.5 48.5t-42.5 53t-38.5 48.5t-43.5 36t-52.5 14h-21l30 165h21q73 0 118 -31
t86 -87q15 28 21 63q15 82 -35.5 146.5t-141.5 64.5q-86 0 -147 -53.5t-76 -134.5q-16 -91 34 -158.5t140 -67.5q30 0 56 11q9 -10 32 -41t43.5 -53t44.5 -38q-32 -21 -83.5 -34t-104.5 -13z" />
    <glyph glyph-name="R" unicode="R" horiz-adv-x="584" 
d="M520 0h-17q-139 0 -212 91t-79 233l-56 -324h-175l128 730h231q133 0 204 -78t51 -195q-12 -70 -59.5 -123t-134.5 -74q31 -97 134 -97h14zM311 574h-55l-32 -182h55q121 0 139 91q8 42 -19.5 66.5t-87.5 24.5z" />
    <glyph glyph-name="S" unicode="S" horiz-adv-x="542" 
d="M248 -11q-185 0 -275 147l155 105q20 -43 54 -66t75 -23q38 0 60 17t27 45q4 7 1 14.5t-3 12.5t-6.5 11.5t-9.5 10t-12 9t-14.5 9t-16.5 8.5t-17.5 8t-19 8.5t-19.5 8.5q-41 18 -66 33.5t-53 43t-37.5 66.5t-0.5 90q16 91 88 142.5t178 51.5q83 0 148 -35.5t102 -87.5
l-146 -100q-16 31 -46.5 51t-67.5 20q-35 0 -56 -15.5t-26 -42.5q-6 -36 50 -65q16 -9 57 -26q5 -3 8 -4q18 -8 30 -14t28.5 -15.5t28 -17.5t25 -20.5t22 -24.5t16 -28.5t11 -34t3.5 -40t-4 -46.5q-15 -87 -87 -146.5t-184 -59.5z" />
    <glyph glyph-name="T" unicode="T" horiz-adv-x="518" 
d="M306 0h-175l99 568h-155l28 162h483l-29 -162h-152z" />
    <glyph glyph-name="U" unicode="U" horiz-adv-x="569" 
d="M247 -10q-114 0 -179.5 64.5t-44.5 185.5l87 490h174l-87 -496q-7 -39 13.5 -63t59.5 -24q36 0 63 23.5t34 63.5l87 496h175l-86 -485q-44 -255 -296 -255z" />
    <glyph glyph-name="V" unicode="V" horiz-adv-x="611" 
d="M343 0h-171l-90 730h176l47 -442l210 442h184z" />
    <glyph glyph-name="W" unicode="W" horiz-adv-x="1010" 
d="M765 0h-176l-46 448l-203 -448h-177l-76 730h179l37 -436l200 436h172l46 -437l190 437h184z" />
    <glyph glyph-name="X" unicode="X" horiz-adv-x="630" 
d="M411 0l-95 226l-165 -226h-199l288 381l-148 349h177l89 -210l156 210h198l-278 -364l156 -366h-179z" />
    <glyph glyph-name="Y" unicode="Y" horiz-adv-x="628" 
d="M178 0l62 354l-156 376h179l89 -223l165 223h198l-303 -388l-60 -342h-174z" />
    <glyph glyph-name="Z" unicode="Z" horiz-adv-x="529" 
d="M463 0h-484l27 156l346 414h-264l27 160h474l-27 -155l-346 -415h275z" />
    <glyph glyph-name="bracketleft" unicode="[" horiz-adv-x="347" 
d="M-61 -230l168 960h302l-28 -162h-128l-112 -636h127l-28 -162h-301z" />
    <glyph glyph-name="backslash" unicode="\" horiz-adv-x="537" 
d="M318 0l-225 730h172l225 -730h-172z" />
    <glyph glyph-name="bracketright" unicode="]" horiz-adv-x="347" 
d="M-62 -230l28 162h128l113 636h-128l28 162h302l-169 -960h-302z" />
    <glyph glyph-name="asciicircum" unicode="^" horiz-adv-x="464" 
d="M120 567l146 171h106l86 -171h-120l-32 71l-58 -71h-128z" />
    <glyph glyph-name="underscore" unicode="_" horiz-adv-x="415" 
d="M-53 -192l25 143h370l-25 -143h-370z" />
    <glyph glyph-name="grave" unicode="`" horiz-adv-x="464" 
d="M290 543l-123 177h162l80 -177h-119z" />
    <glyph glyph-name="a" unicode="a" horiz-adv-x="595" 
d="M233 -10q-115 -1 -175.5 84t-39.5 203q18 104 88.5 168.5t164.5 64.5t137 -71l11 61h170l-60 -317q-4 -20 2 -28.5t27 -8.5h15l-26 -146h-73q-76 0 -101 53q-50 -62 -140 -63zM272 147q42 0 70.5 27t35.5 68q8 46 -17.5 79.5t-68.5 33.5t-73 -27t-36 -67q-8 -45 18 -79.5
t71 -34.5z" />
    <glyph glyph-name="b" unicode="b" horiz-adv-x="565" 
d="M301 -10q-99 0 -142 78l-11 -68h-170l129 730h169q-22 -127 -47 -268q47 47 115 48q105 1 164.5 -82.5t39.5 -200.5q-19 -109 -87 -173t-160 -64zM275 146q41 0 71 27t37 68q8 46 -18.5 80t-72.5 34q-39 0 -69 -26.5t-37 -66.5q-8 -47 18 -81.5t71 -34.5z" />
    <glyph glyph-name="c" unicode="c" horiz-adv-x="531" 
d="M258 -10q-128 0 -194.5 88t-45.5 204q19 97 96 162.5t185 65.5q88 0 149.5 -45.5t83.5 -118.5l-160 -56q-19 66 -85 66q-36 0 -67 -26.5t-38 -67.5q-8 -46 17.5 -81t70.5 -35q62 0 92 61l148 -72q-36 -67 -101 -106t-151 -39z" />
    <glyph glyph-name="d" unicode="d" horiz-adv-x="599" 
d="M233 -10q-114 -1 -175 84t-40 203q18 104 88.5 168.5t164.5 64.5q95 0 137 -67l53 287h169l-101 -547q-4 -20 2.5 -28.5t27.5 -8.5h15l-26 -146h-73q-80 0 -103 55q-50 -64 -139 -65zM272 147q41 0 70 26.5t36 68.5q8 46 -17.5 79.5t-68.5 33.5t-73 -27t-36 -67
q-8 -45 18 -79.5t71 -34.5z" />
    <glyph glyph-name="e" unicode="e" horiz-adv-x="520" 
d="M259 -10q-129 0 -195.5 84t-45.5 201q18 105 101 170t187 65q101 0 161.5 -53.5t44.5 -132.5q-12 -68 -71 -108t-154 -39q-63 -1 -123 20q20 -70 103 -70q56 0 92 44l126 -81q-85 -100 -226 -100zM305 374q-71 0 -116 -55q48 -14 85 -13q77 -1 84 35q2 15 -12 24t-41 9z
" />
    <glyph glyph-name="f" unicode="f" horiz-adv-x="345" 
d="M15 351l27 149h69q12 79 26 122t42.5 68.5t65.5 32.5t105 7h49l-27 -156h-36q-29 0 -38 -10t-16 -49q0 -3 -3 -15h80l-27 -149h-79l-62 -347q-10 -55 -16.5 -85t-17.5 -61.5t-24 -45.5t-35 -26.5t-50 -16t-70 -3.5h-82l27 156h41q28 0 38 10.5t17 48.5l65 370h-69z" />
    <glyph glyph-name="g" unicode="g" horiz-adv-x="561" 
d="M218 -10q-106 0 -163.5 84.5t-36.5 202.5q18 105 88.5 169t164.5 64q93 0 131 -67l11 57h169l-87 -493q-44 -247 -268 -247q-86 0 -148.5 41t-89.5 108l171 57q17 -56 77 -56q36 0 58.5 25.5t28.5 66.5v2q1 1 1.5 5t1.5 8t2 11t2 12q-42 -50 -113 -50zM272 147
q41 0 70 26.5t36 68.5q8 46 -18 79.5t-69 33.5q-42 0 -72 -27t-36 -67q-8 -45 18 -79.5t71 -34.5z" />
    <glyph glyph-name="h" unicode="h" horiz-adv-x="535" 
d="M-22 0l128 730h169l-48 -272q49 52 121 52q85 0 125 -58t19 -160l-22 -114q-4 -17 2 -24.5t23 -7.5h17l-26 -146h-76q-85 0 -109.5 38t-8.5 114l26 132q8 37 -6 57t-42 20q-60 0 -73 -82l-49 -279h-170z" />
    <glyph glyph-name="i" unicode="i" horiz-adv-x="246" 
d="M112 0q-76 0 -98.5 36.5t-8.5 114.5l61 349h169l-56 -320q-3 -17 2.5 -24t22.5 -7h17l-26 -149h-83zM72 535l31 174h169l-31 -174h-169z" />
    <glyph glyph-name="j" unicode="j" horiz-adv-x="215" 
d="M-146 -231l28 156q58 0 72 11t24 65l89 499h170l-89 -500q-12 -74 -25 -115t-39.5 -69.5t-65 -37.5t-103.5 -9h-61zM73 535l31 174h169l-31 -174h-169z" />
    <glyph glyph-name="k" unicode="k" horiz-adv-x="533" 
d="M451 0q-92 0 -122.5 18.5t-64.5 98.5l-32 72l-63 -63l-22 -126h-169l129 730h168l-70 -400l167 170h206l-211 -214l48 -105q10 -21 19.5 -27.5t31.5 -6.5h36l-26 -147h-25z" />
    <glyph glyph-name="l" unicode="l" horiz-adv-x="250" 
d="M117 0q-82 0 -103 39.5t-7 119.5l100 571h169l-97 -550q-6 -31 25 -31h17l-26 -149h-78z" />
    <glyph glyph-name="m" unicode="m" horiz-adv-x="848" 
d="M4 0l62 315q5 20 -1 28.5t-25 8.5h-18l27 148h70q80 0 104 -56q55 66 138 66q102 0 138 -72q59 72 146 72q93 0 136.5 -58.5t23.5 -159.5l-22 -114q-4 -17 2 -24.5t23 -7.5h19l-26 -146h-85q-141 0 -110 152l26 131q8 36 -3.5 57t-39.5 21q-54 0 -73 -88l-54 -273h-171
l56 284q7 37 -5 57t-39 20q-56 0 -73 -84l-55 -277h-171z" />
    <glyph glyph-name="n" unicode="n" horiz-adv-x="570" 
d="M5 0l61 315q5 21 -1 29t-25 8h-18l27 148h71q84 0 105 -57q58 67 145 67q91 0 134 -60.5t23 -159.5l-23 -112q-7 -32 25 -32h18l-26 -146h-77q-85 0 -109.5 38t-9.5 114l28 132q7 38 -7 57.5t-42 19.5q-58 0 -73 -82l-55 -279h-171z" />
    <glyph glyph-name="o" unicode="o" horiz-adv-x="558" 
d="M258 -10q-128 0 -194.5 88t-45.5 204q19 97 96 162.5t185 65.5q128 0 194.5 -87.5t45.5 -203.5q-19 -99 -94 -164t-187 -65zM269 146q39 0 69 25.5t37 67.5q8 46 -17 81t-70 36q-38 0 -68.5 -26t-37.5 -68q-8 -46 17 -81t70 -35z" />
    <glyph glyph-name="p" unicode="p" horiz-adv-x="596" 
d="M333 -10q-99 0 -142 72l-56 -292h-168l100 545q4 20 -2.5 28.5t-27.5 8.5h-14l26 148h79q77 0 100 -60q55 69 150 70q103 1 162 -83t39 -200q-18 -109 -86 -173t-160 -64zM307 146q41 0 70.5 27t36.5 68q8 46 -18 80t-72 34q-40 0 -69.5 -26t-36.5 -67q-8 -49 17.5 -82.5
t71.5 -33.5z" />
    <glyph glyph-name="q" unicode="q" horiz-adv-x="561" 
d="M228 -10q-112 -1 -171.5 83.5t-38.5 203.5q18 104 88.5 168.5t163.5 64.5q95 0 132 -70l11 60h170l-129 -730h-170q22 123 47 262q-39 -41 -103 -42zM272 147q41 0 70 26.5t36 68.5q8 46 -17.5 79.5t-68.5 33.5t-73 -27t-36 -67q-8 -45 18 -79.5t71 -34.5z" />
    <glyph glyph-name="r" unicode="r" horiz-adv-x="414" 
d="M5 0l61 315q5 20 -1 29t-25 9h-17l26 147h69q92 0 102 -84q46 84 136 84h73l-31 -174h-64q-55 0 -78 -19.5t-35 -82.5l-45 -224h-171z" />
    <glyph glyph-name="s" unicode="s" horiz-adv-x="471" 
d="M216 -10q-150 0 -239 93l138 99q42 -58 111 -58q40 0 45 30q1 6 -3 11.5t-16 10t-21.5 7.5t-29.5 8q-2 1 -3.5 1t-3.5 0.5l-4 1t-4 1.5q-36 10 -60 20t-51 29t-37.5 49.5t-3.5 70.5q11 64 72.5 105t147.5 41q71 0 131 -23t95 -61l-124 -92q-15 21 -43.5 36t-58.5 15
q-41 0 -44 -27q-1 -3 0 -6t3.5 -5.5t5.5 -4.5t8.5 -4.5t10 -4t12.5 -4t13.5 -4t15 -4t15.5 -4.5q35 -10 59 -20.5t50.5 -30t37 -50.5t3.5 -72q-12 -68 -70.5 -111t-157.5 -43z" />
    <glyph glyph-name="t" unicode="t" horiz-adv-x="356" 
d="M19 350l27 150h74l21 116l185 92q-18 -100 -37 -208h81l-26 -150h-82q-5 -28 -10 -58.5t-7.5 -45t-2.5 -15.5q-9 -49 1.5 -61t66.5 -12l-28 -158h-27q-129 0 -167 50t-15 180l21 120h-75z" />
    <glyph glyph-name="u" unicode="u" horiz-adv-x="566" 
d="M200 -10q-90 -1 -134.5 55t-24.5 157l23 113q5 21 -0.5 29.5t-23.5 8.5h-17l26 147h83q77 0 101.5 -38t8.5 -118l-26 -128q-7 -36 5.5 -56t41.5 -20q26 0 45 22.5t27 60.5l55 277h171l-61 -315q-5 -21 0.5 -29.5t24.5 -8.5h20l-26 -147h-73q-82 0 -105 56
q-54 -66 -141 -66z" />
    <glyph glyph-name="v" unicode="v" horiz-adv-x="547" 
d="M234 -10q-113 0 -162 56.5t-30 155.5l22 113q4 21 -1.5 29.5t-22.5 8.5h-17l26 147h84q77 0 100.5 -38t7.5 -118l-27 -140q-6 -30 5 -45.5t32 -15.5q37 0 65 45t42 123q18 99 -6 189h176q21 -105 1 -216q-25 -131 -97.5 -212.5t-197.5 -81.5z" />
    <glyph glyph-name="w" unicode="w" horiz-adv-x="833" 
d="M206 -10q-94 0 -138.5 57.5t-25.5 154.5l22 113q4 21 -1.5 29.5t-22.5 8.5h-17l26 147h84q77 0 100.5 -38t7.5 -118l-25 -129q-15 -76 42 -76q27 0 46 23.5t27 62.5l52 275h171l-53 -292q-12 -65 37 -65q78 0 108 168q19 102 -5 189h175q20 -103 -1 -216
q-23 -129 -95 -211.5t-184 -82.5q-128 0 -162 82q-63 -82 -168 -82z" />
    <glyph glyph-name="x" unicode="x" horiz-adv-x="555" 
d="M-41 0l227 263l-29 59q-9 19 -18.5 25t-31.5 6h-72l26 147h64q85 0 109 -14.5t61 -90.5l7 -17l102 122h194l-225 -262l30 -59q9 -19 19 -25.5t32 -6.5h69l-26 -147h-60q-60 0 -85.5 7t-42.5 26.5t-44 72.5l-6 12l-99 -118h-201z" />
    <glyph glyph-name="y" unicode="y" horiz-adv-x="533" 
d="M204 -240q-86 0 -147 40.5t-87 108.5l172 57q13 -56 71 -56q36 0 57.5 25.5t27.5 66.5v2q1 1 1.5 5t1.5 8t2 11t2 12q-44 -50 -116 -50q-84 0 -125 56.5t-22 155.5l21 113q5 21 -0.5 29.5t-23.5 8.5h-16l26 147h83q77 0 100.5 -38.5t7.5 -117.5l-25 -129q-15 -76 45 -76
q29 0 49 21.5t27 60.5l50 279h168l-87 -493q-21 -118 -82.5 -182.5t-180.5 -64.5z" />
    <glyph glyph-name="z" unicode="z" horiz-adv-x="496" 
d="M-24 0l27 149l257 203h-218l26 148h447l-27 -149l-261 -203h230l-26 -148h-455z" />
    <glyph glyph-name="braceleft" unicode="{" horiz-adv-x="358" 
d="M255 -230h-11q-126 0 -166.5 47.5t-18.5 169.5l15 86q11 62 -1.5 80t-71.5 18l27 156q61 0 79 17.5t29 79.5l16 89q22 122 79 169.5t182 47.5h11l-27 -156q-41 0 -54.5 -11t-21.5 -51l-15 -89q-13 -72 -37.5 -114t-69.5 -62q66 -43 44 -173l-15 -86q-7 -40 2.5 -51
t52.5 -11z" />
    <glyph glyph-name="bar" unicode="|" horiz-adv-x="219" 
d="M-62 -231l168 961h175l-169 -961h-174z" />
    <glyph glyph-name="braceright" unicode="}" horiz-adv-x="358" 
d="M-67 -232l28 156q41 0 54.5 11t20.5 51l15 87q12 71 37 112.5t70 62.5q-36 22 -46.5 64.5t1.5 108.5l16 89q7 40 -2.5 51t-51.5 11l27 156h11q126 0 166.5 -47.5t18.5 -169.5l-16 -89q-11 -62 2 -80t71 -18l-27 -155q-60 0 -78 -18t-29 -79l-16 -87q-22 -122 -79 -169.5
t-182 -47.5h-11z" />
    <glyph glyph-name="asciitilde" unicode="~" horiz-adv-x="487" 
d="M123 551q10 69 47.5 110t91.5 41q34 0 72 -23q30 -22 40 -22q22 0 26 42h94q-11 -71 -46.5 -111.5t-91.5 -40.5q-34 0 -73 26q-30 18 -40 18q-22 0 -26 -40h-94z" />
    <glyph glyph-name="exclamdown" unicode="&#xa1;" horiz-adv-x="218" 
d="M-62 -230l21 117q33 187 110 405h95q-2 -230 -33 -405l-20 -117h-173zM36 326l31 174h172l-30 -174h-173z" />
    <glyph glyph-name="cent" unicode="&#xa2;" 
d="M156 -130l24 137q-86 30 -123 104.5t-21 163.5q16 88 77 149t153 79l23 127h170l-24 -136q109 -36 156 -146l-166 -61q-22 69 -100 69q-49 0 -83 -25.5t-41 -68.5q-9 -47 19 -81.5t85 -34.5q74 0 108 63l150 -76q-74 -120 -216 -139l-21 -124h-170z" />
    <glyph glyph-name="sterling" unicode="&#xa3;" 
d="M71 308l23 133h56q-14 59 -5 108q16 88 82 139.5t165 51.5q81 0 138 -37.5t76 -97.5l-162 -65q-14 53 -63 53q-57 0 -66 -57q-7 -37 5 -95h196l-23 -133h-143q10 -56 1 -107q-6 -34 -22 -73q4 -2 13 -2q19 0 30.5 10t16.5 38l13 70h156l-15 -86q-14 -83 -49.5 -125.5
t-104.5 -42.5q-73 0 -124 44q-50 -45 -113 -45q-77 0 -115 39.5t-27 100.5q9 48 47 77t90 29q47 -1 82 -25q0 31 -28 98h-130zM156 95q19 0 35 16q-20 18 -37 18q-18 0 -21 -14q-2 -9 3.5 -14.5t19.5 -5.5z" />
    <glyph glyph-name="currency" unicode="&#xa4;" horiz-adv-x="773" 
d="M619 -1l-106 123q-49 -20 -104 -20q-79 0 -139 37l-152 -141l-101 111l153 141q-24 51 -24 112q0 76 37 136l-107 126l121 104l108 -126q52 20 104 20q72 0 132 -34l149 138l101 -109l-148 -136q29 -58 29 -119q0 -75 -37 -137l104 -121zM409 260q41 0 69 29.5t28 72.5
t-28 73t-69 30t-68.5 -29.5t-27.5 -73.5t27.5 -73t68.5 -29z" />
    <glyph glyph-name="yen" unicode="&#xa5;" horiz-adv-x="599" 
d="M48 294l24 136h174l-139 300h177l67 -149l115 149h197l-247 -300h174l-24 -136h-178l-9 -47h178l-23 -136h-179l-20 -111h-165l20 111h-174l24 136h174l9 47h-175z" />
    <glyph glyph-name="brokenbar" unicode="&#xa6;" horiz-adv-x="219" 
d="M33 310l73 420h175l-74 -420h-174zM-62 -230l74 420h174l-74 -420h-174z" />
    <glyph glyph-name="section" unicode="&#xa7;" horiz-adv-x="599" 
d="M273 -10q-101 0 -166 42t-82 105l181 45q5 -23 26.5 -38t52.5 -15q52 0 59 28q3 15 -24 25q-13 4 -91 22q-119 30 -163 67.5t-30 114.5q8 38 41 66.5t81 36.5q-29 47 -19 104q11 63 71 105.5t153 41.5q96 0 157 -42t71 -102l-167 -38q-2 23 -21.5 38t-50.5 15
q-48 0 -51 -27q-2 -15 26 -29t84 -27q109 -25 159 -63t37 -112q-8 -41 -36 -69.5t-68 -41.5q17 -31 12 -77q-9 -82 -75.5 -129t-166.5 -46zM343 331q39 -10 64 -19q26 7 29 27q1 9 -5.5 16t-29.5 15t-41.5 13t-63.5 16q-29 7 -53 19q-32 -7 -34 -30q-1 -12 12 -20.5
t40.5 -16t71.5 -18.5q7 -1 10 -2z" />
    <glyph glyph-name="dieresis" unicode="&#xa8;" horiz-adv-x="451" 
d="M295 541l29 168h167l-30 -168h-166zM93 541l30 168h166l-29 -168h-167z" />
    <glyph glyph-name="copyright" unicode="&#xa9;" horiz-adv-x="782" 
d="M370 -67q-169 0 -268.5 122.5t-71.5 287.5q25 146 139 243t264 97q111 0 196 -57t123.5 -151t20.5 -202q-25 -145 -138 -242.5t-265 -97.5zM383 70q94 0 163 62.5t85 155.5q18 105 -41.5 182.5t-166.5 77.5q-96 0 -164.5 -62t-85.5 -156q-19 -104 41.5 -182t168.5 -78z
M386 110q-90 0 -139.5 64.5t-35.5 152.5q13 75 71.5 127t140.5 52q64 0 108 -34t61 -89l-122 -46q-13 47 -54 47q-28 0 -49 -19.5t-26 -49.5q-5 -33 11.5 -56.5t49.5 -23.5q40 0 61 47l111 -53q-58 -119 -188 -119z" />
    <glyph glyph-name="ordfeminine" unicode="&#xaa;" horiz-adv-x="378" 
d="M327 440q-44 0 -58 27q-29 -32 -74 -32q-59 0 -96 43.5t-26 114.5q10 70 51.5 106.5t92.5 36.5q53 0 72 -37l6 31h122l-33 -177q-4 -21 17 -21h9l-17 -92h-66zM227 548q16 0 27 10.5t13 26.5t-7 27t-24 11q-16 0 -28 -10t-14 -26q-2 -17 7.5 -28t25.5 -11z" />
    <glyph glyph-name="guillemotleft" unicode="&#xab;" horiz-adv-x="443" 
d="M179 83l-156 119l18 103l197 119l-21 -127l-84 -47l67 -46zM383 83l-156 119l18 103l197 119l-22 -127l-83 -47l67 -46z" />
    <glyph glyph-name="logicalnot" unicode="&#xac;" horiz-adv-x="603" 
d="M397 213l35 208h-371l27 156h539l-61 -364h-169z" />
    <glyph glyph-name="uni00AD" unicode="&#xad;" horiz-adv-x="415" 
d="M11 183l25 143h370l-25 -143h-370z" />
    <glyph glyph-name="registered" unicode="&#xae;" horiz-adv-x="783" 
d="M360 -125q-169 0 -268.5 123t-71.5 288q25 146 139 243t264 97q111 0 196 -57t123.5 -151t20.5 -202q-25 -146 -138 -243.5t-265 -97.5zM163 273q-20 -103 40 -181l60 338h171q81 0 120.5 -43t29.5 -99q-12 -72 -80 -98l39 -108q63 61 78 149q18 104 -41.5 182t-166.5 78
q-96 0 -164.5 -62t-85.5 -156zM373 13q94 0 163 63h-132l-43 150l-27 -150h-117q60 -63 156 -63zM410 322h-32l-12 -64h33q43 0 49 33q3 16 -7.5 23.5t-30.5 7.5z" />
    <glyph glyph-name="macron" unicode="&#xaf;" horiz-adv-x="464" 
d="M151 543l21 113h264l-21 -113h-264z" />
    <glyph glyph-name="degree" unicode="&#xb0;" horiz-adv-x="407" 
d="M248 372q-84 0 -134 58.5t-43 137.5q6 72 61 122t132 50q84 0 135 -58t43 -138q-6 -73 -60.5 -122.5t-133.5 -49.5zM255 513q17 0 30 12t14 30t-11 31.5t-30 13.5q-17 0 -30 -12.5t-14 -29.5q-1 -18 11 -31.5t30 -13.5z" />
    <glyph glyph-name="plusminus" unicode="&#xb1;" horiz-adv-x="416" 
d="M51 408l25 142h114l20 114h143l-21 -114h114l-25 -142h-114l-20 -114h-142l20 114h-114zM-2 111l26 142h370l-25 -142h-371z" />
    <glyph glyph-name="twosuperior" unicode="&#xb2;" horiz-adv-x="327" 
d="M19 308l16 92q6 37 31 68t49.5 46.5t60.5 33.5q5 2 13 6.5t12.5 6.5t11.5 5.5t10.5 5.5t8.5 5.5t8 6t6 5.5t4.5 6t1.5 6q3 12 -5.5 19.5t-21.5 7.5q-17 0 -33 -17.5t-21 -40.5l-108 53q20 52 66.5 82.5t102.5 30.5q72 0 113 -44t30 -108q-4 -22 -16 -41t-31 -33.5
t-35.5 -24t-40.5 -20.5q-59 -32 -68 -40h162l-20 -117h-307z" />
    <glyph glyph-name="threesuperior" unicode="&#xb3;" horiz-adv-x="326" 
d="M178 302q-102 0 -158 60l105 84q19 -27 54 -27q32 0 37 24q2 11 -6.5 18t-28.5 7h-54l19 109h57q30 0 36 24q3 11 -6 18.5t-25 7.5q-36 0 -58 -28l-75 91q61 46 146 46q71 0 112.5 -41t31.5 -102q-9 -51 -49 -76q41 -36 29 -100q-9 -54 -55 -84.5t-112 -30.5z" />
    <glyph glyph-name="acute" unicode="&#xb4;" horiz-adv-x="464" 
d="M135 543l143 177h170l-187 -177h-126z" />
    <glyph glyph-name="mu" unicode="&#xb5;" horiz-adv-x="536" 
d="M-61 -231l129 731h169l-51 -284q-7 -36 5 -56t41 -20q27 0 45.5 22t26.5 61l55 277h172l-62 -315q-4 -21 1.5 -29.5t24.5 -8.5h19l-26 -147h-73q-78 0 -102 51q-46 -61 -126 -61q-21 0 -39 3l-39 -224h-170z" />
    <glyph glyph-name="mu" unicode="&#x3bc;" horiz-adv-x="536" 
d="M-61 -231l129 731h169l-51 -284q-7 -36 5 -56t41 -20q27 0 45.5 22t26.5 61l55 277h172l-62 -315q-4 -21 1.5 -29.5t24.5 -8.5h19l-26 -147h-73q-78 0 -102 51q-46 -61 -126 -61q-21 0 -39 3l-39 -224h-170z" />
    <glyph glyph-name="paragraph" unicode="&#xb6;" horiz-adv-x="695" 
d="M282 0l53 302h-76q-101 3 -155.5 69t-37.5 166q15 82 81.5 137.5t152.5 55.5h457l-128 -730h-153l99 572h-40l-100 -572h-153z" />
    <glyph glyph-name="periodcentered" unicode="&#xb7;" horiz-adv-x="218" 
d="M8 165l30 174h173l-31 -174h-172z" />
    <glyph glyph-name="cedilla" unicode="&#xb8;" horiz-adv-x="464" 
d="M145 -273q-114 0 -174 65l105 62q30 -32 71 -32q47 0 51 25q3 12 -8 18.5t-35 6.5h-65l24 128h113l-9 -48q52 -7 77 -38.5t17 -81.5q-10 -50 -55 -77.5t-112 -27.5z" />
    <glyph glyph-name="onesuperior" unicode="&#xb9;" horiz-adv-x="279" 
d="M19 308l20 117h69l21 125q-20 -17 -56 -17h-7l23 128h3q77 0 86 69h109l-54 -305h66l-20 -117h-260z" />
    <glyph glyph-name="ordmasculine" unicode="&#xba;" horiz-adv-x="332" 
d="M213 435q-68 0 -107.5 48t-31.5 112q7 59 53 100t110 41q68 0 108 -47.5t32 -112.5q-9 -60 -53 -100.5t-111 -40.5zM222 549q14 0 25 10t12 25q2 16 -7 27t-24 11t-25.5 -10.5t-11.5 -25.5q-2 -15 6.5 -26t24.5 -11z" />
    <glyph glyph-name="guillemotright" unicode="&#xbb;" horiz-adv-x="443" 
d="M265 422l156 -119l-18 -102l-197 -119l22 127l83 46l-67 47zM61 422l156 -119l-18 -102l-197 -119l22 127l83 46l-67 47z" />
    <glyph glyph-name="onequarter" unicode="&#xbc;" horiz-adv-x="875" 
d="M30 0l647 730h203l-646 -730h-204zM652 0l13 78h-171l19 109l194 235h137l-43 -241h48l-19 -103h-47l-13 -78h-118zM19 308l20 117h69l21 125q-20 -17 -56 -17h-7l23 128h3q77 0 86 69h109l-54 -305h66l-20 -117h-260zM642 181h41l11 64z" />
    <glyph glyph-name="onehalf" unicode="&#xbd;" horiz-adv-x="895" 
d="M29 0l647 730h203l-646 -730h-204zM528 0l16 92q6 37 31 68t49.5 46.5t60.5 33.5q5 2 13 6.5t12.5 6.5t11.5 5.5t10.5 5.5t8.5 5.5t8 6t6 5.5t4.5 6t1.5 6q3 12 -5.5 19.5t-21.5 7.5q-17 0 -33 -17.5t-21 -40.5l-108 53q20 52 66.5 82.5t102.5 30.5q72 0 113 -44t30 -108
q-4 -22 -16 -41t-31 -33.5t-35.5 -24t-40.5 -20.5q-59 -32 -68 -40h162l-20 -117h-307zM19 308l20 117h69l21 125q-20 -17 -56 -17h-7l23 128h3q77 0 86 69h109l-54 -305h66l-20 -117h-260z" />
    <glyph glyph-name="threequarters" unicode="&#xbe;" horiz-adv-x="914" 
d="M69 0l647 730h203l-646 -730h-204zM691 0l13 78h-171l19 109l194 235h137l-43 -241h48l-19 -103h-47l-13 -78h-118zM178 302q-102 0 -158 60l105 84q19 -27 54 -27q32 0 37 24q2 11 -6.5 18t-28.5 7h-54l19 109h57q30 0 36 24q3 11 -6 18.5t-25 7.5q-36 0 -58 -28l-75 91
q61 46 146 46q71 0 112.5 -41t31.5 -102q-9 -51 -49 -76q41 -36 29 -100q-9 -54 -55 -84.5t-112 -30.5zM681 181h41l11 64z" />
    <glyph glyph-name="questiondown" unicode="&#xbf;" horiz-adv-x="529" 
d="M203 -241q-117 0 -179 67t-46 159q9 50 33.5 83.5t54 50.5l59 34t53.5 47.5t32 77.5l2 12h148l-2 -12q-12 -72 -37 -120.5t-52 -70.5t-52.5 -37t-45 -32t-23.5 -43q-5 -28 13.5 -48.5t52.5 -20.5q58 0 84 56l152 -78q-78 -125 -247 -125zM407 499l-30 -174h-173l31 174
h172z" />
    <glyph glyph-name="Agrave" unicode="&#xc0;" horiz-adv-x="680" 
d="M-43 0l390 730h174l112 -730h-176l-15 107h-246l-56 -107h-183zM377 764l-123 177h162l80 -177h-119zM391 481l-112 -215h142z" />
    <glyph glyph-name="Aacute" unicode="&#xc1;" horiz-adv-x="680" 
d="M-43 0l390 730h174l112 -730h-176l-15 107h-246l-56 -107h-183zM375 764l143 177h170l-187 -177h-126zM391 481l-112 -215h142z" />
    <glyph glyph-name="Acircumflex" unicode="&#xc2;" horiz-adv-x="680" 
d="M-43 0l390 730h174l112 -730h-176l-15 107h-246l-56 -107h-183zM262 764l150 177h103l87 -177h-120l-33 76l-61 -76h-126zM391 481l-112 -215h142z" />
    <glyph glyph-name="Atilde" unicode="&#xc3;" horiz-adv-x="680" 
d="M-43 0l390 730h174l112 -730h-176l-15 107h-246l-56 -107h-183zM265 764q11 69 47.5 110t87.5 41q38 0 76 -23q30 -22 41 -22q21 0 25 42h95q-11 -71 -46 -111.5t-88 -40.5q-39 0 -78 26q-28 18 -40 18q-22 0 -26 -40h-94zM391 481l-112 -215h142z" />
    <glyph glyph-name="Adieresis" unicode="&#xc4;" horiz-adv-x="680" 
d="M-43 0l390 730h174l112 -730h-176l-15 107h-246l-56 -107h-183zM454 764l29 168h167l-30 -168h-166zM252 764l30 168h166l-29 -168h-167zM391 481l-112 -215h142z" />
    <glyph glyph-name="Aring" unicode="&#xc5;" horiz-adv-x="680" 
d="M-43 0l370 693q-24 40 -13 90q11 46 48.5 76.5t86.5 30.5q61 0 93.5 -43.5t19.5 -100.5q-9 -39 -34 -65l105 -681h-176l-15 107h-246l-56 -107h-183zM391 481l-112 -215h142zM434 731q30 0 37 29q3 16 -5.5 28t-23.5 12q-29 0 -36 -29q-4 -16 4 -28t24 -12z" />
    <glyph glyph-name="AE" unicode="&#xc6;" horiz-adv-x="886" 
d="M-38 0l457 730h531l-29 -162h-315l-5 -120h300l-30 -162h-277l-6 -124h262l-28 -162h-407l4 98h-201l-61 -98h-195zM316 255h110l8 189z" />
    <glyph glyph-name="Ccedilla" unicode="&#xc7;" horiz-adv-x="745" 
d="M343 -268q-114 0 -174 65l105 62q30 -32 71 -32q47 0 51 25q3 12 -8 18.5t-35 6.5h-65l22 119q-97 16 -165 76t-94.5 147.5t-9.5 185.5q25 145 137.5 240t265.5 95q114 0 199 -57t124 -149l-170 -82q-19 54 -61.5 85.5t-105.5 31.5q-81 0 -140 -51.5t-73 -132.5
q-16 -90 35 -156.5t144 -66.5q103 0 168 105l155 -97q-110 -163 -297 -178l-6 -35q52 -7 77 -38.5t17 -81.5q-10 -50 -55 -77.5t-112 -27.5z" />
    <glyph glyph-name="Egrave" unicode="&#xc8;" horiz-adv-x="477" 
d="M-19 0l128 730h431l-29 -161h-256l-21 -123h256l-29 -162h-256l-21 -123h256l-28 -161h-431zM288 764l-123 177h162l80 -177h-119z" />
    <glyph glyph-name="Eacute" unicode="&#xc9;" horiz-adv-x="477" 
d="M-19 0l128 730h431l-29 -161h-256l-21 -123h256l-29 -162h-256l-21 -123h256l-28 -161h-431zM245 764l143 177h170l-187 -177h-126z" />
    <glyph glyph-name="Ecircumflex" unicode="&#xca;" horiz-adv-x="477" 
d="M-19 0l128 730h431l-29 -161h-256l-21 -123h256l-29 -162h-256l-21 -123h256l-28 -161h-431zM158 764l150 177h103l87 -177h-120l-33 76l-61 -76h-126z" />
    <glyph glyph-name="Edieresis" unicode="&#xcb;" horiz-adv-x="477" 
d="M-19 0l128 730h431l-29 -161h-256l-21 -123h256l-29 -162h-256l-21 -123h256l-28 -161h-431zM148 764l30 168h166l-29 -168h-167zM350 764l29 168h167l-30 -168h-166z" />
    <glyph glyph-name="Igrave" unicode="&#xcc;" horiz-adv-x="230" 
d="M-17 0l129 730h174l-128 -730h-175zM148 764l-123 177h162l80 -177h-119z" />
    <glyph glyph-name="Iacute" unicode="&#xcd;" horiz-adv-x="230" 
d="M-17 0l129 730h174l-128 -730h-175zM141 764l143 177h170l-187 -177h-126z" />
    <glyph glyph-name="Icircumflex" unicode="&#xce;" horiz-adv-x="230" 
d="M-17 0l129 730h174l-128 -730h-175zM34 764l150 177h103l87 -177h-120l-33 76l-61 -76h-126z" />
    <glyph glyph-name="Idieresis" unicode="&#xcf;" horiz-adv-x="230" 
d="M-17 0l129 730h174l-128 -730h-175zM224 764l29 168h167l-30 -168h-166zM22 764l30 168h166l-29 -168h-167z" />
    <glyph glyph-name="Eth" unicode="&#xd0;" horiz-adv-x="701" 
d="M20 294l25 143h52l52 293h234q160 1 254 -112.5t67 -268.5q-26 -146 -133 -247.5t-267 -101.5h-283l51 294h-52zM390 294h-143l-23 -134h90q77 0 138 60.5t74 138.5q15 90 -30 151t-137 61h-64l-23 -134h143z" />
    <glyph glyph-name="Ntilde" unicode="&#xd1;" horiz-adv-x="655" 
d="M-20 0l130 730h180l175 -414l74 414h175l-128 -730h-169l-185 435l-77 -435h-175zM250 764q11 69 47.5 110t87.5 41q38 0 76 -23q30 -22 41 -22q21 0 25 42h95q-11 -71 -46 -111.5t-88 -40.5q-39 0 -78 26q-28 18 -40 18q-22 0 -26 -40h-94z" />
    <glyph glyph-name="Ograve" unicode="&#xd2;" horiz-adv-x="783" 
d="M381 -10q-169 0 -268.5 122.5t-71.5 287.5q25 146 139 243t264 97q110 0 195 -56.5t123.5 -151t20.5 -202.5q-25 -147 -136.5 -243.5t-265.5 -96.5zM395 162q82 0 140 52t72 132q16 90 -35.5 156.5t-143.5 66.5q-81 0 -139 -52.5t-73 -132.5q-15 -89 36 -155.5t143 -66.5
zM407 768l-123 177h162l80 -177h-119z" />
    <glyph glyph-name="Oacute" unicode="&#xd3;" horiz-adv-x="783" 
d="M394 768l143 177h170l-187 -177h-126zM381 -10q-169 0 -268.5 122.5t-71.5 287.5q25 146 139 243t264 97q110 0 195 -56.5t123.5 -151t20.5 -202.5q-25 -147 -136.5 -243.5t-265.5 -96.5zM395 162q82 0 140 52t72 132q16 90 -35.5 156.5t-143.5 66.5q-81 0 -139 -52.5
t-73 -132.5q-15 -89 36 -155.5t143 -66.5z" />
    <glyph glyph-name="Ocircumflex" unicode="&#xd4;" horiz-adv-x="783" 
d="M381 -10q-169 0 -268.5 122.5t-71.5 287.5q25 146 139 243t264 97q110 0 195 -56.5t123.5 -151t20.5 -202.5q-25 -147 -136.5 -243.5t-265.5 -96.5zM395 162q82 0 140 52t72 132q16 90 -35.5 156.5t-143.5 66.5q-81 0 -139 -52.5t-73 -132.5q-15 -89 36 -155.5t143 -66.5
zM288 768l150 177h103l87 -177h-120l-33 76l-61 -76h-126z" />
    <glyph glyph-name="Otilde" unicode="&#xd5;" horiz-adv-x="783" 
d="M381 -10q-169 0 -268.5 122.5t-71.5 287.5q25 146 139 243t264 97q110 0 195 -56.5t123.5 -151t20.5 -202.5q-25 -147 -136.5 -243.5t-265.5 -96.5zM395 162q82 0 140 52t72 132q16 90 -35.5 156.5t-143.5 66.5q-81 0 -139 -52.5t-73 -132.5q-15 -89 36 -155.5t143 -66.5
zM297 768q11 69 47.5 110t87.5 41q38 0 76 -23q30 -22 41 -22q21 0 25 42h95q-11 -71 -46 -111.5t-88 -40.5q-39 0 -78 26q-28 18 -40 18q-22 0 -26 -40h-94z" />
    <glyph glyph-name="Odieresis" unicode="&#xd6;" horiz-adv-x="783" 
d="M479 768l29 168h167l-30 -168h-166zM277 768l30 168h166l-29 -168h-167zM381 -10q-169 0 -268.5 122.5t-71.5 287.5q25 146 139 243t264 97q110 0 195 -56.5t123.5 -151t20.5 -202.5q-25 -147 -136.5 -243.5t-265.5 -96.5zM395 162q82 0 140 52t72 132q16 90 -35.5 156.5
t-143.5 66.5q-81 0 -139 -52.5t-73 -132.5q-15 -89 36 -155.5t143 -66.5z" />
    <glyph glyph-name="multiply" unicode="&#xd7;" horiz-adv-x="429" 
d="M107 167l-84 102l112 96l-78 95l117 97l76 -94l112 96l84 -102l-112 -96l78 -94l-117 -97l-76 92z" />
    <glyph glyph-name="Oslash" unicode="&#xd8;" horiz-adv-x="787" 
d="M382 -10q-107 0 -187 51l-40 -41h-188l129 134q-80 116 -54 266q25 146 139 243t264 97q102 0 186 -51l39 41h189l-130 -134q82 -117 56 -266q-25 -145 -138 -242.5t-265 -97.5zM218 384q-11 -61 11 -112l275 285q-34 14 -72 14q-82 0 -140.5 -53.5t-73.5 -133.5z
M398 162q80 0 138.5 53t73.5 133q10 58 -11 112l-275 -285q32 -13 74 -13z" />
    <glyph glyph-name="Ugrave" unicode="&#xd9;" horiz-adv-x="569" 
d="M247 -10q-114 0 -179.5 64.5t-44.5 185.5l87 490h174l-87 -496q-7 -39 13.5 -63t59.5 -24q36 0 63 23.5t34 63.5l87 496h175l-86 -485q-44 -255 -296 -255zM319 764l-123 177h162l80 -177h-119z" />
    <glyph glyph-name="Uacute" unicode="&#xda;" horiz-adv-x="569" 
d="M307 764l143 177h170l-187 -177h-126zM247 -10q-114 0 -179.5 64.5t-44.5 185.5l87 490h174l-87 -496q-7 -39 13.5 -63t59.5 -24q36 0 63 23.5t34 63.5l87 496h175l-86 -485q-44 -255 -296 -255z" />
    <glyph glyph-name="Ucircumflex" unicode="&#xdb;" horiz-adv-x="569" 
d="M247 -10q-114 0 -179.5 64.5t-44.5 185.5l87 490h174l-87 -496q-7 -39 13.5 -63t59.5 -24q36 0 63 23.5t34 63.5l87 496h175l-86 -485q-44 -255 -296 -255zM201 764l150 177h103l87 -177h-120l-33 76l-61 -76h-126z" />
    <glyph glyph-name="Udieresis" unicode="&#xdc;" horiz-adv-x="569" 
d="M391 764l29 168h167l-30 -168h-166zM189 764l30 168h166l-29 -168h-167zM247 -10q-114 0 -179.5 64.5t-44.5 185.5l87 490h174l-87 -496q-7 -39 13.5 -63t59.5 -24q36 0 63 23.5t34 63.5l87 496h175l-86 -485q-44 -255 -296 -255z" />
    <glyph glyph-name="Yacute" unicode="&#xdd;" horiz-adv-x="628" 
d="M178 0l62 354l-156 376h179l89 -223l165 223h198l-303 -388l-60 -342h-174zM333 763l143 177h170l-187 -177h-126z" />
    <glyph glyph-name="Thorn" unicode="&#xde;" horiz-adv-x="541" 
d="M-19 0l128 730h175l-21 -116h68q96 0 163 -73.5t50 -186.5q-15 -104 -88 -166.5t-188 -61.5h-90l-22 -126h-175zM302 453h-67l-29 -166h71q39 0 63 23t32 60q6 35 -14.5 59t-55.5 24z" />
    <glyph glyph-name="germandbls" unicode="&#xdf;" horiz-adv-x="513" 
d="M-148 -240l28 156h26q39 0 50 9t18 50l97 541q19 103 74 156t163 53q107 0 164.5 -68t41.5 -162q-15 -86 -79 -133q37 -28 50.5 -74.5t5.5 -95.5q-17 -95 -76.5 -149t-160.5 -54q-52 0 -76 8l27 155q18 -6 39 -6q28 0 47 17t25 47q7 38 -12 59t-61 21h-13l27 151h13
q37 0 57.5 20t25.5 51q5 28 -9.5 46.5t-42.5 18.5q-50 0 -61 -65l-93 -515q-10 -54 -17 -84.5t-18.5 -61t-25 -45t-36.5 -27t-52.5 -16t-72.5 -3.5h-73z" />
    <glyph glyph-name="agrave" unicode="&#xe0;" horiz-adv-x="595" 
d="M233 -10q-115 -1 -175.5 84t-39.5 203q18 104 88.5 168.5t164.5 64.5t137 -71l11 61h170l-60 -317q-4 -20 2 -28.5t27 -8.5h15l-26 -146h-73q-76 0 -101 53q-50 -62 -140 -63zM272 147q42 0 70.5 27t35.5 68q8 46 -17.5 79.5t-68.5 33.5t-73 -27t-36 -67q-8 -45 18 -79.5
t71 -34.5zM281 539l-123 177h162l80 -177h-119z" />
    <glyph glyph-name="aacute" unicode="&#xe1;" horiz-adv-x="595" 
d="M233 -10q-115 -1 -175.5 84t-39.5 203q18 104 88.5 168.5t164.5 64.5t137 -71l11 61h170l-60 -317q-4 -20 2 -28.5t27 -8.5h15l-26 -146h-73q-76 0 -101 53q-50 -62 -140 -63zM272 147q42 0 70.5 27t35.5 68q8 46 -17.5 79.5t-68.5 33.5t-73 -27t-36 -67q-8 -45 18 -79.5
t71 -34.5zM244 539l143 177h170l-187 -177h-126z" />
    <glyph glyph-name="acircumflex" unicode="&#xe2;" horiz-adv-x="595" 
d="M233 -10q-115 -1 -175.5 84t-39.5 203q18 104 88.5 168.5t164.5 64.5t137 -71l11 61h170l-60 -317q-4 -20 2 -28.5t27 -8.5h15l-26 -146h-73q-76 0 -101 53q-50 -62 -140 -63zM176 539l150 177h103l87 -177h-120l-33 76l-61 -76h-126zM272 147q42 0 70.5 27t35.5 68
q8 46 -17.5 79.5t-68.5 33.5t-73 -27t-36 -67q-8 -45 18 -79.5t71 -34.5z" />
    <glyph glyph-name="atilde" unicode="&#xe3;" horiz-adv-x="595" 
d="M233 -10q-115 -1 -175.5 84t-39.5 203q18 104 88.5 168.5t164.5 64.5t137 -71l11 61h170l-60 -317q-4 -20 2 -28.5t27 -8.5h15l-26 -146h-73q-76 0 -101 53q-50 -62 -140 -63zM159 539q11 69 47.5 110t87.5 41q38 0 76 -23q30 -22 41 -22q21 0 25 42h95
q-11 -71 -46 -111.5t-88 -40.5q-39 0 -78 26q-28 18 -40 18q-22 0 -26 -40h-94zM272 147q42 0 70.5 27t35.5 68q8 46 -17.5 79.5t-68.5 33.5t-73 -27t-36 -67q-8 -45 18 -79.5t71 -34.5z" />
    <glyph glyph-name="adieresis" unicode="&#xe4;" horiz-adv-x="595" 
d="M233 -10q-115 -1 -175.5 84t-39.5 203q18 104 88.5 168.5t164.5 64.5t137 -71l11 61h170l-60 -317q-4 -20 2 -28.5t27 -8.5h15l-26 -146h-73q-76 0 -101 53q-50 -62 -140 -63zM272 147q42 0 70.5 27t35.5 68q8 46 -17.5 79.5t-68.5 33.5t-73 -27t-36 -67q-8 -45 18 -79.5
t71 -34.5zM361 539l29 168h167l-30 -168h-166zM159 539l30 168h166l-29 -168h-167z" />
    <glyph glyph-name="aring" unicode="&#xe5;" horiz-adv-x="595" 
d="M233 -10q-115 -1 -175.5 84t-39.5 203q18 104 88.5 168.5t164.5 64.5t137 -71l11 61h170l-60 -317q-4 -20 2 -28.5t27 -8.5h15l-26 -146h-73q-76 0 -101 53q-50 -62 -140 -63zM335 530q-60 0 -92 44t-20 100q11 46 48.5 76.5t86.5 30.5q61 0 93.5 -43.5t19.5 -100.5
q-11 -47 -47 -77t-89 -30zM272 147q42 0 70.5 27t35.5 68q8 46 -17.5 79.5t-68.5 33.5t-73 -27t-36 -67q-8 -45 18 -79.5t71 -34.5zM343 622q30 0 37 29q3 16 -5.5 28t-23.5 12q-29 0 -36 -29q-4 -16 4 -28t24 -12z" />
    <glyph glyph-name="ae" unicode="&#xe6;" horiz-adv-x="809" 
d="M171 -10q-92 0 -139 48t-38 113q8 61 47.5 94.5t112.5 50.5q19 5 48 10.5t47 9t37 8.5t28.5 11.5t10.5 14.5q2 13 -11.5 21.5t-41.5 8.5q-80 0 -89 -62h-151q13 94 75.5 143t172.5 49q101 0 153 -48q74 48 163 48q99 0 160 -53.5t46 -132.5q-12 -68 -71 -108t-154 -39
q-61 -1 -121 18q10 -31 36.5 -49t64.5 -18q55 0 90 43l127 -81q-82 -100 -226 -100q-125 0 -197 80q-66 -80 -180 -80zM595 373q-70 0 -113 -54q46 -14 82 -13q75 -1 82 35q2 14 -12 23t-39 9zM184 121q31 0 62 21.5t51 54.5q-1 4 -1 12q-23 -11 -88 -27q-56 -13 -58 -38
q0 -23 34 -23z" />
    <glyph glyph-name="ccedilla" unicode="&#xe7;" horiz-adv-x="531" 
d="M208 -262q-114 0 -174 65l105 62q30 -32 71 -32q47 0 51 25q3 12 -8 18.5t-35 6.5h-65l22 119q-89 27 -131.5 106.5t-25.5 173.5q19 97 96 162.5t185 65.5q88 0 149.5 -45.5t83.5 -118.5l-160 -56q-19 66 -85 66q-36 0 -67 -26.5t-38 -67.5q-8 -46 17.5 -81t70.5 -35
q62 0 92 61l148 -72q-32 -61 -90 -99t-134 -45l-5 -28q52 -7 77 -38.5t17 -81.5q-10 -50 -55 -77.5t-112 -27.5z" />
    <glyph glyph-name="egrave" unicode="&#xe8;" horiz-adv-x="520" 
d="M259 -10q-129 0 -195.5 84t-45.5 201q18 105 101 170t187 65q101 0 161.5 -53.5t44.5 -132.5q-12 -68 -71 -108t-154 -39q-63 -1 -123 20q20 -70 103 -70q56 0 92 44l126 -81q-85 -100 -226 -100zM265 539l-123 177h162l80 -177h-119zM305 374q-71 0 -116 -55
q48 -14 85 -13q77 -1 84 35q2 15 -12 24t-41 9z" />
    <glyph glyph-name="eacute" unicode="&#xe9;" horiz-adv-x="520" 
d="M259 -10q-129 0 -195.5 84t-45.5 201q18 105 101 170t187 65q101 0 161.5 -53.5t44.5 -132.5q-12 -68 -71 -108t-154 -39q-63 -1 -123 20q20 -70 103 -70q56 0 92 44l126 -81q-85 -100 -226 -100zM238 539l143 177h170l-187 -177h-126zM305 374q-71 0 -116 -55
q48 -14 85 -13q77 -1 84 35q2 15 -12 24t-41 9z" />
    <glyph glyph-name="ecircumflex" unicode="&#xea;" horiz-adv-x="520" 
d="M259 -10q-129 0 -195.5 84t-45.5 201q18 105 101 170t187 65q101 0 161.5 -53.5t44.5 -132.5q-12 -68 -71 -108t-154 -39q-63 -1 -123 20q20 -70 103 -70q56 0 92 44l126 -81q-85 -100 -226 -100zM137 538l150 177h103l87 -177h-120l-33 76l-61 -76h-126zM305 374
q-71 0 -116 -55q48 -14 85 -13q77 -1 84 35q2 15 -12 24t-41 9z" />
    <glyph glyph-name="edieresis" unicode="&#xeb;" horiz-adv-x="520" 
d="M259 -10q-129 0 -195.5 84t-45.5 201q18 105 101 170t187 65q101 0 161.5 -53.5t44.5 -132.5q-12 -68 -71 -108t-154 -39q-63 -1 -123 20q20 -70 103 -70q56 0 92 44l126 -81q-85 -100 -226 -100zM128 539l30 168h166l-29 -168h-167zM330 539l29 168h167l-30 -168h-166z
M305 374q-71 0 -116 -55q48 -14 85 -13q77 -1 84 35q2 15 -12 24t-41 9z" />
    <glyph glyph-name="igrave" unicode="&#xec;" horiz-adv-x="246" 
d="M112 0q-76 0 -98.5 36.5t-8.5 114.5l61 349h169l-56 -320q-3 -17 2.5 -24t22.5 -7h17l-26 -149h-83zM88 535l-123 177h162l80 -177h-119z" />
    <glyph glyph-name="iacute" unicode="&#xed;" horiz-adv-x="246" 
d="M112 0q-76 0 -98.5 36.5t-8.5 114.5l61 349h169l-56 -320q-3 -17 2.5 -24t22.5 -7h17l-26 -149h-83zM91 535l143 177h170l-187 -177h-126z" />
    <glyph glyph-name="icircumflex" unicode="&#xee;" horiz-adv-x="246" 
d="M112 0q-76 0 -98.5 36.5t-8.5 114.5l61 349h169l-56 -320q-3 -17 2.5 -24t22.5 -7h17l-26 -149h-83zM-20 535l150 177h103l87 -177h-120l-33 76l-61 -76h-126z" />
    <glyph glyph-name="idieresis" unicode="&#xef;" horiz-adv-x="246" 
d="M112 0q-76 0 -98.5 36.5t-8.5 114.5l61 349h169l-56 -320q-3 -17 2.5 -24t22.5 -7h17l-26 -149h-83zM171 535l29 168h167l-30 -168h-166zM-31 535l30 168h166l-29 -168h-167z" />
    <glyph glyph-name="eth" unicode="&#xf0;" horiz-adv-x="558" 
d="M119 514l20 108l78 23q-33 37 -82 86h209q11 -13 31 -39l152 45l-20 -107l-72 -22q137 -212 104 -388q-19 -100 -92.5 -165t-187.5 -65q-125 0 -193.5 87t-47.5 205q17 96 85 157.5t161 61.5q38 0 76 -14q-20 33 -54 77zM269 146q39 0 69 25.5t37 67.5q8 46 -17 81
t-70 36q-38 0 -68.5 -26t-37.5 -68q-8 -46 17 -81t70 -35z" />
    <glyph glyph-name="ntilde" unicode="&#xf1;" horiz-adv-x="570" 
d="M5 0l61 315q5 21 -1 29t-25 8h-18l27 148h71q84 0 105 -57q58 67 145 67q91 0 134 -60.5t23 -159.5l-23 -112q-7 -32 25 -32h18l-26 -146h-77q-85 0 -109.5 38t-9.5 114l28 132q7 38 -7 57.5t-42 19.5q-58 0 -73 -82l-55 -279h-171zM169 539q11 69 47.5 110t87.5 41
q38 0 76 -23q30 -22 41 -22q21 0 25 42h95q-11 -71 -46 -111.5t-88 -40.5q-39 0 -78 26q-28 18 -40 18q-22 0 -26 -40h-94z" />
    <glyph glyph-name="ograve" unicode="&#xf2;" horiz-adv-x="558" 
d="M258 -10q-128 0 -194.5 88t-45.5 204q19 97 96 162.5t185 65.5q128 0 194.5 -87.5t45.5 -203.5q-19 -99 -94 -164t-187 -65zM269 146q39 0 69 25.5t37 67.5q8 46 -17 81t-70 36q-38 0 -68.5 -26t-37.5 -68q-8 -46 17 -81t70 -35zM255 539l-123 177h162l80 -177h-119z" />
    <glyph glyph-name="oacute" unicode="&#xf3;" horiz-adv-x="558" 
d="M241 539l143 177h170l-187 -177h-126zM258 -10q-128 0 -194.5 88t-45.5 204q19 97 96 162.5t185 65.5q128 0 194.5 -87.5t45.5 -203.5q-19 -99 -94 -164t-187 -65zM269 146q39 0 69 25.5t37 67.5q8 46 -17 81t-70 36q-38 0 -68.5 -26t-37.5 -68q-8 -46 17 -81t70 -35z
" />
    <glyph glyph-name="ocircumflex" unicode="&#xf4;" horiz-adv-x="558" 
d="M258 -10q-128 0 -194.5 88t-45.5 204q19 97 96 162.5t185 65.5q128 0 194.5 -87.5t45.5 -203.5q-19 -99 -94 -164t-187 -65zM146 539l150 177h103l87 -177h-120l-33 76l-61 -76h-126zM269 146q39 0 69 25.5t37 67.5q8 46 -17 81t-70 36q-38 0 -68.5 -26t-37.5 -68
q-8 -46 17 -81t70 -35z" />
    <glyph glyph-name="otilde" unicode="&#xf5;" horiz-adv-x="558" 
d="M258 -10q-128 0 -194.5 88t-45.5 204q19 97 96 162.5t185 65.5q128 0 194.5 -87.5t45.5 -203.5q-19 -99 -94 -164t-187 -65zM269 146q39 0 69 25.5t37 67.5q8 46 -17 81t-70 36q-38 0 -68.5 -26t-37.5 -68q-8 -46 17 -81t70 -35zM135 537q11 69 47.5 110t87.5 41
q38 0 76 -23q30 -22 41 -22q21 0 25 42h95q-11 -71 -46 -111.5t-88 -40.5q-39 0 -78 26q-28 18 -40 18q-22 0 -26 -40h-94z" />
    <glyph glyph-name="odieresis" unicode="&#xf6;" horiz-adv-x="558" 
d="M339 539l29 168h167l-30 -168h-166zM137 539l30 168h166l-29 -168h-167zM258 -10q-128 0 -194.5 88t-45.5 204q19 97 96 162.5t185 65.5q128 0 194.5 -87.5t45.5 -203.5q-19 -99 -94 -164t-187 -65zM269 146q39 0 69 25.5t37 67.5q8 46 -17 81t-70 36q-38 0 -68.5 -26
t-37.5 -68q-8 -46 17 -81t70 -35z" />
    <glyph glyph-name="divide" unicode="&#xf7;" horiz-adv-x="416" 
d="M30 293l26 143h370l-25 -143h-371zM175 465l25 134h141l-25 -134h-141zM116 130l24 134h141l-24 -134h-141z" />
    <glyph glyph-name="oslash" unicode="&#xf8;" horiz-adv-x="558" 
d="M-46 0l96 96q-52 83 -32 186q19 97 96 162.5t185 65.5q74 0 132 -34l24 24h147l-96 -96q52 -81 33 -185q-19 -99 -94 -164t-187 -65q-77 0 -133 34l-24 -24h-147zM268 137q42 0 74.5 27.5t40.5 73.5q3 22 0 43l-142 -141q12 -3 27 -3zM174 263q-5 -23 0 -43l141 141
q-16 4 -26 4q-41 0 -74 -28t-41 -74z" />
    <glyph glyph-name="ugrave" unicode="&#xf9;" horiz-adv-x="566" 
d="M200 -10q-90 -1 -134.5 55t-24.5 157l23 113q5 21 -0.5 29.5t-23.5 8.5h-17l26 147h83q77 0 101.5 -38t8.5 -118l-26 -128q-7 -36 5.5 -56t41.5 -20q26 0 45 22.5t27 60.5l55 277h171l-61 -315q-5 -21 0.5 -29.5t24.5 -8.5h20l-26 -147h-73q-82 0 -105 56
q-54 -66 -141 -66zM238 535l-123 177h162l80 -177h-119z" />
    <glyph glyph-name="uacute" unicode="&#xfa;" horiz-adv-x="566" 
d="M200 -10q-90 -1 -134.5 55t-24.5 157l23 113q5 21 -0.5 29.5t-23.5 8.5h-17l26 147h83q77 0 101.5 -38t8.5 -118l-26 -128q-7 -36 5.5 -56t41.5 -20q26 0 45 22.5t27 60.5l55 277h171l-61 -315q-5 -21 0.5 -29.5t24.5 -8.5h20l-26 -147h-73q-82 0 -105 56
q-54 -66 -141 -66zM227 535l143 177h170l-187 -177h-126z" />
    <glyph glyph-name="ucircumflex" unicode="&#xfb;" horiz-adv-x="566" 
d="M200 -10q-90 -1 -134.5 55t-24.5 157l23 113q5 21 -0.5 29.5t-23.5 8.5h-17l26 147h83q77 0 101.5 -38t8.5 -118l-26 -128q-7 -36 5.5 -56t41.5 -20q26 0 45 22.5t27 60.5l55 277h171l-61 -315q-5 -21 0.5 -29.5t24.5 -8.5h20l-26 -147h-73q-82 0 -105 56
q-54 -66 -141 -66zM134 535l150 177h103l87 -177h-120l-33 76l-61 -76h-126z" />
    <glyph glyph-name="udieresis" unicode="&#xfc;" horiz-adv-x="566" 
d="M200 -10q-90 -1 -134.5 55t-24.5 157l23 113q5 21 -0.5 29.5t-23.5 8.5h-17l26 147h83q77 0 101.5 -38t8.5 -118l-26 -128q-7 -36 5.5 -56t41.5 -20q26 0 45 22.5t27 60.5l55 277h171l-61 -315q-5 -21 0.5 -29.5t24.5 -8.5h20l-26 -147h-73q-82 0 -105 56
q-54 -66 -141 -66zM129 535l30 168h166l-29 -168h-167zM331 535l29 168h167l-30 -168h-166z" />
    <glyph glyph-name="yacute" unicode="&#xfd;" horiz-adv-x="533" 
d="M204 -240q-86 0 -147 40.5t-87 108.5l172 57q13 -56 71 -56q36 0 57.5 25.5t27.5 66.5v2q1 1 1.5 5t1.5 8t2 11t2 12q-44 -50 -116 -50q-84 0 -125 56.5t-22 155.5l21 113q5 21 -0.5 29.5t-23.5 8.5h-16l26 147h83q77 0 100.5 -38.5t7.5 -117.5l-25 -129q-15 -76 45 -76
q29 0 49 21.5t27 60.5l50 279h168l-87 -493q-21 -118 -82.5 -182.5t-180.5 -64.5zM219 534l143 177h170l-187 -177h-126z" />
    <glyph glyph-name="thorn" unicode="&#xfe;" horiz-adv-x="563" 
d="M300 -10q-99 0 -142 68l-51 -288h-167l168 960h167q-25 -144 -45 -259q47 38 112 39q105 1 164.5 -82.5t39.5 -200.5q-18 -109 -86 -173t-160 -64zM274 146q41 0 70.5 27t36.5 68q8 46 -18 80t-72 34q-40 0 -69.5 -26t-36.5 -67q-8 -49 17.5 -82.5t71.5 -33.5z" />
    <glyph glyph-name="ydieresis" unicode="&#xff;" horiz-adv-x="533" 
d="M204 -240q-86 0 -147 40.5t-87 108.5l172 57q13 -56 71 -56q36 0 57.5 25.5t27.5 66.5v2q1 1 1.5 5t1.5 8t2 11t2 12q-44 -50 -116 -50q-84 0 -125 56.5t-22 155.5l21 113q5 21 -0.5 29.5t-23.5 8.5h-16l26 147h83q77 0 100.5 -38.5t7.5 -117.5l-25 -129q-15 -76 45 -76
q29 0 49 21.5t27 60.5l50 279h168l-87 -493q-21 -118 -82.5 -182.5t-180.5 -64.5zM111 535l30 168h166l-29 -168h-167zM313 535l29 168h167l-30 -168h-166z" />
    <glyph glyph-name="Amacron" unicode="&#x100;" horiz-adv-x="680" 
d="M-43 0l390 730h174l112 -730h-176l-15 107h-246l-56 -107h-183zM303 764l21 113h264l-21 -113h-264zM391 481l-112 -215h142z" />
    <glyph glyph-name="amacron" unicode="&#x101;" horiz-adv-x="595" 
d="M233 -10q-115 -1 -175.5 84t-39.5 203q18 104 88.5 168.5t164.5 64.5t137 -71l11 61h170l-60 -317q-4 -20 2 -28.5t27 -8.5h15l-26 -146h-73q-76 0 -101 53q-50 -62 -140 -63zM272 147q42 0 70.5 27t35.5 68q8 46 -17.5 79.5t-68.5 33.5t-73 -27t-36 -67q-8 -45 18 -79.5
t71 -34.5zM212 539l21 113h264l-21 -113h-264z" />
    <glyph glyph-name="Abreve" unicode="&#x102;" horiz-adv-x="680" 
d="M-43 0l390 730h174l112 -730h-176l-15 107h-246l-56 -107h-183zM442 760q-82 0 -118 49t-21 129h107q-14 -74 44 -76q56 2 70 76h107q-15 -82 -63 -130t-126 -48zM391 481l-112 -215h142z" />
    <glyph glyph-name="abreve" unicode="&#x103;" horiz-adv-x="595" 
d="M233 -10q-115 -1 -175.5 84t-39.5 203q18 104 88.5 168.5t164.5 64.5t137 -71l11 61h170l-60 -317q-4 -20 2 -28.5t27 -8.5h15l-26 -146h-73q-76 0 -101 53q-50 -62 -140 -63zM339 531q-82 0 -118 49t-21 129h107q-14 -74 44 -76q56 2 70 76h107q-15 -82 -63 -130
t-126 -48zM272 147q42 0 70.5 27t35.5 68q8 46 -17.5 79.5t-68.5 33.5t-73 -27t-36 -67q-8 -45 18 -79.5t71 -34.5z" />
    <glyph glyph-name="Aogonek" unicode="&#x104;" horiz-adv-x="680" 
d="M485 -238q-76 0 -114.5 36.5t-28.5 89.5q6 35 30.5 64t82.5 61l-13 94h-246l-56 -107h-183l390 730h174l112 -730q-103 -58 -132.5 -78t-32.5 -36q-1 -11 6.5 -17t20.5 -6q23 0 52 29l95 -63q-72 -67 -157 -67zM391 481l-112 -215h142z" />
    <glyph glyph-name="aogonek" unicode="&#x105;" horiz-adv-x="595" 
d="M233 -10q-115 -1 -175.5 84t-39.5 203q18 104 88.5 168.5t164.5 64.5t137 -71l11 61h170l-60 -317q-4 -20 2 -28.5t27 -8.5h15l-26 -146h-1q-103 -58 -132.5 -78t-32.5 -36q-1 -11 6.5 -17t20.5 -6q23 0 52 29l95 -63q-72 -67 -157 -67q-76 0 -114.5 36.5t-28.5 89.5
q6 38 36 69.5t101 68.5q-11 11 -19 27q-50 -62 -140 -63zM272 147q42 0 70.5 27t35.5 68q8 46 -17.5 79.5t-68.5 33.5t-73 -27t-36 -67q-8 -45 18 -79.5t71 -34.5z" />
    <glyph glyph-name="Cacute" unicode="&#x106;" horiz-adv-x="745" 
d="M393 768l143 177h170l-187 -177h-126zM385 -10q-180 -1 -276.5 122t-67.5 293q25 145 137.5 240t265.5 95q114 0 199 -57t124 -149l-170 -82q-19 54 -61.5 85.5t-105.5 31.5q-81 0 -140 -51.5t-73 -132.5q-16 -90 35 -156.5t144 -66.5q103 0 168 105l155 -97
q-121 -179 -334 -180z" />
    <glyph glyph-name="cacute" unicode="&#x107;" horiz-adv-x="531" 
d="M246 539l143 177h170l-187 -177h-126zM258 -10q-128 0 -194.5 88t-45.5 204q19 97 96 162.5t185 65.5q88 0 149.5 -45.5t83.5 -118.5l-160 -56q-19 66 -85 66q-36 0 -67 -26.5t-38 -67.5q-8 -46 17.5 -81t70.5 -35q62 0 92 61l148 -72q-36 -67 -101 -106t-151 -39z" />
    <glyph glyph-name="Ccircumflex" unicode="&#x108;" horiz-adv-x="745" 
d="M385 -10q-180 -1 -276.5 122t-67.5 293q25 145 137.5 240t265.5 95q114 0 199 -57t124 -149l-170 -82q-19 54 -61.5 85.5t-105.5 31.5q-81 0 -140 -51.5t-73 -132.5q-16 -90 35 -156.5t144 -66.5q103 0 168 105l155 -97q-121 -179 -334 -180zM292 767l150 177h103
l87 -177h-120l-33 76l-61 -76h-126z" />
    <glyph glyph-name="ccircumflex" unicode="&#x109;" horiz-adv-x="531" 
d="M258 -10q-128 0 -194.5 88t-45.5 204q19 97 96 162.5t185 65.5q88 0 149.5 -45.5t83.5 -118.5l-160 -56q-19 66 -85 66q-36 0 -67 -26.5t-38 -67.5q-8 -46 17.5 -81t70.5 -35q62 0 92 61l148 -72q-36 -67 -101 -106t-151 -39zM148 539l150 177h103l87 -177h-120l-33 76
l-61 -76h-126z" />
    <glyph glyph-name="Cdotaccent" unicode="&#x10a;" horiz-adv-x="745" 
d="M385 -10q-180 -1 -276.5 122t-67.5 293q25 145 137.5 240t265.5 95q114 0 199 -57t124 -149l-170 -82q-19 54 -61.5 85.5t-105.5 31.5q-81 0 -140 -51.5t-73 -132.5q-16 -90 35 -156.5t144 -66.5q103 0 168 105l155 -97q-121 -179 -334 -180zM377 768l31 175h172
l-31 -175h-172z" />
    <glyph glyph-name="cdotaccent" unicode="&#x10b;" horiz-adv-x="531" 
d="M258 -10q-128 0 -194.5 88t-45.5 204q19 97 96 162.5t185 65.5q88 0 149.5 -45.5t83.5 -118.5l-160 -56q-19 66 -85 66q-36 0 -67 -26.5t-38 -67.5q-8 -46 17.5 -81t70.5 -35q62 0 92 61l148 -72q-36 -67 -101 -106t-151 -39zM232 538l31 175h172l-31 -175h-172z" />
    <glyph glyph-name="Ccaron" unicode="&#x10c;" horiz-adv-x="745" 
d="M385 -10q-180 -1 -276.5 122t-67.5 293q25 145 137.5 240t265.5 95q114 0 199 -57t124 -149l-170 -82q-19 54 -61.5 85.5t-105.5 31.5q-81 0 -140 -51.5t-73 -132.5q-16 -90 35 -156.5t144 -66.5q103 0 168 105l155 -97q-121 -179 -334 -180zM406 768l-87 177h121l34 -76
l60 76h125l-150 -177h-103z" />
    <glyph glyph-name="ccaron" unicode="&#x10d;" horiz-adv-x="531" 
d="M258 -10q-128 0 -194.5 88t-45.5 204q19 97 96 162.5t185 65.5q88 0 149.5 -45.5t83.5 -118.5l-160 -56q-19 66 -85 66q-36 0 -67 -26.5t-38 -67.5q-8 -46 17.5 -81t70.5 -35q62 0 92 61l148 -72q-36 -67 -101 -106t-151 -39zM269 539l-87 177h121l34 -76l60 76h125
l-150 -177h-103z" />
    <glyph glyph-name="Dcaron" unicode="&#x10e;" horiz-adv-x="661" 
d="M-19 0l128 730h234q160 1 254 -112.5t67 -268.5q-26 -146 -133 -247.5t-267 -101.5h-283zM319 571h-64l-71 -411h90q77 0 138 60.5t74 138.5q15 90 -30 151t-137 61zM283 764l-87 177h121l34 -76l60 76h125l-150 -177h-103z" />
    <glyph glyph-name="dcaron" unicode="&#x10f;" horiz-adv-x="608" 
d="M233 -10q-114 -1 -175 84t-40 203q18 104 88.5 168.5t164.5 64.5q95 0 137 -67l53 287h169l-101 -547q-4 -20 2.5 -28.5t27.5 -8.5h15l-26 -146h-73q-80 0 -103 55q-50 -64 -139 -65zM272 147q41 0 70 26.5t36 68.5q8 46 -17.5 79.5t-68.5 33.5t-73 -27t-36 -67
q-8 -45 18 -79.5t71 -34.5zM623 552l67 178h145l-107 -178h-105z" />
    <glyph glyph-name="Dcroat" unicode="&#x110;" horiz-adv-x="701" 
d="M20 294l25 143h52l52 293h234q160 1 254 -112.5t67 -268.5q-26 -146 -133 -247.5t-267 -101.5h-283l51 294h-52zM390 294h-143l-23 -134h90q77 0 138 60.5t74 138.5q15 90 -30 151t-137 61h-64l-23 -134h143z" />
    <glyph glyph-name="dcroat" unicode="&#x111;" horiz-adv-x="599" 
d="M357 543l19 104h69l16 83h169l-16 -83h47l-19 -104h-47l-66 -360q-4 -20 2.5 -28.5t27.5 -8.5h15l-26 -146h-73q-80 0 -103 55q-50 -64 -139 -65q-114 -1 -175 84t-40 203q18 104 88.5 168.5t164.5 64.5q95 0 137 -67l18 100h-69zM272 147q41 0 70 26.5t36 68.5
q8 46 -17.5 79.5t-68.5 33.5t-73 -27t-36 -67q-8 -45 18 -79.5t71 -34.5z" />
    <glyph glyph-name="Emacron" unicode="&#x112;" horiz-adv-x="477" 
d="M-19 0l128 730h431l-29 -161h-256l-21 -123h256l-29 -162h-256l-21 -123h256l-28 -161h-431zM201 764l21 113h264l-21 -113h-264z" />
    <glyph glyph-name="emacron" unicode="&#x113;" horiz-adv-x="520" 
d="M259 -10q-129 0 -195.5 84t-45.5 201q18 105 101 170t187 65q101 0 161.5 -53.5t44.5 -132.5q-12 -68 -71 -108t-154 -39q-63 -1 -123 20q20 -70 103 -70q56 0 92 44l126 -81q-85 -100 -226 -100zM180 539l21 113h264l-21 -113h-264zM305 374q-71 0 -116 -55
q48 -14 85 -13q77 -1 84 35q2 15 -12 24t-41 9z" />
    <glyph glyph-name="Ebreve" unicode="&#x114;" horiz-adv-x="477" 
d="M-19 0l128 730h431l-29 -161h-256l-21 -123h256l-29 -162h-256l-21 -123h256l-28 -161h-431zM336 760q-82 0 -118 49t-21 129h107q-14 -74 44 -76q56 2 70 76h107q-15 -82 -63 -130t-126 -48z" />
    <glyph glyph-name="ebreve" unicode="&#x115;" horiz-adv-x="520" 
d="M259 -10q-129 0 -195.5 84t-45.5 201q18 105 101 170t187 65q101 0 161.5 -53.5t44.5 -132.5q-12 -68 -71 -108t-154 -39q-63 -1 -123 20q20 -70 103 -70q56 0 92 44l126 -81q-85 -100 -226 -100zM315 535q-82 0 -118 49t-21 129h107q-14 -74 44 -76q56 2 70 76h107
q-15 -82 -63 -130t-126 -48zM305 374q-71 0 -116 -55q48 -14 85 -13q77 -1 84 35q2 15 -12 24t-41 9z" />
    <glyph glyph-name="Edotaccent" unicode="&#x116;" horiz-adv-x="477" 
d="M-19 0l128 730h431l-29 -161h-256l-21 -123h256l-29 -162h-256l-21 -123h256l-28 -161h-431zM254 764l31 175h172l-31 -175h-172z" />
    <glyph glyph-name="edotaccent" unicode="&#x117;" horiz-adv-x="520" 
d="M259 -10q-129 0 -195.5 84t-45.5 201q18 105 101 170t187 65q101 0 161.5 -53.5t44.5 -132.5q-12 -68 -71 -108t-154 -39q-63 -1 -123 20q20 -70 103 -70q56 0 92 44l126 -81q-85 -100 -226 -100zM230 538l31 175h172l-31 -175h-172zM305 374q-71 0 -116 -55
q48 -14 85 -13q77 -1 84 35q2 15 -12 24t-41 9z" />
    <glyph glyph-name="Eogonek" unicode="&#x118;" horiz-adv-x="477" 
d="M-19 0l128 730h431l-29 -161h-256l-21 -123h256l-29 -162h-256l-21 -123h256l-28 -161h-1q-103 -58 -132.5 -78t-32.5 -36q-1 -11 6.5 -17t20.5 -6q23 0 52 29l95 -63q-72 -67 -157 -67q-76 0 -114.5 36.5t-28.5 89.5q9 61 90 112h-229z" />
    <glyph glyph-name="eogonek" unicode="&#x119;" horiz-adv-x="520" 
d="M193 -232q-76 0 -114.5 36.5t-28.5 89.5q9 64 98 117q-76 32 -110.5 104t-19.5 160q18 105 101 170t187 65q101 0 161.5 -53.5t44.5 -132.5q-12 -68 -71 -108t-154 -39q-63 -1 -123 20q20 -70 103 -70q56 0 92 44l126 -81q-68 -79 -164 -95q-88 -50 -115 -68.5t-30 -34.5
q-1 -11 6.5 -17t20.5 -6q23 0 52 29l95 -63q-72 -67 -157 -67zM305 374q-71 0 -116 -55q48 -14 85 -13q77 -1 84 35q2 15 -12 24t-41 9z" />
    <glyph glyph-name="Ecaron" unicode="&#x11a;" horiz-adv-x="477" 
d="M-19 0l128 730h431l-29 -161h-256l-21 -123h256l-29 -162h-256l-21 -123h256l-28 -161h-431zM278 764l-87 177h121l34 -76l60 76h125l-150 -177h-103z" />
    <glyph glyph-name="ecaron" unicode="&#x11b;" horiz-adv-x="520" 
d="M259 -10q-129 0 -195.5 84t-45.5 201q18 105 101 170t187 65q101 0 161.5 -53.5t44.5 -132.5q-12 -68 -71 -108t-154 -39q-63 -1 -123 20q20 -70 103 -70q56 0 92 44l126 -81q-85 -100 -226 -100zM263 539l-87 177h121l34 -76l60 76h125l-150 -177h-103zM305 374
q-71 0 -116 -55q48 -14 85 -13q77 -1 84 35q2 15 -12 24t-41 9z" />
    <glyph glyph-name="Gcircumflex" unicode="&#x11c;" horiz-adv-x="771" 
d="M380 -10q-172 0 -270 122t-70 288q25 144 138.5 242t268.5 98q111 0 194.5 -53.5t124.5 -139.5l-170 -82q-41 110 -164 110q-86 0 -145.5 -55t-74.5 -135q-17 -91 35.5 -159.5t147.5 -68.5q116 0 171 104h-202l29 162h393l-15 -85q-27 -158 -133 -253t-258 -95zM293 767
l150 177h103l87 -177h-120l-33 76l-61 -76h-126z" />
    <glyph glyph-name="gcircumflex" unicode="&#x11d;" horiz-adv-x="561" 
d="M218 -10q-106 0 -163.5 84.5t-36.5 202.5q18 105 88.5 169t164.5 64q93 0 131 -67l11 57h169l-87 -493q-44 -247 -268 -247q-86 0 -148.5 41t-89.5 108l171 57q17 -56 77 -56q36 0 58.5 25.5t28.5 66.5v2q1 1 1.5 5t1.5 8t2 11t2 12q-42 -50 -113 -50zM162 539l150 177
h103l87 -177h-120l-33 76l-61 -76h-126zM272 147q41 0 70 26.5t36 68.5q8 46 -18 79.5t-69 33.5q-42 0 -72 -27t-36 -67q-8 -45 18 -79.5t71 -34.5z" />
    <glyph glyph-name="Gbreve" unicode="&#x11e;" horiz-adv-x="771" 
d="M380 -10q-172 0 -270 122t-70 288q25 144 138.5 242t268.5 98q111 0 194.5 -53.5t124.5 -139.5l-170 -82q-41 110 -164 110q-86 0 -145.5 -55t-74.5 -135q-17 -91 35.5 -159.5t147.5 -68.5q116 0 171 104h-202l29 162h393l-15 -85q-27 -158 -133 -253t-258 -95zM468 764
q-82 0 -118 49t-21 129h107q-14 -74 44 -76q56 2 70 76h107q-15 -82 -63 -130t-126 -48z" />
    <glyph glyph-name="gbreve" unicode="&#x11f;" horiz-adv-x="561" 
d="M218 -10q-106 0 -163.5 84.5t-36.5 202.5q18 105 88.5 169t164.5 64q93 0 131 -67l11 57h169l-87 -493q-44 -247 -268 -247q-86 0 -148.5 41t-89.5 108l171 57q17 -56 77 -56q36 0 58.5 25.5t28.5 66.5v2q1 1 1.5 5t1.5 8t2 11t2 12q-42 -50 -113 -50zM331 532
q-82 0 -118 49t-21 129h107q-14 -74 44 -76q56 2 70 76h107q-15 -82 -63 -130t-126 -48zM272 147q41 0 70 26.5t36 68.5q8 46 -18 79.5t-69 33.5q-42 0 -72 -27t-36 -67q-8 -45 18 -79.5t71 -34.5z" />
    <glyph glyph-name="Gdotaccent" unicode="&#x120;" horiz-adv-x="771" 
d="M380 -10q-172 0 -270 122t-70 288q25 144 138.5 242t268.5 98q111 0 194.5 -53.5t124.5 -139.5l-170 -82q-41 110 -164 110q-86 0 -145.5 -55t-74.5 -135q-17 -91 35.5 -159.5t147.5 -68.5q116 0 171 104h-202l29 162h393l-15 -85q-27 -158 -133 -253t-258 -95zM379 768
l31 175h172l-31 -175h-172z" />
    <glyph glyph-name="gdotaccent" unicode="&#x121;" horiz-adv-x="561" 
d="M218 -10q-106 0 -163.5 84.5t-36.5 202.5q18 105 88.5 169t164.5 64q93 0 131 -67l11 57h169l-87 -493q-44 -247 -268 -247q-86 0 -148.5 41t-89.5 108l171 57q17 -56 77 -56q36 0 58.5 25.5t28.5 66.5v2q1 1 1.5 5t1.5 8t2 11t2 12q-42 -50 -113 -50zM272 147
q41 0 70 26.5t36 68.5q8 46 -18 79.5t-69 33.5q-42 0 -72 -27t-36 -67q-8 -45 18 -79.5t71 -34.5zM237 538l31 175h172l-31 -175h-172z" />
    <glyph glyph-name="Gcommaaccent" unicode="&#x122;" horiz-adv-x="771" 
d="M380 -10q-172 0 -270 122t-70 288q25 144 138.5 242t268.5 98q111 0 194.5 -53.5t124.5 -139.5l-170 -82q-41 110 -164 110q-86 0 -145.5 -55t-74.5 -135q-17 -91 35.5 -159.5t147.5 -68.5q116 0 171 104h-202l29 162h393l-15 -85q-27 -158 -133 -253t-258 -95zM202 -259
l82 223h164l-121 -223h-125z" />
    <glyph glyph-name="gcommaaccent" unicode="&#x123;" horiz-adv-x="561" 
d="M218 -10q-106 0 -163.5 84.5t-36.5 202.5q18 105 88.5 169t164.5 64q93 0 131 -67l11 57h169l-87 -493q-44 -247 -268 -247q-86 0 -148.5 41t-89.5 108l171 57q17 -56 77 -56q36 0 58.5 25.5t28.5 66.5v2q1 1 1.5 5t1.5 8t2 11t2 12q-42 -50 -113 -50zM272 147
q41 0 70 26.5t36 68.5q8 46 -18 79.5t-69 33.5q-42 0 -72 -27t-36 -67q-8 -45 18 -79.5t71 -34.5zM252 538l82 223h164l-121 -223h-125z" />
    <glyph glyph-name="Hcircumflex" unicode="&#x124;" horiz-adv-x="596" 
d="M352 0l49 280h-196l-49 -280h-175l128 730h175l-49 -276h196l49 276h175l-128 -730h-175zM215 764l150 177h103l87 -177h-120l-33 76l-61 -76h-126z" />
    <glyph glyph-name="hcircumflex" unicode="&#x125;" horiz-adv-x="535" 
d="M-22 0l128 730h169l-48 -272q49 52 121 52q85 0 125 -58t19 -160l-22 -114q-4 -17 2 -24.5t23 -7.5h17l-26 -146h-76q-85 0 -109.5 38t-8.5 114l26 132q8 37 -6 57t-42 20q-60 0 -73 -82l-49 -279h-170zM19 764l150 177h103l87 -177h-120l-33 76l-61 -76h-126z" />
    <glyph glyph-name="Hbar" unicode="&#x126;" horiz-adv-x="631" 
d="M59 524l22 129h32l14 77h175l-14 -77h196l14 77h175l-14 -77h33l-22 -129h-33l-92 -524h-175l49 280h-196l-49 -280h-175l92 524h-32zM266 524l-13 -70h196l13 70h-196z" />
    <glyph glyph-name="hbar" unicode="&#x127;" horiz-adv-x="539" 
d="M31 543l18 104h46l15 83h169l-15 -83h64l-18 -104h-64l-15 -85q49 52 121 52q85 0 125 -58t19 -160l-22 -114q-4 -17 2 -24.5t23 -7.5h17l-26 -146h-76q-85 0 -109.5 38t-8.5 114l26 132q8 37 -6 57t-42 20q-60 0 -73 -82l-49 -279h-170l95 543h-46z" />
    <glyph glyph-name="Itilde" unicode="&#x128;" horiz-adv-x="230" 
d="M-17 0l129 730h174l-128 -730h-175zM44 764q11 69 47.5 110t87.5 41q38 0 76 -23q30 -22 41 -22q21 0 25 42h95q-11 -71 -46 -111.5t-88 -40.5q-39 0 -78 26q-28 18 -40 18q-22 0 -26 -40h-94z" />
    <glyph glyph-name="itilde" unicode="&#x129;" horiz-adv-x="246" 
d="M112 0q-76 0 -98.5 36.5t-8.5 114.5l61 349h169l-56 -320q-3 -17 2.5 -24t22.5 -7h17l-26 -149h-83zM-10 535q11 69 47.5 110t87.5 41q38 0 76 -23q30 -22 41 -22q21 0 25 42h95q-11 -71 -46 -111.5t-88 -40.5q-39 0 -78 26q-28 18 -40 18q-22 0 -26 -40h-94z" />
    <glyph glyph-name="Imacron" unicode="&#x12a;" horiz-adv-x="230" 
d="M-17 0l129 730h174l-128 -730h-175zM74 764l21 113h264l-21 -113h-264z" />
    <glyph glyph-name="imacron" unicode="&#x12b;" horiz-adv-x="246" 
d="M112 0q-76 0 -98.5 36.5t-8.5 114.5l61 349h169l-56 -320q-3 -17 2.5 -24t22.5 -7h17l-26 -149h-83zM24 535l21 113h264l-21 -113h-264z" />
    <glyph glyph-name="Ibreve" unicode="&#x12c;" horiz-adv-x="230" 
d="M-17 0l129 730h174l-128 -730h-175zM206 760q-82 0 -118 49t-21 129h107q-14 -74 44 -76q56 2 70 76h107q-15 -82 -63 -130t-126 -48z" />
    <glyph glyph-name="ibreve" unicode="&#x12d;" horiz-adv-x="246" 
d="M112 0q-76 0 -98.5 36.5t-8.5 114.5l61 349h169l-56 -320q-3 -17 2.5 -24t22.5 -7h17l-26 -149h-83zM158 531q-82 0 -118 49t-21 129h107q-14 -74 44 -76q56 2 70 76h107q-15 -82 -63 -130t-126 -48z" />
    <glyph glyph-name="Iogonek" unicode="&#x12e;" horiz-adv-x="230" 
d="M7 -238q-76 0 -114.5 36.5t-28.5 89.5q6 36 33 66t90 64l125 712h174l-128 -730h-3q-103 -58 -132.5 -78t-32.5 -36q-1 -11 6.5 -17t20.5 -6q23 0 52 29l95 -63q-72 -67 -157 -67z" />
    <glyph glyph-name="iogonek" unicode="&#x12f;" horiz-adv-x="246" 
d="M48 -238q-76 0 -114.5 36.5t-28.5 89.5q6 37 33.5 67.5t91.5 64.5q-43 31 -25 131l61 349h169l-56 -320q-3 -17 2.5 -24t22.5 -7h17l-26 -149h1q-103 -58 -132.5 -78t-32.5 -36q-1 -11 6.5 -17t20.5 -6q23 0 52 29l95 -63q-72 -67 -157 -67zM72 535l31 174h169l-31 -174
h-169z" />
    <glyph glyph-name="Idotaccent" unicode="&#x130;" horiz-adv-x="230" 
d="M-17 0l129 730h174l-128 -730h-175zM118 764l31 175h172l-31 -175h-172z" />
    <glyph glyph-name="dotlessi" unicode="&#x131;" horiz-adv-x="246" 
d="M112 0q-76 0 -98.5 36.5t-8.5 114.5l61 349h169l-56 -320q-3 -17 2.5 -24t22.5 -7h17l-26 -149h-83z" />
    <glyph glyph-name="IJ" unicode="&#x132;" horiz-adv-x="553" 
d="M190 0l29 162h61q35 0 49 14.5t21 51.5l90 502h174l-94 -523q-16 -87 -40 -129t-70 -60t-134 -18h-86zM-19 0l128 730h175l-128 -730h-175z" />
    <glyph glyph-name="ij" unicode="&#x133;" horiz-adv-x="423" 
d="M148 0h-169l88 500h169zM73 535l30 174h170l-31 -174h-169zM-56 -191l29 156h148q40 0 52 10t19 53l84 472h169l-85 -481q-13 -72 -25.5 -108.5t-39.5 -62t-65 -32.5t-107 -7h-179zM282 535l31 174h169l-31 -174h-169z" />
    <glyph glyph-name="Jcircumflex" unicode="&#x134;" horiz-adv-x="508" 
d="M229 -10q-94 0 -154.5 49t-82.5 139l172 51q12 -76 68 -76q28 0 46.5 19.5t24.5 52.5l90 505h175l-91 -513q-20 -109 -82.5 -168t-165.5 -59zM311 764l150 177h103l87 -177h-120l-33 76l-61 -76h-126z" />
    <glyph glyph-name="jcircumflex" unicode="&#x135;" horiz-adv-x="215" 
d="M-146 -231l28 156q58 0 72 11t24 65l89 499h170l-89 -500q-12 -74 -25 -115t-39.5 -69.5t-65 -37.5t-103.5 -9h-61zM-16 535l150 177h103l87 -177h-120l-33 76l-61 -76h-126z" />
    <glyph glyph-name="Kcommaaccent" unicode="&#x136;" horiz-adv-x="614" 
d="M386 0l-113 312l-77 -83l-40 -229h-175l128 730h175l-44 -252l234 252h218l-281 -300l161 -430h-186zM99 -255l82 223h164l-121 -223h-125z" />
    <glyph glyph-name="kcommaaccent" unicode="&#x137;" horiz-adv-x="533" 
d="M451 0q-92 0 -122.5 18.5t-64.5 98.5l-32 72l-63 -63l-22 -126h-169l129 730h168l-70 -400l167 170h206l-211 -214l48 -105q10 -21 19.5 -27.5t31.5 -6.5h36l-26 -147h-25zM70 -256l82 223h164l-121 -223h-125z" />
    <glyph glyph-name="kgreenlandic" unicode="&#x138;" horiz-adv-x="533" 
d="M451 0q-92 0 -122.5 18.5t-64.5 98.5l-32 72l-63 -63l-22 -126h-169l89 500h168l-30 -169l167 169h206l-211 -214l48 -105q10 -21 19.5 -27.5t31.5 -6.5h36l-26 -147h-25z" />
    <glyph glyph-name="Lacute" unicode="&#x139;" horiz-adv-x="447" 
d="M-19 0l128 730h175l-99 -563h228l-29 -167h-403zM136 764l143 177h170l-187 -177h-126z" />
    <glyph glyph-name="lacute" unicode="&#x13a;" horiz-adv-x="250" 
d="M117 0q-82 0 -103 39.5t-7 119.5l100 571h169l-97 -550q-6 -31 25 -31h17l-26 -149h-78zM134 764l143 177h170l-187 -177h-126z" />
    <glyph glyph-name="Lcommaaccent" unicode="&#x13b;" horiz-adv-x="447" 
d="M-19 0l128 730h175l-99 -563h228l-29 -167h-403zM20 -255l82 223h164l-121 -223h-125z" />
    <glyph glyph-name="lcommaaccent" unicode="&#x13c;" horiz-adv-x="250" 
d="M117 0q-82 0 -103 39.5t-7 119.5l100 571h169l-97 -550q-6 -31 25 -31h17l-26 -149h-78zM-68 -255l82 223h164l-121 -223h-125z" />
    <glyph glyph-name="Lcaron" unicode="&#x13d;" horiz-adv-x="447" 
d="M-19 0l128 730h175l-99 -563h228l-29 -167h-403zM304 552l67 178h145l-107 -178h-105z" />
    <glyph glyph-name="lcaron" unicode="&#x13e;" horiz-adv-x="258" 
d="M117 0q-82 0 -103 39.5t-7 119.5l100 571h169l-97 -550q-6 -31 25 -31h17l-26 -149h-78zM267 552l67 178h145l-107 -178h-105z" />
    <glyph glyph-name="Ldot" unicode="&#x13f;" horiz-adv-x="447" 
d="M-19 0l128 730h175l-99 -563h228l-29 -167h-403zM284 329l29 161h158l-29 -161h-158z" />
    <glyph glyph-name="ldot" unicode="&#x140;" horiz-adv-x="408" 
d="M117 0q-82 0 -103 39.5t-7 119.5l100 571h169l-97 -550q-6 -31 25 -31h17l-26 -149h-78zM215 190l31 175h172l-31 -175h-172z" />
    <glyph glyph-name="Lslash" unicode="&#x141;" horiz-adv-x="508" 
d="M26 293l21 119l71 20l52 298h175l-43 -246l167 47l-21 -119l-167 -47l-35 -198h228l-29 -167h-403l55 313z" />
    <glyph glyph-name="lslash" unicode="&#x142;" horiz-adv-x="306" 
d="M9 288l23 128l65 17l52 297h169l-44 -250l70 19l-22 -128l-71 -19l-30 -172q-6 -31 25 -31h17l-26 -149h-78q-82 0 -103 39.5t-7 119.5l25 146z" />
    <glyph glyph-name="Nacute" unicode="&#x143;" horiz-adv-x="655" 
d="M-20 0l130 730h180l175 -414l74 414h175l-128 -730h-169l-185 435l-77 -435h-175zM360 764l143 177h170l-187 -177h-126z" />
    <glyph glyph-name="nacute" unicode="&#x144;" horiz-adv-x="569" 
d="M5 0l61 315q5 21 -1 29t-25 8h-18l27 148h71q84 0 105 -57q58 67 145 67q91 0 134 -60.5t23 -159.5l-23 -112q-7 -32 25 -32h18l-26 -146h-77q-85 0 -109.5 38t-9.5 114l28 132q7 38 -7 57.5t-42 19.5q-58 0 -73 -82l-55 -279h-171zM268 539l143 177h170l-187 -177h-126z
" />
    <glyph glyph-name="Ncommaaccent" unicode="&#x145;" horiz-adv-x="655" 
d="M-20 0l130 730h180l175 -414l74 414h175l-128 -730h-169l-185 435l-77 -435h-175zM132 -256l82 223h164l-121 -223h-125z" />
    <glyph glyph-name="ncommaaccent" unicode="&#x146;" horiz-adv-x="570" 
d="M5 0l61 315q5 21 -1 29t-25 8h-18l27 148h71q84 0 105 -57q58 67 145 67q91 0 134 -60.5t23 -159.5l-23 -112q-7 -32 25 -32h18l-26 -146h-77q-85 0 -109.5 38t-9.5 114l28 132q7 38 -7 57.5t-42 19.5q-58 0 -73 -82l-55 -279h-171zM112 -255l82 223h164l-121 -223h-125z
" />
    <glyph glyph-name="Ncaron" unicode="&#x147;" horiz-adv-x="655" 
d="M-20 0l130 730h180l175 -414l74 414h175l-128 -730h-169l-185 435l-77 -435h-175zM374 764l-87 177h121l34 -76l60 76h125l-150 -177h-103z" />
    <glyph glyph-name="ncaron" unicode="&#x148;" horiz-adv-x="570" 
d="M5 0l61 315q5 21 -1 29t-25 8h-18l27 148h71q84 0 105 -57q58 67 145 67q91 0 134 -60.5t23 -159.5l-23 -112q-7 -32 25 -32h18l-26 -146h-77q-85 0 -109.5 38t-9.5 114l28 132q7 38 -7 57.5t-42 19.5q-58 0 -73 -82l-55 -279h-171zM295 539l-87 177h121l34 -76l60 76
h125l-150 -177h-103z" />
    <glyph glyph-name="Eng" unicode="&#x14a;" horiz-adv-x="655" 
d="M267 -246l29 161h31q39 0 57 16t24 54l6 23l-182 427l-77 -435h-175l130 730h180l175 -414l74 414h175l-132 -753q-23 -126 -76 -174.5t-172 -48.5h-67z" />
    <glyph glyph-name="eng" unicode="&#x14b;" horiz-adv-x="542" 
d="M175 -231l28 156q58 0 71.5 11t24.5 65q14 55 54 283q7 37 -6.5 57t-40.5 20q-60 0 -75 -82l-55 -279h-171l61 315q5 21 -1 29t-25 8h-18l27 148h71q84 0 105 -57q58 67 148 67q89 0 131 -60.5t23 -159.5l-55 -290q-14 -74 -27.5 -114.5t-40 -69t-65 -38t-103.5 -9.5h-61
z" />
    <glyph glyph-name="Omacron" unicode="&#x14c;" horiz-adv-x="783" 
d="M331 768l21 113h264l-21 -113h-264zM381 -10q-169 0 -268.5 122.5t-71.5 287.5q25 146 139 243t264 97q110 0 195 -56.5t123.5 -151t20.5 -202.5q-25 -147 -136.5 -243.5t-265.5 -96.5zM395 162q82 0 140 52t72 132q16 90 -35.5 156.5t-143.5 66.5q-81 0 -139 -52.5
t-73 -132.5q-15 -89 36 -155.5t143 -66.5z" />
    <glyph glyph-name="omacron" unicode="&#x14d;" horiz-adv-x="558" 
d="M182 539l21 113h264l-21 -113h-264zM258 -10q-128 0 -194.5 88t-45.5 204q19 97 96 162.5t185 65.5q128 0 194.5 -87.5t45.5 -203.5q-19 -99 -94 -164t-187 -65zM269 146q39 0 69 25.5t37 67.5q8 46 -17 81t-70 36q-38 0 -68.5 -26t-37.5 -68q-8 -46 17 -81t70 -35z" />
    <glyph glyph-name="Obreve" unicode="&#x14e;" horiz-adv-x="783" 
d="M381 -10q-169 0 -268.5 122.5t-71.5 287.5q25 146 139 243t264 97q110 0 195 -56.5t123.5 -151t20.5 -202.5q-25 -147 -136.5 -243.5t-265.5 -96.5zM395 162q82 0 140 52t72 132q16 90 -35.5 156.5t-143.5 66.5q-81 0 -139 -52.5t-73 -132.5q-15 -89 36 -155.5t143 -66.5
zM462 764q-82 0 -118 49t-21 129h107q-14 -74 44 -76q56 2 70 76h107q-15 -82 -63 -130t-126 -48z" />
    <glyph glyph-name="obreve" unicode="&#x14f;" horiz-adv-x="558" 
d="M258 -10q-128 0 -194.5 88t-45.5 204q19 97 96 162.5t185 65.5q128 0 194.5 -87.5t45.5 -203.5q-19 -99 -94 -164t-187 -65zM269 146q39 0 69 25.5t37 67.5q8 46 -17 81t-70 36q-38 0 -68.5 -26t-37.5 -68q-8 -46 17 -81t70 -35zM320 535q-82 0 -118 49t-21 129h107
q-14 -74 44 -76q56 2 70 76h107q-15 -82 -63 -130t-126 -48z" />
    <glyph glyph-name="Ohungarumlaut" unicode="&#x150;" horiz-adv-x="783" 
d="M315 768l117 177h145l-161 -177h-101zM492 768l117 177h145l-161 -177h-101zM381 -10q-169 0 -268.5 122.5t-71.5 287.5q25 146 139 243t264 97q110 0 195 -56.5t123.5 -151t20.5 -202.5q-25 -147 -136.5 -243.5t-265.5 -96.5zM395 162q82 0 140 52t72 132
q16 90 -35.5 156.5t-143.5 66.5q-81 0 -139 -52.5t-73 -132.5q-15 -89 36 -155.5t143 -66.5z" />
    <glyph glyph-name="ohungarumlaut" unicode="&#x151;" horiz-adv-x="558" 
d="M172 538l117 177h145l-161 -177h-101zM349 538l117 177h145l-161 -177h-101zM258 -10q-128 0 -194.5 88t-45.5 204q19 97 96 162.5t185 65.5q128 0 194.5 -87.5t45.5 -203.5q-19 -99 -94 -164t-187 -65zM269 146q39 0 69 25.5t37 67.5q8 46 -17 81t-70 36
q-38 0 -68.5 -26t-37.5 -68q-8 -46 17 -81t70 -35z" />
    <glyph glyph-name="OE" unicode="&#x152;" horiz-adv-x="1041" 
d="M547 0l8 49q-82 -59 -181 -59q-108 0 -191.5 56.5t-121.5 151t-20 202.5q25 146 139 243t264 97q140 0 218 -83l13 73h430l-28 -162h-257l-21 -122h256l-28 -162h-257l-22 -122h257l-28 -162h-430zM396 162q75 0 131.5 46.5t75.5 118.5l3 14l2 9q0 4 2 10
q11 86 -40.5 148.5t-139.5 62.5q-82 0 -140.5 -53.5t-73.5 -133.5q-15 -89 36.5 -155.5t143.5 -66.5z" />
    <glyph glyph-name="oe" unicode="&#x153;" horiz-adv-x="876" 
d="M258 -10q-130 0 -196 90.5t-42 208.5q19 95 96 158t183 63q108 0 174 -68q84 68 190 68q100 0 160.5 -52.5t45.5 -132.5q-12 -72 -73.5 -113t-158.5 -40q-57 -1 -114 17q22 -61 102 -61q53 0 86 40l129 -79q-84 -99 -226 -99q-108 0 -174 61q-74 -61 -182 -61zM270 146
q37 0 66.5 25.5t37.5 64.5q11 48 -14.5 84t-73.5 36q-37 0 -66 -25.5t-37 -64.5q-10 -47 15.5 -83.5t71.5 -36.5zM664 374q-71 0 -116 -53q49 -13 83 -12q76 -1 82 34q2 13 -11.5 22t-37.5 9z" />
    <glyph glyph-name="Racute" unicode="&#x154;" horiz-adv-x="584" 
d="M520 0h-17q-139 0 -212 91t-79 233l-56 -324h-175l128 730h231q133 0 204 -78t51 -195q-12 -70 -59.5 -123t-134.5 -74q31 -97 134 -97h14zM311 574h-55l-32 -182h55q121 0 139 91q8 42 -19.5 66.5t-87.5 24.5zM255 764l143 177h170l-187 -177h-126z" />
    <glyph glyph-name="racute" unicode="&#x155;" horiz-adv-x="414" 
d="M5 0l61 315q5 20 -1 29t-25 9h-17l26 147h69q92 0 102 -84q46 84 136 84h73l-31 -174h-64q-55 0 -78 -19.5t-35 -82.5l-45 -224h-171zM182 535l143 177h170l-187 -177h-126z" />
    <glyph glyph-name="Rcommaaccent" unicode="&#x156;" horiz-adv-x="584" 
d="M520 0h-17q-139 0 -212 91t-79 233l-56 -324h-175l128 730h231q133 0 204 -78t51 -195q-12 -70 -59.5 -123t-134.5 -74q31 -97 134 -97h14zM97 -255l82 223h164l-121 -223h-125zM311 574h-55l-32 -182h55q121 0 139 91q8 42 -19.5 66.5t-87.5 24.5z" />
    <glyph glyph-name="rcommaaccent" unicode="&#x157;" horiz-adv-x="414" 
d="M5 0l61 315q5 20 -1 29t-25 9h-17l26 147h69q92 0 102 -84q46 84 136 84h73l-31 -174h-64q-55 0 -78 -19.5t-35 -82.5l-45 -224h-171zM-86 -255l82 223h164l-121 -223h-125z" />
    <glyph glyph-name="Rcaron" unicode="&#x158;" horiz-adv-x="584" 
d="M520 0h-17q-139 0 -212 91t-79 233l-56 -324h-175l128 730h231q133 0 204 -78t51 -195q-12 -70 -59.5 -123t-134.5 -74q31 -97 134 -97h14zM282 764l-87 177h121l34 -76l60 76h125l-150 -177h-103zM311 574h-55l-32 -182h55q121 0 139 91q8 42 -19.5 66.5t-87.5 24.5z
" />
    <glyph glyph-name="rcaron" unicode="&#x159;" horiz-adv-x="414" 
d="M5 0l61 315q5 20 -1 29t-25 9h-17l26 147h69q92 0 102 -84q46 84 136 84h73l-31 -174h-64q-55 0 -78 -19.5t-35 -82.5l-45 -224h-171zM197 534l-87 177h121l34 -76l60 76h125l-150 -177h-103z" />
    <glyph glyph-name="Sacute" unicode="&#x15a;" horiz-adv-x="542" 
d="M283 768l143 177h170l-187 -177h-126zM248 -11q-185 0 -275 147l155 105q20 -43 54 -66t75 -23q38 0 60 17t27 45q4 7 1 14.5t-3 12.5t-6.5 11.5t-9.5 10t-12 9t-14.5 9t-16.5 8.5t-17.5 8t-19 8.5t-19.5 8.5q-41 18 -66 33.5t-53 43t-37.5 66.5t-0.5 90q16 91 88 142.5
t178 51.5q83 0 148 -35.5t102 -87.5l-146 -100q-16 31 -46.5 51t-67.5 20q-35 0 -56 -15.5t-26 -42.5q-6 -36 50 -65q16 -9 57 -26q5 -3 8 -4q18 -8 30 -14t28.5 -15.5t28 -17.5t25 -20.5t22 -24.5t16 -28.5t11 -34t3.5 -40t-4 -46.5q-15 -87 -87 -146.5t-184 -59.5z" />
    <glyph glyph-name="sacute" unicode="&#x15b;" horiz-adv-x="471" 
d="M197 539l143 177h170l-187 -177h-126zM216 -10q-150 0 -239 93l138 99q42 -58 111 -58q40 0 45 30q1 6 -3 11.5t-16 10t-21.5 7.5t-29.5 8q-2 1 -3.5 1t-3.5 0.5l-4 1t-4 1.5q-36 10 -60 20t-51 29t-37.5 49.5t-3.5 70.5q11 64 72.5 105t147.5 41q71 0 131 -23t95 -61
l-124 -92q-15 21 -43.5 36t-58.5 15q-41 0 -44 -27q-1 -3 0 -6t3.5 -5.5t5.5 -4.5t8.5 -4.5t10 -4t12.5 -4t13.5 -4t15 -4t15.5 -4.5q35 -10 59 -20.5t50.5 -30t37 -50.5t3.5 -72q-12 -68 -70.5 -111t-157.5 -43z" />
    <glyph glyph-name="Scircumflex" unicode="&#x15c;" horiz-adv-x="542" 
d="M248 -11q-185 0 -275 147l155 105q20 -43 54 -66t75 -23q38 0 60 17t27 45q4 7 1 14.5t-3 12.5t-6.5 11.5t-9.5 10t-12 9t-14.5 9t-16.5 8.5t-17.5 8t-19 8.5t-19.5 8.5q-41 18 -66 33.5t-53 43t-37.5 66.5t-0.5 90q16 91 88 142.5t178 51.5q83 0 148 -35.5t102 -87.5
l-146 -100q-16 31 -46.5 51t-67.5 20q-35 0 -56 -15.5t-26 -42.5q-6 -36 50 -65q16 -9 57 -26q5 -3 8 -4q18 -8 30 -14t28.5 -15.5t28 -17.5t25 -20.5t22 -24.5t16 -28.5t11 -34t3.5 -40t-4 -46.5q-15 -87 -87 -146.5t-184 -59.5zM183 768l150 177h103l87 -177h-120l-33 76
l-61 -76h-126z" />
    <glyph glyph-name="scircumflex" unicode="&#x15d;" horiz-adv-x="471" 
d="M216 -10q-150 0 -239 93l138 99q42 -58 111 -58q40 0 45 30q1 6 -3 11.5t-16 10t-21.5 7.5t-29.5 8q-2 1 -3.5 1t-3.5 0.5l-4 1t-4 1.5q-36 10 -60 20t-51 29t-37.5 49.5t-3.5 70.5q11 64 72.5 105t147.5 41q71 0 131 -23t95 -61l-124 -92q-15 21 -43.5 36t-58.5 15
q-41 0 -44 -27q-1 -3 0 -6t3.5 -5.5t5.5 -4.5t8.5 -4.5t10 -4t12.5 -4t13.5 -4t15 -4t15.5 -4.5q35 -10 59 -20.5t50.5 -30t37 -50.5t3.5 -72q-12 -68 -70.5 -111t-157.5 -43zM101 539l150 177h103l87 -177h-120l-33 76l-61 -76h-126z" />
    <glyph glyph-name="Scedilla" unicode="&#x15e;" horiz-adv-x="542" 
d="M197 -272q-114 0 -174 65l105 62q30 -32 71 -32q47 0 51 25q3 12 -8 18.5t-35 6.5h-65l23 125q-126 28 -192 138l155 105q20 -43 54 -66t75 -23q38 0 60 17t27 45q4 7 1 14.5t-3 12.5t-6.5 11.5t-9.5 10t-12 9t-14.5 9t-16.5 8.5t-17.5 8t-19 8.5t-19.5 8.5
q-41 18 -66 33.5t-53 43t-37.5 66.5t-0.5 90q16 91 88 142.5t178 51.5q83 0 148 -35.5t102 -87.5l-146 -100q-16 31 -46.5 51t-67.5 20q-35 0 -56 -15.5t-26 -42.5q-6 -36 50 -65q16 -9 57 -26q5 -3 8 -4q18 -8 30 -14t28.5 -15.5t28 -17.5t25 -20.5t22 -24.5t16 -28.5
t11 -34t3.5 -40t-4 -46.5q-14 -81 -78 -139t-164 -66l-7 -37q52 -7 77 -38.5t17 -81.5q-10 -50 -55 -77.5t-112 -27.5z" />
    <glyph glyph-name="scedilla" unicode="&#x15f;" horiz-adv-x="471" 
d="M170 -267q-114 0 -174 65l105 62q30 -32 71 -32q47 0 51 25q3 12 -8 18.5t-35 6.5h-65l22 119q-95 18 -160 86l138 99q42 -58 111 -58q40 0 45 30q1 6 -3 11.5t-16 10t-21.5 7.5t-29.5 8q-2 1 -3.5 1t-3.5 0.5l-4 1t-4 1.5q-36 10 -60 20t-51 29t-37.5 49.5t-3.5 70.5
q11 64 72.5 105t147.5 41q71 0 131 -23t95 -61l-124 -92q-15 21 -43.5 36t-58.5 15q-41 0 -44 -27q-1 -3 0 -6t3.5 -5.5t5.5 -4.5t8.5 -4.5t10 -4t12.5 -4t13.5 -4t15 -4t15.5 -4.5q35 -10 59 -20.5t50.5 -30t37 -50.5t3.5 -72q-11 -62 -61 -104t-134 -48l-6 -34
q52 -7 77 -38.5t17 -81.5q-10 -50 -55 -77.5t-112 -27.5z" />
    <glyph glyph-name="Scaron" unicode="&#x160;" horiz-adv-x="542" 
d="M248 -11q-185 0 -275 147l155 105q20 -43 54 -66t75 -23q38 0 60 17t27 45q4 7 1 14.5t-3 12.5t-6.5 11.5t-9.5 10t-12 9t-14.5 9t-16.5 8.5t-17.5 8t-19 8.5t-19.5 8.5q-41 18 -66 33.5t-53 43t-37.5 66.5t-0.5 90q16 91 88 142.5t178 51.5q83 0 148 -35.5t102 -87.5
l-146 -100q-16 31 -46.5 51t-67.5 20q-35 0 -56 -15.5t-26 -42.5q-6 -36 50 -65q16 -9 57 -26q5 -3 8 -4q18 -8 30 -14t28.5 -15.5t28 -17.5t25 -20.5t22 -24.5t16 -28.5t11 -34t3.5 -40t-4 -46.5q-15 -87 -87 -146.5t-184 -59.5zM305 768l-87 177h121l34 -76l60 76h125
l-150 -177h-103z" />
    <glyph glyph-name="scaron" unicode="&#x161;" horiz-adv-x="471" 
d="M216 -10q-150 0 -239 93l138 99q42 -58 111 -58q40 0 45 30q1 6 -3 11.5t-16 10t-21.5 7.5t-29.5 8q-2 1 -3.5 1t-3.5 0.5l-4 1t-4 1.5q-36 10 -60 20t-51 29t-37.5 49.5t-3.5 70.5q11 64 72.5 105t147.5 41q71 0 131 -23t95 -61l-124 -92q-15 21 -43.5 36t-58.5 15
q-41 0 -44 -27q-1 -3 0 -6t3.5 -5.5t5.5 -4.5t8.5 -4.5t10 -4t12.5 -4t13.5 -4t15 -4t15.5 -4.5q35 -10 59 -20.5t50.5 -30t37 -50.5t3.5 -72q-12 -68 -70.5 -111t-157.5 -43zM224 539l-87 177h121l34 -76l60 76h125l-150 -177h-103z" />
    <glyph glyph-name="Tcommaaccent" unicode="&#x162;" horiz-adv-x="518" 
d="M306 0h-175l99 568h-155l28 162h483l-29 -162h-152zM62 -255l82 223h164l-121 -223h-125z" />
    <glyph glyph-name="tcommaaccent" unicode="&#x163;" horiz-adv-x="356" 
d="M19 350l27 150h74l21 116l185 92q-18 -100 -37 -208h81l-26 -150h-82q-5 -28 -10 -58.5t-7.5 -45t-2.5 -15.5q-9 -49 1.5 -61t66.5 -12l-28 -158h-27q-129 0 -167 50t-15 180l21 120h-75zM27 -255l82 223h164l-121 -223h-125z" />
    <glyph glyph-name="Tcaron" unicode="&#x164;" horiz-adv-x="518" 
d="M306 0h-175l99 568h-155l28 162h483l-29 -162h-152zM309 764l-87 177h121l34 -76l60 76h125l-150 -177h-103z" />
    <glyph glyph-name="tcaron" unicode="&#x165;" horiz-adv-x="356" 
d="M19 350l27 150h74l21 116l185 92q-18 -100 -37 -208h81l-26 -150h-82q-5 -28 -10 -58.5t-7.5 -45t-2.5 -15.5q-9 -49 1.5 -61t66.5 -12l-28 -158h-27q-129 0 -167 50t-15 180l21 120h-75zM325 533l67 178h145l-107 -178h-105z" />
    <glyph glyph-name="Tbar" unicode="&#x166;" horiz-adv-x="518" 
d="M306 0h-175l44 251h-101l28 163h101l27 154h-155l28 162h483l-29 -162h-152l-27 -154h97l-29 -163h-96z" />
    <glyph glyph-name="tbar" unicode="&#x167;" horiz-adv-x="356" 
d="M24 374l22 126h75l20 116l185 92q-17 -100 -36 -208h80l-22 -126h-80q-2 -13 -9 -53h79l-22 -126h-79q-5 -34 8.5 -44.5t61.5 -10.5l-25 -140h-27q-125 0 -163.5 40.5t-22.5 154.5h-78l22 126h77l9 53h-75z" />
    <glyph glyph-name="Utilde" unicode="&#x168;" horiz-adv-x="569" 
d="M247 -10q-114 0 -179.5 64.5t-44.5 185.5l87 490h174l-87 -496q-7 -39 13.5 -63t59.5 -24q36 0 63 23.5t34 63.5l87 496h175l-86 -485q-44 -255 -296 -255zM201 764q11 69 47.5 110t87.5 41q38 0 76 -23q30 -22 41 -22q21 0 25 42h95q-11 -71 -46 -111.5t-88 -40.5
q-39 0 -78 26q-28 18 -40 18q-22 0 -26 -40h-94z" />
    <glyph glyph-name="utilde" unicode="&#x169;" horiz-adv-x="566" 
d="M200 -10q-90 -1 -134.5 55t-24.5 157l23 113q5 21 -0.5 29.5t-23.5 8.5h-17l26 147h83q77 0 101.5 -38t8.5 -118l-26 -128q-7 -36 5.5 -56t41.5 -20q26 0 45 22.5t27 60.5l55 277h171l-61 -315q-5 -21 0.5 -29.5t24.5 -8.5h20l-26 -147h-73q-82 0 -105 56
q-54 -66 -141 -66zM145 535q11 69 47.5 110t87.5 41q38 0 76 -23q30 -22 41 -22q21 0 25 42h95q-11 -71 -46 -111.5t-88 -40.5q-39 0 -78 26q-28 18 -40 18q-22 0 -26 -40h-94z" />
    <glyph glyph-name="Umacron" unicode="&#x16a;" horiz-adv-x="569" 
d="M247 -10q-114 0 -179.5 64.5t-44.5 185.5l87 490h174l-87 -496q-7 -39 13.5 -63t59.5 -24q36 0 63 23.5t34 63.5l87 496h175l-86 -485q-44 -255 -296 -255zM240 764l21 113h264l-21 -113h-264z" />
    <glyph glyph-name="umacron" unicode="&#x16b;" horiz-adv-x="566" 
d="M200 -10q-90 -1 -134.5 55t-24.5 157l23 113q5 21 -0.5 29.5t-23.5 8.5h-17l26 147h83q77 0 101.5 -38t8.5 -118l-26 -128q-7 -36 5.5 -56t41.5 -20q26 0 45 22.5t27 60.5l55 277h171l-61 -315q-5 -21 0.5 -29.5t24.5 -8.5h20l-26 -147h-73q-82 0 -105 56
q-54 -66 -141 -66zM175 535l21 113h264l-21 -113h-264z" />
    <glyph glyph-name="Ubreve" unicode="&#x16c;" horiz-adv-x="569" 
d="M247 -10q-114 0 -179.5 64.5t-44.5 185.5l87 490h174l-87 -496q-7 -39 13.5 -63t59.5 -24q36 0 63 23.5t34 63.5l87 496h175l-86 -485q-44 -255 -296 -255zM380 759q-82 0 -118 49t-21 129h107q-14 -74 44 -76q56 2 70 76h107q-15 -82 -63 -130t-126 -48z" />
    <glyph glyph-name="ubreve" unicode="&#x16d;" horiz-adv-x="566" 
d="M200 -10q-90 -1 -134.5 55t-24.5 157l23 113q5 21 -0.5 29.5t-23.5 8.5h-17l26 147h83q77 0 101.5 -38t8.5 -118l-26 -128q-7 -36 5.5 -56t41.5 -20q26 0 45 22.5t27 60.5l55 277h171l-61 -315q-5 -21 0.5 -29.5t24.5 -8.5h20l-26 -147h-73q-82 0 -105 56
q-54 -66 -141 -66zM307 531q-82 0 -118 49t-21 129h107q-14 -74 44 -76q56 2 70 76h107q-15 -82 -63 -130t-126 -48z" />
    <glyph glyph-name="Uring" unicode="&#x16e;" horiz-adv-x="569" 
d="M376 747q-60 0 -92 44t-20 100q11 46 48.5 76.5t86.5 30.5q61 0 93.5 -43.5t19.5 -100.5q-11 -47 -47 -77t-89 -30zM384 839q30 0 37 29q3 16 -5.5 28t-23.5 12q-29 0 -36 -29q-4 -16 4 -28t24 -12zM247 -10q-114 0 -179.5 64.5t-44.5 185.5l87 490h174l-87 -496
q-7 -39 13.5 -63t59.5 -24q36 0 63 23.5t34 63.5l87 496h175l-86 -485q-44 -255 -296 -255z" />
    <glyph glyph-name="uring" unicode="&#x16f;" horiz-adv-x="566" 
d="M200 -10q-90 -1 -134.5 55t-24.5 157l23 113q5 21 -0.5 29.5t-23.5 8.5h-17l26 147h83q77 0 101.5 -38t8.5 -118l-26 -128q-7 -36 5.5 -56t41.5 -20q26 0 45 22.5t27 60.5l55 277h171l-61 -315q-5 -21 0.5 -29.5t24.5 -8.5h20l-26 -147h-73q-82 0 -105 56
q-54 -66 -141 -66zM304 530q-60 0 -92 44t-20 100q11 46 48.5 76.5t86.5 30.5q61 0 93.5 -43.5t19.5 -100.5q-11 -47 -47 -77t-89 -30zM312 622q30 0 37 29q3 16 -5.5 28t-23.5 12q-29 0 -36 -29q-4 -16 4 -28t24 -12z" />
    <glyph glyph-name="Uhungarumlaut" unicode="&#x170;" horiz-adv-x="569" 
d="M247 -10q-114 0 -179.5 64.5t-44.5 185.5l87 490h174l-87 -496q-7 -39 13.5 -63t59.5 -24q36 0 63 23.5t34 63.5l87 496h175l-86 -485q-44 -255 -296 -255zM226 764l117 177h145l-161 -177h-101zM403 764l117 177h145l-161 -177h-101z" />
    <glyph glyph-name="uhungarumlaut" unicode="&#x171;" horiz-adv-x="566" 
d="M200 -10q-90 -1 -134.5 55t-24.5 157l23 113q5 21 -0.5 29.5t-23.5 8.5h-17l26 147h83q77 0 101.5 -38t8.5 -118l-26 -128q-7 -36 5.5 -56t41.5 -20q26 0 45 22.5t27 60.5l55 277h171l-61 -315q-5 -21 0.5 -29.5t24.5 -8.5h20l-26 -147h-73q-82 0 -105 56
q-54 -66 -141 -66zM337 535l117 177h145l-161 -177h-101zM160 535l117 177h145l-161 -177h-101z" />
    <glyph glyph-name="Uogonek" unicode="&#x172;" horiz-adv-x="569" 
d="M215 -228q-76 0 -114.5 36.5t-28.5 89.5q9 58 81 105q-74 24 -110 84t-20 153l87 490h174l-87 -496q-7 -39 13.5 -63t59.5 -24q36 0 63 23.5t34 63.5l87 496h175l-86 -485q-36 -200 -194 -243q-91 -51 -119.5 -70.5t-31.5 -35.5q-1 -11 6.5 -17t20.5 -6q23 0 52 29
l95 -63q-72 -67 -157 -67z" />
    <glyph glyph-name="uogonek" unicode="&#x173;" horiz-adv-x="566" 
d="M200 -10q-90 -1 -134.5 55t-24.5 157l23 113q5 21 -0.5 29.5t-23.5 8.5h-17l26 147h83q77 0 101.5 -38t8.5 -118l-26 -128q-7 -36 5.5 -56t41.5 -20q26 0 45 22.5t27 60.5l55 277h171l-61 -315q-5 -21 0.5 -29.5t24.5 -8.5h20l-26 -147h-1q-103 -58 -132.5 -78t-32.5 -36
q-1 -11 6.5 -17t20.5 -6q23 0 52 29l95 -63q-72 -67 -157 -67q-76 0 -114.5 36.5t-28.5 89.5q6 38 35.5 69.5t99.5 67.5q-14 12 -21 31q-54 -66 -141 -66z" />
    <glyph glyph-name="Wcircumflex" unicode="&#x174;" horiz-adv-x="1010" 
d="M765 0h-176l-46 448l-203 -448h-177l-76 730h179l37 -436l200 436h172l46 -437l190 437h184zM418 764l150 177h103l87 -177h-120l-33 76l-61 -76h-126z" />
    <glyph glyph-name="wcircumflex" unicode="&#x175;" horiz-adv-x="833" 
d="M206 -10q-94 0 -138.5 57.5t-25.5 154.5l22 113q4 21 -1.5 29.5t-22.5 8.5h-17l26 147h84q77 0 100.5 -38t7.5 -118l-25 -129q-15 -76 42 -76q27 0 46 23.5t27 62.5l52 275h171l-53 -292q-12 -65 37 -65q78 0 108 168q19 102 -5 189h175q20 -103 -1 -216
q-23 -129 -95 -211.5t-184 -82.5q-128 0 -162 82q-63 -82 -168 -82zM299 535l150 177h103l87 -177h-120l-33 76l-61 -76h-126z" />
    <glyph glyph-name="Ycircumflex" unicode="&#x176;" horiz-adv-x="628" 
d="M178 0l62 354l-156 376h179l89 -223l165 223h198l-303 -388l-60 -342h-174zM227 764l150 177h103l87 -177h-120l-33 76l-61 -76h-126z" />
    <glyph glyph-name="ycircumflex" unicode="&#x177;" horiz-adv-x="533" 
d="M204 -240q-86 0 -147 40.5t-87 108.5l172 57q13 -56 71 -56q36 0 57.5 25.5t27.5 66.5v2q1 1 1.5 5t1.5 8t2 11t2 12q-44 -50 -116 -50q-84 0 -125 56.5t-22 155.5l21 113q5 21 -0.5 29.5t-23.5 8.5h-16l26 147h83q77 0 100.5 -38.5t7.5 -117.5l-25 -129q-15 -76 45 -76
q29 0 49 21.5t27 60.5l50 279h168l-87 -493q-21 -118 -82.5 -182.5t-180.5 -64.5zM120 535l150 177h103l87 -177h-120l-33 76l-61 -76h-126z" />
    <glyph glyph-name="Ydieresis" unicode="&#x178;" horiz-adv-x="628" 
d="M178 0l62 354l-156 376h179l89 -223l165 223h198l-303 -388l-60 -342h-174zM213 764l30 168h166l-29 -168h-167zM415 764l29 168h167l-30 -168h-166z" />
    <glyph glyph-name="Zacute" unicode="&#x179;" horiz-adv-x="529" 
d="M463 0h-484l27 156l346 414h-264l27 160h474l-27 -155l-346 -415h275zM280 764l143 177h170l-187 -177h-126z" />
    <glyph glyph-name="zacute" unicode="&#x17a;" horiz-adv-x="496" 
d="M-24 0l27 149l257 203h-218l26 148h447l-27 -149l-261 -203h230l-26 -148h-455zM228 535l143 177h170l-187 -177h-126z" />
    <glyph glyph-name="Zdotaccent" unicode="&#x17b;" horiz-adv-x="529" 
d="M463 0h-484l27 156l346 414h-264l27 160h474l-27 -155l-346 -415h275zM268 764l31 175h172l-31 -175h-172z" />
    <glyph glyph-name="zdotaccent" unicode="&#x17c;" horiz-adv-x="496" 
d="M-24 0l27 149l257 203h-218l26 148h447l-27 -149l-261 -203h230l-26 -148h-455zM213 534l31 175h172l-31 -175h-172z" />
    <glyph glyph-name="Zcaron" unicode="&#x17d;" horiz-adv-x="529" 
d="M463 0h-484l27 156l346 414h-264l27 160h474l-27 -155l-346 -415h275zM307 764l-87 177h121l34 -76l60 76h125l-150 -177h-103z" />
    <glyph glyph-name="zcaron" unicode="&#x17e;" horiz-adv-x="496" 
d="M-24 0l27 149l257 203h-218l26 148h447l-27 -149l-261 -203h230l-26 -148h-455zM253 535l-87 177h121l34 -76l60 76h125l-150 -177h-103z" />
    <glyph glyph-name="florin" unicode="&#x192;" 
d="M49 288l28 155h191l28 63q60 140 124 182t204 42h19l-28 -161q-68 0 -99 -14.5t-53 -64.5l-20 -47h150l-27 -155h-190l-32 -76q-37 -87 -73.5 -130t-93.5 -62.5t-154 -19.5h-25l29 161q66 0 99.5 15.5t56.5 68.5l18 43h-152z" />
    <glyph glyph-name="Aringacute" unicode="&#x1fa;" horiz-adv-x="680" 
d="M-43 0l369 691q-26 42 -14 92q11 46 48.5 76.5t86.5 30.5q61 0 93.5 -43.5t19.5 -100.5q-9 -35 -32 -63l105 -683h-176l-15 107h-246l-56 -107h-183zM393 921l143 177h170l-187 -177h-126zM391 481l-112 -215h142zM432 731q30 0 37 29q3 16 -5.5 28t-23.5 12
q-29 0 -36 -29q-4 -16 4 -28t24 -12z" />
    <glyph glyph-name="aringacute" unicode="&#x1fb;" horiz-adv-x="595" 
d="M233 -10q-115 -1 -175.5 84t-39.5 203q18 104 88.5 168.5t164.5 64.5t137 -71l11 61h170l-60 -317q-4 -20 2 -28.5t27 -8.5h15l-26 -146h-73q-76 0 -101 53q-50 -62 -140 -63zM334 531q-60 0 -92 44t-20 100q11 46 48.5 76.5t86.5 30.5q61 0 93.5 -43.5t19.5 -100.5
q-11 -47 -47 -77t-89 -30zM272 147q42 0 70.5 27t35.5 68q8 46 -17.5 79.5t-68.5 33.5t-73 -27t-36 -67q-8 -45 18 -79.5t71 -34.5zM301 808l143 177h170l-187 -177h-126zM342 623q30 0 37 29q3 16 -5.5 28t-23.5 12q-29 0 -36 -29q-4 -16 4 -28t24 -12z" />
    <glyph glyph-name="AEacute" unicode="&#x1fc;" horiz-adv-x="886" 
d="M-38 0l457 730h531l-29 -162h-315l-5 -120h300l-30 -162h-277l-6 -124h262l-28 -162h-407l4 98h-201l-61 -98h-195zM535 764l143 177h170l-187 -177h-126zM316 255h110l8 189z" />
    <glyph glyph-name="aeacute" unicode="&#x1fd;" horiz-adv-x="809" 
d="M171 -10q-92 0 -139 48t-38 113q8 61 47.5 94.5t112.5 50.5q19 5 48 10.5t47 9t37 8.5t28.5 11.5t10.5 14.5q2 13 -11.5 21.5t-41.5 8.5q-80 0 -89 -62h-151q13 94 75.5 143t172.5 49q101 0 153 -48q74 48 163 48q99 0 160 -53.5t46 -132.5q-12 -68 -71 -108t-154 -39
q-61 -1 -121 18q10 -31 36.5 -49t64.5 -18q55 0 90 43l127 -81q-82 -100 -226 -100q-125 0 -197 80q-66 -80 -180 -80zM380 527l143 177h170l-187 -177h-126zM595 373q-70 0 -113 -54q46 -14 82 -13q75 -1 82 35q2 14 -12 23t-39 9zM184 121q31 0 62 21.5t51 54.5
q-1 4 -1 12q-23 -11 -88 -27q-56 -13 -58 -38q0 -23 34 -23z" />
    <glyph glyph-name="Oslashacute" unicode="&#x1fe;" horiz-adv-x="783" 
d="M381 -10q-107 0 -187 51l-40 -41h-188l129 134q-80 116 -54 266q25 146 139 243t264 97q102 0 186 -51l39 41h189l-130 -134q82 -117 56 -266q-25 -145 -138 -242.5t-265 -97.5zM217 384q-11 -61 11 -112l275 285q-34 14 -72 14q-82 0 -140.5 -53.5t-73.5 -133.5z
M397 162q80 0 138.5 53t73.5 133q10 58 -11 112l-275 -285q32 -13 74 -13zM391 768l143 177h170l-187 -177h-126z" />
    <glyph glyph-name="oslashacute" unicode="&#x1ff;" horiz-adv-x="558" 
d="M-46 0l96 96q-52 83 -32 186q19 97 96 162.5t185 65.5q74 0 132 -34l24 24h147l-96 -96q52 -81 33 -185q-19 -99 -94 -164t-187 -65q-77 0 -133 34l-24 -24h-147zM230 543l143 177h170l-187 -177h-126zM268 137q42 0 74.5 27.5t40.5 73.5q3 22 0 43l-142 -141
q12 -3 27 -3zM174 263q-5 -23 0 -43l141 141q-16 4 -26 4q-41 0 -74 -28t-41 -74z" />
    <glyph glyph-name="Scommaaccent" unicode="&#x218;" horiz-adv-x="542" 
d="M64 -259l82 223h164l-121 -223h-125zM248 -11q-185 0 -275 147l155 105q20 -43 54 -66t75 -23q38 0 60 17t27 45q4 7 1 14.5t-3 12.5t-6.5 11.5t-9.5 10t-12 9t-14.5 9t-16.5 8.5t-17.5 8t-19 8.5t-19.5 8.5q-41 18 -66 33.5t-53 43t-37.5 66.5t-0.5 90q16 91 88 142.5
t178 51.5q83 0 148 -35.5t102 -87.5l-146 -100q-16 31 -46.5 51t-67.5 20q-35 0 -56 -15.5t-26 -42.5q-6 -36 50 -65q16 -9 57 -26q5 -3 8 -4q18 -8 30 -14t28.5 -15.5t28 -17.5t25 -20.5t22 -24.5t16 -28.5t11 -34t3.5 -40t-4 -46.5q-15 -87 -87 -146.5t-184 -59.5z" />
    <glyph glyph-name="scommaaccent" unicode="&#x219;" horiz-adv-x="471" 
d="M40 -259l82 223h164l-121 -223h-125zM216 -10q-150 0 -239 93l138 99q42 -58 111 -58q40 0 45 30q1 6 -3 11.5t-16 10t-21.5 7.5t-29.5 8q-2 1 -3.5 1t-3.5 0.5l-4 1t-4 1.5q-36 10 -60 20t-51 29t-37.5 49.5t-3.5 70.5q11 64 72.5 105t147.5 41q71 0 131 -23t95 -61
l-124 -92q-15 21 -43.5 36t-58.5 15q-41 0 -44 -27q-1 -3 0 -6t3.5 -5.5t5.5 -4.5t8.5 -4.5t10 -4t12.5 -4t13.5 -4t15 -4t15.5 -4.5q35 -10 59 -20.5t50.5 -30t37 -50.5t3.5 -72q-12 -68 -70.5 -111t-157.5 -43z" />
    <glyph glyph-name="dotlessj" unicode="&#x237;" horiz-adv-x="215" 
d="M-146 -231l28 156q58 0 72 11t24 65l89 499h170l-89 -500q-12 -74 -25 -115t-39.5 -69.5t-65 -37.5t-103.5 -9h-61z" />
    <glyph glyph-name="circumflex" unicode="&#x2c6;" horiz-adv-x="464" 
d="M115 543l150 177h103l87 -177h-120l-33 76l-61 -76h-126z" />
    <glyph glyph-name="caron" unicode="&#x2c7;" horiz-adv-x="464" 
d="M231 543l-87 177h121l34 -76l60 76h125l-150 -177h-103z" />
    <glyph glyph-name="breve" unicode="&#x2d8;" horiz-adv-x="464" 
d="M288 537q-82 0 -118 49t-21 129h107q-14 -74 44 -76q56 2 70 76h107q-15 -82 -63 -130t-126 -48z" />
    <glyph glyph-name="dotaccent" unicode="&#x2d9;" horiz-adv-x="464" 
d="M191 534l31 175h172l-31 -175h-172z" />
    <glyph glyph-name="ring" unicode="&#x2da;" horiz-adv-x="464" 
d="M292 539q-60 0 -92 44t-20 100q11 46 48.5 76.5t86.5 30.5q61 0 93.5 -43.5t19.5 -100.5q-11 -47 -47 -77t-89 -30zM300 631q30 0 37 29q3 16 -5.5 28t-23.5 12q-29 0 -36 -29q-4 -16 4 -28t24 -12z" />
    <glyph glyph-name="ogonek" unicode="&#x2db;" horiz-adv-x="464" 
d="M156 -238q-76 0 -114.5 36.5t-28.5 89.5q7 43 46.5 79.5t138.5 82.5l106 -50q-103 -58 -132.5 -78t-32.5 -36q-1 -11 6.5 -17t20.5 -6q23 0 52 29l95 -63q-72 -67 -157 -67z" />
    <glyph glyph-name="tilde" unicode="&#x2dc;" horiz-adv-x="464" 
d="M107 540q11 69 47.5 110t87.5 41q38 0 76 -23q30 -22 41 -22q21 0 25 42h95q-11 -71 -46 -111.5t-88 -40.5q-39 0 -78 26q-28 18 -40 18q-22 0 -26 -40h-94z" />
    <glyph glyph-name="hungarumlaut" unicode="&#x2dd;" horiz-adv-x="464" 
d="M81 543l117 177h145l-161 -177h-101zM258 543l117 177h145l-161 -177h-101z" />
    <glyph glyph-name="pi" unicode="&#x3c0;" horiz-adv-x="755" 
d="M79 568l28 162h709l-29 -162h-113l-62 -349q-5 -30 3.5 -41t36.5 -11h46l-30 -167h-66q-107 0 -146.5 48.5t-18.5 162.5l63 357h-133l-100 -568h-174l100 568h-114z" />
    <glyph glyph-name="pi" unicode="&#x3d6;" horiz-adv-x="755" 
d="M79 568l28 162h709l-29 -162h-113l-62 -349q-5 -30 3.5 -41t36.5 -11h46l-30 -167h-66q-107 0 -146.5 48.5t-18.5 162.5l63 357h-133l-100 -568h-174l100 568h-114z" />
    <glyph glyph-name="uni0E3F" unicode="&#xe3f;" horiz-adv-x="562" 
d="M-11 64l106 596h210l12 70h90l-13 -70q105 -2 151.5 -50t31.5 -132q-12 -73 -71 -114q54 -43 38 -127q-29 -170 -255 -173l-11 -64h-89l11 64h-211zM196 293l-15 -84h44l15 84h-44zM235 515l-14 -79h44l14 79h-44zM372 250q2 20 -7.5 30t-35.5 12l-14 -83q49 4 57 41z
M411 474q3 18 -8 29t-35 12l-14 -79q50 1 57 38z" />
    <glyph glyph-name="Wgrave" unicode="&#x1e80;" horiz-adv-x="1010" 
d="M765 0h-176l-46 448l-203 -448h-177l-76 730h179l37 -436l200 436h172l46 -437l190 437h184zM530 764l-123 177h162l80 -177h-119z" />
    <glyph glyph-name="wgrave" unicode="&#x1e81;" horiz-adv-x="833" 
d="M206 -10q-94 0 -138.5 57.5t-25.5 154.5l22 113q4 21 -1.5 29.5t-22.5 8.5h-17l26 147h84q77 0 100.5 -38t7.5 -118l-25 -129q-15 -76 42 -76q27 0 46 23.5t27 62.5l52 275h171l-53 -292q-12 -65 37 -65q78 0 108 168q19 102 -5 189h175q20 -103 -1 -216
q-23 -129 -95 -211.5t-184 -82.5q-128 0 -162 82q-63 -82 -168 -82zM410 535l-123 177h162l80 -177h-119z" />
    <glyph glyph-name="Wacute" unicode="&#x1e82;" horiz-adv-x="1010" 
d="M765 0h-176l-46 448l-203 -448h-177l-76 730h179l37 -436l200 436h172l46 -437l190 437h184zM527 764l143 177h170l-187 -177h-126z" />
    <glyph glyph-name="wacute" unicode="&#x1e83;" horiz-adv-x="833" 
d="M206 -10q-94 0 -138.5 57.5t-25.5 154.5l22 113q4 21 -1.5 29.5t-22.5 8.5h-17l26 147h84q77 0 100.5 -38t7.5 -118l-25 -129q-15 -76 42 -76q27 0 46 23.5t27 62.5l52 275h171l-53 -292q-12 -65 37 -65q78 0 108 168q19 102 -5 189h175q20 -103 -1 -216
q-23 -129 -95 -211.5t-184 -82.5q-128 0 -162 82q-63 -82 -168 -82zM406 535l143 177h170l-187 -177h-126z" />
    <glyph glyph-name="Wdieresis" unicode="&#x1e84;" horiz-adv-x="1010" 
d="M765 0h-176l-46 448l-203 -448h-177l-76 730h179l37 -436l200 436h172l46 -437l190 437h184zM410 764l30 168h166l-29 -168h-167zM612 764l29 168h167l-30 -168h-166z" />
    <glyph glyph-name="wdieresis" unicode="&#x1e85;" horiz-adv-x="833" 
d="M206 -10q-94 0 -138.5 57.5t-25.5 154.5l22 113q4 21 -1.5 29.5t-22.5 8.5h-17l26 147h84q77 0 100.5 -38t7.5 -118l-25 -129q-15 -76 42 -76q27 0 46 23.5t27 62.5l52 275h171l-53 -292q-12 -65 37 -65q78 0 108 168q19 102 -5 189h175q20 -103 -1 -216
q-23 -129 -95 -211.5t-184 -82.5q-128 0 -162 82q-63 -82 -168 -82zM290 535l30 168h166l-29 -168h-167zM492 535l29 168h167l-30 -168h-166z" />
    <glyph glyph-name="Ygrave" unicode="&#x1ef2;" horiz-adv-x="628" 
d="M178 0l62 354l-156 376h179l89 -223l165 223h198l-303 -388l-60 -342h-174zM338 763l-123 177h162l80 -177h-119z" />
    <glyph glyph-name="ygrave" unicode="&#x1ef3;" horiz-adv-x="533" 
d="M204 -240q-86 0 -147 40.5t-87 108.5l172 57q13 -56 71 -56q36 0 57.5 25.5t27.5 66.5v2q1 1 1.5 5t1.5 8t2 11t2 12q-44 -50 -116 -50q-84 0 -125 56.5t-22 155.5l21 113q5 21 -0.5 29.5t-23.5 8.5h-16l26 147h83q77 0 100.5 -38.5t7.5 -117.5l-25 -129q-15 -76 45 -76
q29 0 49 21.5t27 60.5l50 279h168l-87 -493q-21 -118 -82.5 -182.5t-180.5 -64.5zM227 534l-123 177h162l80 -177h-119z" />
    <glyph glyph-name="figuredash" unicode="&#x2012;" horiz-adv-x="591" 
d="M11 183l25 143h545l-25 -143h-545z" />
    <glyph glyph-name="endash" unicode="&#x2013;" horiz-adv-x="440" 
d="M11 183l25 143h395l-25 -143h-395z" />
    <glyph glyph-name="emdash" unicode="&#x2014;" horiz-adv-x="641" 
d="M11 183l25 143h595l-25 -143h-595z" />
    <glyph glyph-name="uni2015" unicode="&#x2015;" horiz-adv-x="986" 
d="M11 183l25 143h940l-25 -143h-940z" />
    <glyph glyph-name="doublebar" unicode="&#x2016;" horiz-adv-x="433" 
d="M-62 -231l168 961h175l-169 -961h-174zM153 -231l168 961h174l-169 -961h-173z" />
    <glyph glyph-name="quoteleft" unicode="&#x2018;" horiz-adv-x="230" 
d="M253 730l9 -223h-119l-49 223h159z" />
    <glyph glyph-name="quoteright" unicode="&#x2019;" horiz-adv-x="230" 
d="M182 507h-125l82 223h164z" />
    <glyph glyph-name="quotesinglbase" unicode="&#x201a;" horiz-adv-x="230" 
d="M-49 -82l82 224h164l-121 -224h-125z" />
    <glyph glyph-name="reversequoteleft" unicode="&#x201b;" horiz-adv-x="230" 
d="M182 507h-125l82 223h164z" />
    <glyph glyph-name="quotedblleft" unicode="&#x201c;" horiz-adv-x="416" 
d="M442 730l8 -223h-118l-49 223h159zM255 730l9 -223h-119l-49 223h159z" />
    <glyph glyph-name="quotedblright" unicode="&#x201d;" horiz-adv-x="421" 
d="M182 507h-125l82 223h164zM374 507h-125l82 223h163z" />
    <glyph glyph-name="quotedblbase" unicode="&#x201e;" horiz-adv-x="421" 
d="M-49 -82l82 224h164l-121 -224h-125zM143 -82l82 224h163l-120 -224h-125z" />
    <glyph glyph-name="reversequotedblleft" unicode="&#x201f;" horiz-adv-x="421" 
d="M182 507h-125l82 223h164zM374 507h-125l82 223h163z" />
    <glyph glyph-name="dagger" unicode="&#x2020;" horiz-adv-x="500" 
d="M39 339l28 161h139l41 230h175l-41 -230h141l-29 -161h-140l-59 -339h-175l59 339h-139z" />
    <glyph glyph-name="daggerdbl" unicode="&#x2021;" horiz-adv-x="506" 
d="M54 424l28 161h139l26 145h175l-26 -145h141l-29 -161h-140l-19 -108h140l-28 -161h-140l-27 -155h-175l27 155h-140l28 161h140l19 108h-139z" />
    <glyph glyph-name="bullet" unicode="&#x2022;" horiz-adv-x="439" 
d="M218 120q-55 0 -94 39t-39 94t39 94t94 39t94 -39t39 -94t-39 -94t-94 -39z" />
    <glyph glyph-name="ellipsis" unicode="&#x2026;" horiz-adv-x="633" 
d="M-22 0l31 175h173l-31 -175h-173zM186 0l31 175h172l-30 -175h-173zM394 0l30 175h173l-31 -175h-172z" />
    <glyph glyph-name="perthousand" unicode="&#x2030;" horiz-adv-x="1269" 
d="M-27 0l755 730h215l-755 -730h-215zM240 371q-87 0 -134 62t-33 143q12 68 68.5 116t132.5 48q86 0 134 -61t34 -141q-12 -71 -67 -119t-135 -48zM265 523q13 5 20.5 18t4.5 25q-2 14 -14 21t-26 3q-14 -5 -21 -18t-4 -25q2 -14 13.5 -21.5t26.5 -2.5zM641 -11
q-87 0 -134 62t-33 143q12 68 68.5 116t132.5 48q86 0 134 -61t34 -141q-12 -71 -67.5 -119t-134.5 -48zM666 141q13 5 20.5 18t4.5 25q-2 14 -14 21t-26 3q-14 -5 -21 -18t-4 -25q2 -14 13.5 -21.5t26.5 -2.5zM1036 -11q-87 0 -134 62t-33 143q12 69 69 116.5t133 47.5
q86 0 134 -61t34 -141q-12 -71 -68 -119t-135 -48zM1061 141q14 5 21.5 18t3.5 25q-2 14 -13.5 21t-26.5 3q-14 -5 -20.5 -18t-3.5 -25q2 -14 13.5 -21.5t25.5 -2.5z" />
    <glyph glyph-name="minute" unicode="&#x2032;" horiz-adv-x="230" 
d="M182 507h-125l82 223h164z" />
    <glyph glyph-name="second" unicode="&#x2033;" horiz-adv-x="421" 
d="M182 507h-125l82 223h164zM374 507h-125l82 223h163z" />
    <glyph glyph-name="tripleprime" unicode="&#x2034;" horiz-adv-x="494" 
d="M109 500q-7 22 -14 73t-3 73l15 84h129l-15 -84q-3 -23 -28 -75t-39 -71h-45zM269 500q-7 21 -14 72.5t-4 73.5l15 84h130l-15 -84q-4 -23 -29 -75.5t-38 -70.5h-45zM428 500q-7 22 -14 73t-3 73l15 84h129l-15 -84q-3 -23 -28 -75t-39 -71h-45z" />
    <glyph glyph-name="guilsinglleft" unicode="&#x2039;" horiz-adv-x="239" 
d="M179 83l-156 119l18 103l197 119l-21 -127l-84 -47l67 -46z" />
    <glyph glyph-name="guilsinglright" unicode="&#x203a;" horiz-adv-x="239" 
d="M61 423l156 -119l-18 -103l-197 -119l22 127l83 46l-67 47z" />
    <glyph glyph-name="fraction" unicode="&#x2044;" horiz-adv-x="718" 
d="M-45 0l647 730h203l-646 -730h-204z" />
    <glyph glyph-name="uni2070" unicode="&#x2070;" horiz-adv-x="457" 
d="M257 302q-100 0 -158 71t-41 166q14 84 81 140.5t154 56.5q98 0 156.5 -71t41.5 -166q-14 -85 -79 -141t-155 -56zM266 427q37 0 63 24t32 59q7 41 -15.5 71t-64.5 30q-37 0 -62.5 -23.5t-32.5 -59.5q-7 -41 16 -71t64 -30z" />
    <glyph glyph-name="uni2074" unicode="&#x2074;" horiz-adv-x="357" 
d="M191 308l13 78h-171l19 109l194 235h137l-43 -241h48l-19 -103h-47l-13 -78h-118zM181 489h41l11 64z" />
    <glyph glyph-name="uni2075" unicode="&#x2075;" horiz-adv-x="318" 
d="M176 302q-103 0 -150 81l123 65q7 -27 34 -27q14 0 24 8t12 21q2 17 -6.5 28t-24.5 11q-21 0 -33 -20l-103 40l68 221h244l-20 -118h-148l-10 -32q18 8 39 8q56 0 91.5 -42.5t23.5 -108.5q-11 -68 -56 -101.5t-108 -33.5z" />
    <glyph glyph-name="uni2076" unicode="&#x2076;" horiz-adv-x="361" 
d="M200 302q-83 0 -124.5 51.5t-29.5 118.5q10 50 40 86l147 172h147l-104 -119q53 -5 87 -51t24 -104q-13 -69 -60 -111.5t-127 -42.5zM211 420q40 0 48 43q3 19 -8 33t-32 14q-17 0 -30 -10.5t-16 -28.5q-4 -21 6.5 -36t31.5 -15z" />
    <glyph glyph-name="uni2077" unicode="&#x2077;" horiz-adv-x="292" 
d="M46 308l166 306h-138l20 116h271l-18 -106l-163 -316h-138z" />
    <glyph glyph-name="uni2078" unicode="&#x2078;" horiz-adv-x="331" 
d="M188 302q-73 0 -115 39.5t-29 110.5q10 59 56 92q-21 36 -14 79q10 54 50 83.5t101 29.5q65 0 102 -40.5t26 -102.5q-9 -45 -37 -72q32 -38 23 -93q-10 -60 -53.5 -93t-109.5 -33zM196 409q36 0 41 30q3 17 -6.5 27t-28.5 10q-17 0 -29 -8.5t-14 -22.5q-2 -15 7.5 -25.5
t29.5 -10.5zM225 578q31 0 36 24q2 13 -6.5 22t-24.5 9q-31 0 -36 -24q-3 -13 6 -22t25 -9z" />
    <glyph glyph-name="uni2079" unicode="&#x2079;" horiz-adv-x="367" 
d="M73 305l105 118q-50 6 -86.5 53t-25.5 106q11 63 61 107.5t128 44.5q82 0 124.5 -53t31.5 -119q-10 -60 -53 -109l-127 -148h-158zM236 527q39 0 47 40q4 19 -7 34t-31 15q-40 0 -48 -40q-3 -19 8 -34t31 -15z" />
    <glyph glyph-name="uni207A" unicode="&#x207a;" horiz-adv-x="236" 
d="M48 468l18 101h56l10 56h102l-10 -56h56l-17 -101h-57l-10 -56h-101l9 56h-56z" />
    <glyph glyph-name="uni207B" unicode="&#x207b;" horiz-adv-x="236" 
d="M48 468l18 101h214l-17 -101h-215z" />
    <glyph glyph-name="uni207C" unicode="&#x207c;" horiz-adv-x="238" 
d="M58 520l17 101h215l-18 -101h-214zM36 403l19 101h215l-18 -101h-216z" />
    <glyph glyph-name="uni207D" unicode="&#x207d;" horiz-adv-x="263" 
d="M267 296l-93 -86q-151 139 -115 336q30 178 212 292l76 -93q-67 -37 -108 -93.5t-52 -121.5q-26 -136 80 -234z" />
    <glyph glyph-name="uni207E" unicode="&#x207e;" horiz-adv-x="263" 
d="M93 752l93 85q150 -137 115 -335q-30 -177 -212 -293l-76 94q67 37 108 93.5t52 121.5q26 136 -80 234z" />
    <glyph glyph-name="uni2080" unicode="&#x2080;" horiz-adv-x="457" 
d="M203 -6q-100 0 -158 71t-41 166q14 84 81 140.5t154 56.5q98 0 156.5 -71t41.5 -166q-14 -85 -79 -141t-155 -56zM212 119q37 0 63 24t32 59q7 41 -15.5 71t-64.5 30q-37 0 -62.5 -23.5t-32.5 -59.5q-7 -41 16 -71t64 -30z" />
    <glyph glyph-name="uni2081" unicode="&#x2081;" horiz-adv-x="279" 
d="M-35 0l20 117h69l21 125q-20 -17 -56 -17h-7l23 128h3q77 0 86 69h109l-54 -305h66l-20 -117h-260z" />
    <glyph glyph-name="uni2082" unicode="&#x2082;" horiz-adv-x="327" 
d="M-35 0l16 92q6 37 31 68t49.5 46.5t60.5 33.5q5 2 13 6.5t12.5 6.5t11.5 5.5t10.5 5.5t8.5 5.5t8 6t6 5.5t4.5 6t1.5 6q3 12 -5.5 19.5t-21.5 7.5q-17 0 -33 -17.5t-21 -40.5l-108 53q20 52 66.5 82.5t102.5 30.5q72 0 113 -44t30 -108q-4 -22 -16 -41t-31 -33.5
t-35.5 -24t-40.5 -20.5q-59 -32 -68 -40h162l-20 -117h-307z" />
    <glyph glyph-name="uni2083" unicode="&#x2083;" horiz-adv-x="326" 
d="M124 -6q-102 0 -158 60l105 84q19 -27 54 -27q32 0 37 24q2 11 -6.5 18t-28.5 7h-54l19 109h57q30 0 36 24q3 11 -6 18.5t-25 7.5q-36 0 -58 -28l-75 91q61 46 146 46q71 0 112.5 -41t31.5 -102q-9 -51 -49 -76q41 -36 29 -100q-9 -54 -55 -84.5t-112 -30.5z" />
    <glyph glyph-name="uni2084" unicode="&#x2084;" horiz-adv-x="357" 
d="M137 0l13 78h-171l19 109l194 235h137l-43 -241h48l-19 -103h-47l-13 -78h-118zM127 181h41l11 64z" />
    <glyph glyph-name="uni2085" unicode="&#x2085;" horiz-adv-x="318" 
d="M122 -6q-103 0 -150 81l123 65q7 -27 34 -27q14 0 24 8t12 21q2 17 -6.5 28t-24.5 11q-21 0 -33 -20l-103 40l68 221h244l-20 -118h-148l-10 -32q18 8 39 8q56 0 91.5 -42.5t23.5 -108.5q-11 -68 -56 -101.5t-108 -33.5z" />
    <glyph glyph-name="uni2086" unicode="&#x2086;" horiz-adv-x="361" 
d="M146 -6q-83 0 -124.5 51.5t-29.5 118.5q10 50 40 86l147 172h147l-104 -119q53 -5 87 -51t24 -104q-13 -69 -60 -111.5t-127 -42.5zM157 112q40 0 48 43q3 19 -8 33t-32 14q-17 0 -30 -10.5t-16 -28.5q-4 -21 6.5 -36t31.5 -15z" />
    <glyph glyph-name="uni2087" unicode="&#x2087;" horiz-adv-x="292" 
d="M-9 0l166 306h-138l20 116h271l-18 -106l-163 -316h-138z" />
    <glyph glyph-name="uni2088" unicode="&#x2088;" horiz-adv-x="331" 
d="M134 -6q-73 0 -115 39.5t-29 110.5q10 59 56 92q-21 36 -14 79q10 54 50 83.5t101 29.5q65 0 102 -40.5t26 -102.5q-9 -45 -37 -72q32 -38 23 -93q-10 -60 -53.5 -93t-109.5 -33zM142 101q36 0 41 30q3 17 -6.5 27t-28.5 10q-17 0 -29 -8.5t-14 -22.5q-2 -15 7.5 -25.5
t29.5 -10.5zM171 270q31 0 36 24q2 13 -6.5 22t-24.5 9q-31 0 -36 -24q-3 -13 6 -22t25 -9z" />
    <glyph glyph-name="uni2089" unicode="&#x2089;" horiz-adv-x="367" 
d="M19 -3l105 118q-50 6 -86.5 53t-25.5 106q11 63 61 107.5t128 44.5q82 0 124.5 -53t31.5 -119q-10 -60 -53 -109l-127 -148h-158zM182 219q39 0 47 40q4 19 -7 34t-31 15q-40 0 -48 -40q-3 -19 8 -34t31 -15z" />
    <glyph glyph-name="uni208A" unicode="&#x208a;" horiz-adv-x="236" 
d="M-6 160l18 101h56l10 56h102l-10 -56h56l-17 -101h-57l-10 -56h-101l9 56h-56z" />
    <glyph glyph-name="uni208B" unicode="&#x208b;" horiz-adv-x="236" 
d="M-6 160l18 101h214l-17 -101h-215z" />
    <glyph glyph-name="uni208C" unicode="&#x208c;" horiz-adv-x="238" 
d="M4 212l17 101h215l-18 -101h-214zM-18 95l19 101h215l-18 -101h-216z" />
    <glyph glyph-name="uni208D" unicode="&#x208d;" horiz-adv-x="263" 
d="M213 -12l-93 -86q-151 139 -115 336q30 178 212 292l76 -93q-67 -37 -108 -93.5t-52 -121.5q-26 -136 80 -234z" />
    <glyph glyph-name="uni208E" unicode="&#x208e;" horiz-adv-x="263" 
d="M39 444l93 85q150 -137 115 -335q-30 -177 -212 -293l-76 94q67 37 108 93.5t52 121.5q26 136 -80 234z" />
    <glyph glyph-name="uni20A1" unicode="&#x20a1;" horiz-adv-x="737" 
d="M35 -120l106 197q-64 58 -90.5 144.5t-9.5 183.5q25 144 138.5 239.5t266.5 95.5q25 0 49 -3l56 103h81l-65 -119q18 -7 31 -13l71 132h81l-90 -167q74 -54 111 -139l-170 -82q-13 33 -31 55l-186 -345h12q103 0 168 105l155 -97q-121 -179 -334 -180q-49 0 -89 9
l-64 -119h-80l75 140q-20 10 -29 15l-84 -155h-79zM217 385q-13 -71 19 -132l168 314q-71 -8 -122.5 -58t-64.5 -124zM285 196q18 -12 28 -17l201 373q-18 7 -32 11z" />
    <glyph glyph-name="uni20A2" unicode="&#x20a2;" horiz-adv-x="706" 
d="M385 -10q-180 -1 -276.5 122t-67.5 293q25 145 137.5 240t265.5 95q97 0 172.5 -42.5t122.5 -115.5l-152 -99q-49 92 -156 92q-83 0 -144 -53t-75 -137q-11 -64 10.5 -118.5t68.5 -84.5l17 84q9 39 -26 39h-18l26 147h60q87 0 100 -73q48 73 134 73h52l-28 -163h-45
q-56 0 -78 -20.5t-35 -81.5l-6 -27q59 17 109 81l130 -116q-121 -134 -298 -135z" />
    <glyph glyph-name="franc" unicode="&#x20a3;" horiz-adv-x="459" 
d="M-22 0l129 730h415l-28 -162h-241l-15 -86h241l-26 -145h-241l-7 -39h241l-26 -145h-240l-27 -153h-175z" />
    <glyph glyph-name="lira" unicode="&#x20a4;" horiz-adv-x="672" 
d="M82 401l18 99h81q2 30 5 46q15 88 83.5 141t162.5 53q167 0 219 -127l-162 -70q-5 21 -22 35.5t-43 14.5t-44.5 -15.5t-23.5 -41.5q-4 -24 -4 -36h199l-18 -99h-172q4 -19 5 -31h162l-17 -99h-136q0 -40 -5 -70q-4 -28 -17 -58q30 -15 54 -15q28 0 41.5 12.5t18.5 42.5
l11 61h177l-15 -86q-14 -78 -64 -123t-135 -45q-80 0 -160 52q-61 -53 -137 -53q-78 0 -114.5 38.5t-25.5 99.5q9 47 46.5 75.5t91.5 27.5q48 0 99 -23q1 28 -8 64h-173l17 99h126q-9 28 -9 31h-112zM148 91q25 0 46 17q-28 20 -47 20t-24 -15q-2 -22 25 -22z" />
    <glyph glyph-name="uni20A6" unicode="&#x20a6;" horiz-adv-x="788" 
d="M44 408l16 87h74l42 235h164l100 -235h123l42 235h175l-41 -235h74l-16 -87h-74l-11 -65h74l-16 -87h-73l-45 -256h-153l-109 256h-124l-45 -256h-175l45 256h-74l16 87h74l11 65h-74zM293 408l-12 -65h72l-28 65h-32zM477 408l27 -65h32l12 65h-71z" />
    <glyph glyph-name="peseta" unicode="&#x20a7;" horiz-adv-x="1345" 
d="M838 149h256q39 0 41 22q2 11 -14 17t-52 14q-9 2 -14 3q-27 6 -47 12t-44 18.5t-38 28.5t-21.5 42.5t-1.5 60.5q12 63 73 103t148 40q71 0 131 -23t95 -61l-124 -92q-15 21 -43.5 36t-58.5 15q-40 0 -45 -24q0 -3 1 -6t3.5 -5.5t6 -4.5t9 -4t10.5 -3.5t13 -3.5t14 -4
t15.5 -4t16.5 -4q34 -9 58 -19t50 -29t35.5 -49t2.5 -70q-28 -155 -226 -155h-304q-128 0 -166 50.5t-15 179.5l21 120h-68q-36 -75 -106.5 -116.5t-168.5 -41.5h-94l-34 -192h-175l129 730h243q93 0 164 -64t75 -166h61l20 116l186 92q-18 -100 -37 -208h83l-27 -150h-83
q-5 -31 -10.5 -63.5t-8.5 -48t-3 -16.5q-9 -49 1.5 -61t66.5 -12zM322 571h-68l-39 -218h75q51 0 83.5 30t41.5 78q8 48 -18.5 79t-74.5 31z" />
    <glyph glyph-name="uni20A8" unicode="&#x20a8;" horiz-adv-x="1028" 
d="M-22 0l129 730h230q133 0 204.5 -77.5t51.5 -195.5q-25 -136 -155 -185q92 -139 298 -139q80 0 86 29q1 4 -0.5 7t-6 5.5t-8.5 4.5t-12.5 4.5t-14.5 4t-17 4t-18 4.5q-36 9 -59.5 18.5t-51.5 28t-39 49t-4 72.5q11 64 72 105t148 41q71 0 131 -23t95 -61l-124 -92
q-15 21 -43.5 36t-58.5 15q-41 0 -44 -27q-1 -3 0 -6t3.5 -5.5t6 -4.5t9 -4.5t10 -4t12.5 -3.5l14 -3.5t15.5 -4t15.5 -4.5q17 -5 29 -9t28.5 -10.5t27.5 -13.5t24.5 -17.5t20 -22t13.5 -27.5t5.5 -34t-3.5 -41q-29 -161 -277 -162q-108 0 -197.5 30.5t-150.5 84t-100.5 119
t-56.5 142.5l-63 -357h-175zM309 574h-55l-32 -182h54q122 0 139 91q8 42 -19 66.5t-87 24.5z" />
    <glyph glyph-name="uni20A9" unicode="&#x20a9;" horiz-adv-x="1060" 
d="M46 408l15 87h73l-24 235h179l20 -235h119l108 235h157l25 -235h119l102 235h184l-106 -235h68l-16 -87h-92l-29 -65h110l-16 -87h-134l-115 -256h-172l-26 256h-119l-117 -256h-173l-27 256h-140l15 87h116l-7 65h-97zM727 408l7 -65h37l28 65h-72zM316 408l6 -65h36
l30 65h-72zM545 408l-30 -65h71l-6 65h-35z" />
    <glyph glyph-name="uni20AA" unicode="&#x20aa;" horiz-adv-x="828" 
d="M183 0l95 538q98 0 126.5 -29t15.5 -110l-42 -241h43q112 0 162 42.5t66 134.5l71 395h166l-71 -399q-15 -88 -42 -147t-75.5 -102t-124 -62.5t-184.5 -19.5h-206zM-22 0l129 730h202q369 0 312 -332l-12 -64q-13 -73 -53 -106.5t-133 -33.5l37 204q15 96 -21.5 135.5
t-151.5 39.5h-44l-100 -573h-165z" />
    <glyph glyph-name="Euro" unicode="&#x20ac;" 
d="M58 393l21 120h67l1 2q17 100 88.5 162.5t181.5 62.5q136 0 208 -97l-162 -94q-19 27 -54 27q-66 0 -88 -63h208l-42 -120h-188l-10 -54h181l-41 -121h-156q4 -29 24 -45.5t54 -16.5q39 0 63 29l144 -107q-80 -88 -216 -88q-120 0 -181 63.5t-61 164.5h-72l21 121h67
l9 54h-67z" />
    <glyph glyph-name="uni20AE" unicode="&#x20ae;" horiz-adv-x="528" 
d="M479 440l-3 -13h1l-14 -83l-100 -38l-53 -306h-175l41 234l-104 -40l2 15l14 82l105 40l41 237h-155l28 162h483l-29 -162h-152l-29 -166z" />
    <glyph glyph-name="uni20B1" unicode="&#x20b1;" horiz-adv-x="741" 
d="M58 452l15 84h72l34 194h246q101 0 170 -53.5t87 -140.5h91l-15 -84h-71q-1 -4 -2 -12.5t-1 -12.5h70l-15 -85h-79q-38 -89 -120.5 -141t-203.5 -52h-83l-26 -149h-176l60 342h-72l15 85h72l4 25h-72zM511 441q0 3 2 11h-207l-4 -25h206q1 4 3 14zM408 571h-81l-6 -35
h173q-27 35 -86 35zM366 308q56 0 95 34h-174l-6 -34h85z" />
    <glyph glyph-name="published" unicode="&#x2117;" horiz-adv-x="783" 
d="M370 -68q-169 0 -268.5 123t-71.5 288q25 146 139 243t264 97q111 0 196 -57t123.5 -151t20.5 -202q-25 -146 -138 -243.5t-265 -97.5zM383 70q94 0 163 62.5t85 155.5q18 104 -41.5 182t-166.5 78q-96 0 -164.5 -62t-85.5 -156q-21 -112 48 -191l62 348h161
q76 0 119 -45.5t33 -108.5q-10 -59 -56.5 -93.5t-115.5 -34.5h-58l-12 -72h-127q60 -63 156 -63zM425 377h-28l-11 -63h29q45 0 49 32q3 16 -7.5 23.5t-31.5 7.5z" />
    <glyph glyph-name="servicemark" unicode="&#x2120;" horiz-adv-x="622" 
d="M303 440l51 290h115l38 -66l65 66h111l-50 -290h-114l21 121l-60 -55l-41 55l-22 -121h-114zM174 434q-42 0 -75.5 16.5t-49.5 43.5l85 58q14 -29 35 -29q12 0 16 11q0 2 -0.5 3.5t-2.5 3l-4 3t-5.5 3.5t-6 3t-7.5 3.5t-8 3.5q-21 10 -34.5 19t-24 30.5t-5.5 49.5
q7 38 41.5 59.5t81.5 21.5q40 0 71 -15t45 -37l-84 -55q-12 26 -35 26q-10 0 -13 -9q-1 -5 6 -9.5t26 -12.5q1 -1 2 -1.5t2 -0.5q16 -7 26.5 -13.5t23.5 -18.5t17.5 -29.5t0.5 -39.5q-6 -38 -39.5 -63t-84.5 -25z" />
    <glyph glyph-name="trademark" unicode="&#x2122;" horiz-adv-x="634" 
d="M315 440l51 290h115l38 -66l65 66h111l-50 -290h-114l21 121l-60 -55l-41 55l-22 -121h-114zM114 440l31 180h-62l19 110h239l-19 -110h-60l-31 -180h-117z" />
    <glyph glyph-name="uni2153" unicode="&#x2153;" horiz-adv-x="915" 
d="M29 0l647 730h203l-646 -730h-204zM706 -6q-102 0 -158 60l105 84q19 -27 54 -27q32 0 37 24q2 11 -6.5 18t-28.5 7h-54l19 109h57q30 0 36 24q3 11 -6 18.5t-25 7.5q-36 0 -58 -28l-75 91q61 46 146 46q71 0 112.5 -41t31.5 -102q-9 -51 -49 -76q41 -36 29 -100
q-9 -54 -55 -84.5t-112 -30.5zM19 308l20 117h69l21 125q-20 -17 -56 -17h-7l23 128h3q77 0 86 69h109l-54 -305h66l-20 -117h-260z" />
    <glyph glyph-name="uni2154" unicode="&#x2154;" horiz-adv-x="966" 
d="M78 0l647 730h203l-646 -730h-204zM19 308l16 92q6 37 31 68t49.5 46.5t60.5 33.5q5 2 13 6.5t12.5 6.5t11.5 5.5t10.5 5.5t8.5 5.5t8 6t6 5.5t4.5 6t1.5 6q3 12 -5.5 19.5t-21.5 7.5q-17 0 -33 -17.5t-21 -40.5l-108 53q20 52 66.5 82.5t102.5 30.5q72 0 113 -44
t30 -108q-4 -22 -16 -41t-31 -33.5t-35.5 -24t-40.5 -20.5q-59 -32 -68 -40h162l-20 -117h-307zM757 -6q-102 0 -158 60l105 84q19 -27 54 -27q32 0 37 24q2 11 -6.5 18t-28.5 7h-54l19 109h57q30 0 36 24q3 11 -6 18.5t-25 7.5q-36 0 -58 -28l-75 91q61 46 146 46
q71 0 112.5 -41t31.5 -102q-9 -51 -49 -76q41 -36 29 -100q-9 -54 -55 -84.5t-112 -30.5z" />
    <glyph glyph-name="uni2155" unicode="&#x2155;" horiz-adv-x="888" 
d="M33 0l647 730h203l-646 -730h-204zM698 -6q-103 0 -150 81l123 65q7 -27 34 -27q14 0 24 8t12 21q2 17 -6.5 28t-24.5 11q-21 0 -33 -20l-103 40l68 221h244l-20 -118h-148l-10 -32q18 8 39 8q56 0 91.5 -42.5t23.5 -108.5q-11 -68 -56 -101.5t-108 -33.5zM19 308l20 117
h69l21 125q-20 -17 -56 -17h-7l23 128h3q77 0 86 69h109l-54 -305h66l-20 -117h-260z" />
    <glyph glyph-name="uni2156" unicode="&#x2156;" horiz-adv-x="939" 
d="M83 0l647 730h203l-646 -730h-204zM19 308l16 92q6 37 31 68t49.5 46.5t60.5 33.5q5 2 13 6.5t12.5 6.5t11.5 5.5t10.5 5.5t8.5 5.5t8 6t6 5.5t4.5 6t1.5 6q3 12 -5.5 19.5t-21.5 7.5q-17 0 -33 -17.5t-21 -40.5l-108 53q20 52 66.5 82.5t102.5 30.5q72 0 113 -44
t30 -108q-4 -22 -16 -41t-31 -33.5t-35.5 -24t-40.5 -20.5q-59 -32 -68 -40h162l-20 -117h-307zM748 -6q-103 0 -150 81l123 65q7 -27 34 -27q14 0 24 8t12 21q2 17 -6.5 28t-24.5 11q-21 0 -33 -20l-103 40l68 221h244l-20 -118h-148l-10 -32q18 8 39 8q56 0 91.5 -42.5
t23.5 -108.5q-11 -68 -56 -101.5t-108 -33.5z" />
    <glyph glyph-name="uni2157" unicode="&#x2157;" horiz-adv-x="918" 
d="M63 0l647 730h203l-646 -730h-204zM728 -6q-103 0 -150 81l123 65q7 -27 34 -27q14 0 24 8t12 21q2 17 -6.5 28t-24.5 11q-21 0 -33 -20l-103 40l68 221h244l-20 -118h-148l-10 -32q18 8 39 8q56 0 91.5 -42.5t23.5 -108.5q-11 -68 -56 -101.5t-108 -33.5zM178 302
q-102 0 -158 60l105 84q19 -27 54 -27q32 0 37 24q2 11 -6.5 18t-28.5 7h-54l19 109h57q30 0 36 24q3 11 -6 18.5t-25 7.5q-36 0 -58 -28l-75 91q61 46 146 46q71 0 112.5 -41t31.5 -102q-9 -51 -49 -76q41 -36 29 -100q-9 -54 -55 -84.5t-112 -30.5z" />
    <glyph glyph-name="uni2158" unicode="&#x2158;" horiz-adv-x="944" 
d="M88 0l647 730h203l-646 -730h-204zM191 308l13 78h-171l19 109l194 235h137l-43 -241h48l-19 -103h-47l-13 -78h-118zM753 -6q-103 0 -150 81l123 65q7 -27 34 -27q14 0 24 8t12 21q2 17 -6.5 28t-24.5 11q-21 0 -33 -20l-103 40l68 221h244l-20 -118h-148l-10 -32
q18 8 39 8q56 0 91.5 -42.5t23.5 -108.5q-11 -68 -56 -101.5t-108 -33.5zM181 489h41l11 64z" />
    <glyph glyph-name="uni2159" unicode="&#x2159;" horiz-adv-x="910" 
d="M35 0l647 730h203l-646 -730h-204zM684 -6q-83 0 -124.5 51.5t-29.5 118.5q10 50 40 86l147 172h147l-104 -119q53 -5 87 -51t24 -104q-13 -69 -60 -111.5t-127 -42.5zM19 308l20 117h69l21 125q-20 -17 -56 -17h-7l23 128h3q77 0 86 69h109l-54 -305h66l-20 -117h-260z
M695 112q40 0 48 43q3 19 -8 33t-32 14q-17 0 -30 -10.5t-16 -28.5q-4 -21 6.5 -36t31.5 -15z" />
    <glyph glyph-name="uni215A" unicode="&#x215a;" horiz-adv-x="930" 
d="M54 0l647 730h203l-646 -730h-204zM704 -6q-83 0 -124.5 51.5t-29.5 118.5q10 50 40 86l147 172h147l-104 -119q53 -5 87 -51t24 -104q-13 -69 -60 -111.5t-127 -42.5zM176 302q-103 0 -150 81l123 65q7 -27 34 -27q14 0 24 8t12 21q2 17 -6.5 28t-24.5 11q-21 0 -33 -20
l-103 40l68 221h244l-20 -118h-148l-10 -32q18 8 39 8q56 0 91.5 -42.5t23.5 -108.5q-11 -68 -56 -101.5t-108 -33.5zM715 112q40 0 48 43q3 19 -8 33t-32 14q-17 0 -30 -10.5t-16 -28.5q-4 -21 6.5 -36t31.5 -15z" />
    <glyph glyph-name="uni215B" unicode="&#x215b;" horiz-adv-x="895" 
d="M37 0l647 730h203l-646 -730h-204zM699 -6q-73 0 -115 39.5t-29 110.5q10 59 56 92q-21 36 -14 79q10 54 50 83.5t101 29.5q65 0 102 -40.5t26 -102.5q-9 -45 -37 -72q32 -38 23 -93q-10 -60 -53.5 -93t-109.5 -33zM19 308l20 117h69l21 125q-20 -17 -56 -17h-7l23 128h3
q77 0 86 69h109l-54 -305h66l-20 -117h-260zM707 101q36 0 41 30q3 17 -6.5 27t-28.5 10q-17 0 -29 -8.5t-14 -22.5q-2 -15 7.5 -25.5t29.5 -10.5zM736 270q31 0 36 24q2 13 -6.5 22t-24.5 9q-31 0 -36 -24q-3 -13 6 -22t25 -9z" />
    <glyph glyph-name="uni215C" unicode="&#x215c;" horiz-adv-x="921" 
d="M63 0l647 730h203l-646 -730h-204zM725 -6q-73 0 -115 39.5t-29 110.5q10 59 56 92q-21 36 -14 79q10 54 50 83.5t101 29.5q65 0 102 -40.5t26 -102.5q-9 -45 -37 -72q32 -38 23 -93q-10 -60 -53.5 -93t-109.5 -33zM178 302q-102 0 -158 60l105 84q19 -27 54 -27
q32 0 37 24q2 11 -6.5 18t-28.5 7h-54l19 109h57q30 0 36 24q3 11 -6 18.5t-25 7.5q-36 0 -58 -28l-75 91q61 46 146 46q71 0 112.5 -41t31.5 -102q-9 -51 -49 -76q41 -36 29 -100q-9 -54 -55 -84.5t-112 -30.5zM733 101q36 0 41 30q3 17 -6.5 27t-28.5 10q-17 0 -29 -8.5
t-14 -22.5q-2 -15 7.5 -25.5t29.5 -10.5zM762 270q31 0 36 24q2 13 -6.5 22t-24.5 9q-31 0 -36 -24q-3 -13 6 -22t25 -9z" />
    <glyph glyph-name="uni215D" unicode="&#x215d;" horiz-adv-x="910" 
d="M52 0l647 730h203l-646 -730h-204zM713 -6q-73 0 -115 39.5t-29 110.5q10 59 56 92q-21 36 -14 79q10 54 50 83.5t101 29.5q65 0 102 -40.5t26 -102.5q-9 -45 -37 -72q32 -38 23 -93q-10 -60 -53.5 -93t-109.5 -33zM176 302q-103 0 -150 81l123 65q7 -27 34 -27
q14 0 24 8t12 21q2 17 -6.5 28t-24.5 11q-21 0 -33 -20l-103 40l68 221h244l-20 -118h-148l-10 -32q18 8 39 8q56 0 91.5 -42.5t23.5 -108.5q-11 -68 -56 -101.5t-108 -33.5zM721 101q36 0 41 30q3 17 -6.5 27t-28.5 10q-17 0 -29 -8.5t-14 -22.5q-2 -15 7.5 -25.5
t29.5 -10.5zM750 270q31 0 36 24q2 13 -6.5 22t-24.5 9q-31 0 -36 -24q-3 -13 6 -22t25 -9z" />
    <glyph glyph-name="uni215E" unicode="&#x215e;" horiz-adv-x="838" 
d="M-20 0l647 730h203l-646 -730h-204zM639 -6q-73 0 -115 39.5t-29 110.5q10 59 56 92q-21 36 -14 79q10 54 50 83.5t101 29.5q65 0 102 -40.5t26 -102.5q-9 -45 -37 -72q32 -38 23 -93q-10 -60 -53.5 -93t-109.5 -33zM48 308l166 306h-138l20 116h271l-18 -106l-163 -316
h-138zM647 101q36 0 41 30q3 17 -6.5 27t-28.5 10q-17 0 -29 -8.5t-14 -22.5q-2 -15 7.5 -25.5t29.5 -10.5zM676 270q31 0 36 24q2 13 -6.5 22t-24.5 9q-31 0 -36 -24q-3 -13 6 -22t25 -9z" />
    <glyph glyph-name="uni215F" unicode="&#x215f;" horiz-adv-x="793" 
d="M29 0l647 730h203l-646 -730h-204zM19 308l20 117h69l21 125q-20 -17 -56 -17h-7l23 128h3q77 0 86 69h109l-54 -305h66l-20 -117h-260z" />
    <glyph glyph-name="arrowleft" unicode="&#x2190;" horiz-adv-x="866" 
d="M320 37q-38 80 -108 153.5t-151 123.5v90q76 52 146.5 139t87.5 146l145 -73q-32 -85 -123 -167h518v-171h-516q86 -67 133 -156z" />
    <glyph glyph-name="arrowup" unicode="&#x2191;" horiz-adv-x="866" 
d="M379 0v502q-76 -91 -161 -129l-80 139q70 27 149.5 97.5t131.5 149.5h87q51 -76 138 -146t147 -87l-74 -145q-83 30 -165 121v-502h-173z" />
    <glyph glyph-name="arrowright" unicode="&#x2192;" horiz-adv-x="866" 
d="M580 37l-133 85q46 89 133 156h-515v171h517q-92 85 -122 167l145 73q17 -59 87 -146t146 -139v-90q-80 -50 -150 -123.5t-108 -153.5z" />
    <glyph glyph-name="arrowdown" unicode="&#x2193;" horiz-adv-x="866" 
d="M391 -30q-52 77 -138.5 147t-146.5 87l73 145q81 -30 165 -121v502h174v-503q72 91 161 130l79 -139q-70 -28 -149.5 -98.5t-130.5 -149.5h-87z" />
    <glyph glyph-name="uni2196" unicode="&#x2196;" horiz-adv-x="866" 
d="M125 206q30 83 32 193.5t-19 195.5l63 63q94 -17 208.5 -5t168.5 42l30 -154q-73 -36 -193 -31l356 -356l-123 -122l-351 350q15 -106 -13 -198z" />
    <glyph glyph-name="uni2197" unicode="&#x2197;" horiz-adv-x="866" 
d="M218 40l-123 123l350 350q-107 -15 -197 14l21 159q83 -30 193.5 -32t195.5 19l63 -63q-17 -94 -5 -208.5t42 -168.5l-154 -30q-36 73 -31 192z" />
    <glyph glyph-name="uni2198" unicode="&#x2198;" horiz-adv-x="866" 
d="M686 68q-94 17 -208.5 5t-168.5 -42l-30 154q75 36 193 31l-356 356l123 122l352 -352q-15 110 13 200l159 -22q-30 -83 -32.5 -193t19.5 -196z" />
    <glyph glyph-name="uni2199" unicode="&#x2199;" horiz-adv-x="866" 
d="M622 48q-83 30 -193 32.5t-196 -19.5l-63 64q17 94 5 208.5t-42 168.5l154 30q35 -75 30 -194l356 357l123 -123l-352 -352q106 15 199 -13z" />
    <glyph glyph-name="partialdiff" unicode="&#x2202;" horiz-adv-x="558" 
d="M259 -10q-125 0 -193.5 87t-47.5 205q17 96 85 157.5t161 61.5q31 0 68 -11q-59 99 -200 241h212q239 -282 195 -511q-19 -100 -92.5 -165t-187.5 -65zM269 146q39 0 69 25.5t37 67.5q8 46 -17 81t-70 36q-38 0 -68.5 -26t-37.5 -68q-8 -46 17 -81t70 -35z" />
    <glyph glyph-name="increment" unicode="&#x2206;" horiz-adv-x="866" 
d="M815 0h-852l553 742zM470 408l-180 -240h277z" />
    <glyph glyph-name="product" unicode="&#x220f;" horiz-adv-x="755" 
d="M79 568l28 162h709l-29 -162h-107l-100 -568h-174l100 568h-139l-100 -568h-174l100 568h-114z" />
    <glyph glyph-name="summation" unicode="&#x2211;" horiz-adv-x="536" 
d="M-21 0l30 170l234 206l-158 192l28 162h483l-29 -162h-273l158 -209l-217 -197h262l-28 -162h-490z" />
    <glyph glyph-name="minus" unicode="&#x2212;" horiz-adv-x="416" 
d="M30 293l26 142h370l-25 -142h-371z" />
    <glyph glyph-name="radical" unicode="&#x221a;" horiz-adv-x="776" 
d="M217 0l-95 334h-86l18 166h194l81 -301l313 531h195l-439 -730h-181z" />
    <glyph glyph-name="infinity" unicode="&#x221e;" horiz-adv-x="890" 
d="M271 177q-85 0 -144.5 59.5t-59.5 144.5t59.5 144.5t144.5 59.5q96 0 195 -95q101 95 197 95q85 0 144.5 -59.5t59.5 -144.5t-59.5 -144.5t-144.5 -59.5q-94 0 -197 99q-103 -99 -195 -99zM271 330q37 0 92 53q-52 49 -92 49q-20 0 -35.5 -15t-15.5 -36q0 -20 15.5 -35.5
t35.5 -15.5zM664 330q20 0 35 15t15 36t-15 36.5t-35 15.5q-40 0 -95 -50q56 -53 95 -53z" />
    <glyph glyph-name="integral" unicode="&#x222b;" horiz-adv-x="342" 
d="M-95 -232l27 156h41q28 0 38 10.5t17 48.5l92 518q12 79 26 122.5t42.5 69t65.5 32.5t105 7h49l-27 -156h-36q-28 0 -37.5 -10.5t-16.5 -48.5l-91 -512q-10 -55 -16.5 -85t-17.5 -61.5t-24 -45t-35 -26t-50 -16t-70 -3.5h-82z" />
    <glyph glyph-name="approxequal" unicode="&#x2248;" horiz-adv-x="414" 
d="M43 370l25 138q53 24 99 24q31 0 89 -19.5t83 -19.5q8 0 15.5 0.5t15.5 2.5t13 3t14 4.5t12.5 4.5t14.5 6t15 6l-24 -137q-52 -27 -100 -27q-29 0 -87.5 20t-83.5 20q-42 0 -101 -26zM14 199l23 136q62 27 98 27q31 0 91 -19.5t85 -19.5q38 0 98 25l-24 -135
q-49 -27 -98 -27q-29 0 -90 19.5t-86 19.5q-39 0 -97 -26z" />
    <glyph glyph-name="notequal" unicode="&#x2260;" horiz-adv-x="416" 
d="M45 377l26 142h173l33 67h125l-34 -67h73l-25 -142h-120l-18 -34h132l-26 -143h-178l-34 -67h-118l33 67h-73l25 143h118l17 34h-129z" />
    <glyph glyph-name="equivalence" unicode="&#x2261;" horiz-adv-x="416" 
d="M30 289l25 142h370l-25 -142h-370zM-2 113l26 142h370l-25 -142h-371zM61 465l26 142h370l-25 -142h-371z" />
    <glyph glyph-name="lessequal" unicode="&#x2264;" horiz-adv-x="416" 
d="M394 256l-347 130l24 141l393 130l-26 -151l-193 -54l174 -54zM-7 89l26 142h371l-26 -142h-371z" />
    <glyph glyph-name="greaterequal" unicode="&#x2265;" horiz-adv-x="416" 
d="M23 256l27 152l193 53l-174 55l24 141l348 -130l-25 -141zM-7 89l26 142h370l-25 -142h-371z" />
    <glyph glyph-name="squaremultiply" unicode="&#x22a0;" horiz-adv-x="926" 
d="M117 0v730h726v-730h-726zM256 597v-464h448v464h-448zM358 161l-82 80l122 126l-123 128l82 80l121 -125l123 126l82 -80l-125 -129l124 -127l-82 -80l-122 125z" />
    <glyph glyph-name="house" unicode="&#x2302;" horiz-adv-x="874" 
d="M770 0h-674v427l337 323l337 -323v-427z" />
    <glyph glyph-name="blacksquare" unicode="&#x25a0;" horiz-adv-x="926" 
d="M117 0v730h726v-730h-726z" />
    <glyph glyph-name="blacksquare" unicode="&#xe740;" horiz-adv-x="926" 
d="M117 0v730h726v-730h-726z" />
    <glyph glyph-name="whitesquare" unicode="&#x25a1;" horiz-adv-x="926" 
d="M117 0v730h726v-730h-726zM256 597v-464h448v464h-448z" />
    <glyph glyph-name="blacksmallsquare" unicode="&#x25aa;" horiz-adv-x="700" 
d="M100 0v500h500v-500h-500z" />
    <glyph glyph-name="whitesmallsquare" unicode="&#x25ab;" horiz-adv-x="700" 
d="M100 0v500h500v-500h-500zM237 364v-228h226v228h-226z" />
    <glyph glyph-name="triagup" unicode="&#x25b2;" horiz-adv-x="897" 
d="M839 0h-857l429 742z" />
    <glyph glyph-name="triagrt" unicode="&#x25ba;" horiz-adv-x="897" 
d="M138 -57v857l742 -428z" />
    <glyph glyph-name="triagdn" unicode="&#x25bc;" horiz-adv-x="897" 
d="M100 730h857l-428 -742z" />
    <glyph glyph-name="triaglf" unicode="&#x25c4;" horiz-adv-x="897" 
d="M797 800v-857l-742 429z" />
    <glyph glyph-name="lozenge" unicode="&#x25ca;" horiz-adv-x="795" 
d="M363 -16l-328 394l434 368l328 -394zM254 369l133 -160l183 155l-133 160z" />
    <glyph glyph-name="whitecircle" unicode="&#x25cb;" horiz-adv-x="927" 
d="M483 -10q-155 0 -264 109.5t-109 265.5q0 155 109 265t264 110q156 0 265 -109.5t109 -265.5t-109 -265.5t-265 -109.5zM483 127q98 0 167 70t69 168t-69 168t-167 70t-166.5 -69.5t-68.5 -168.5t68.5 -168.5t166.5 -69.5z" />
    <glyph glyph-name="whitecircle" unicode="&#x25ef;" horiz-adv-x="927" 
d="M483 -10q-155 0 -264 109.5t-109 265.5q0 155 109 265t264 110q156 0 265 -109.5t109 -265.5t-109 -265.5t-265 -109.5zM483 127q98 0 167 70t69 168t-69 168t-167 70t-166.5 -69.5t-68.5 -168.5t68.5 -168.5t166.5 -69.5z" />
    <glyph glyph-name="bullseye" unicode="&#x25ce;" horiz-adv-x="927" 
d="M483 -10q-155 0 -264 109.5t-109 265.5q0 155 109 265t264 110q156 0 265 -109.5t109 -265.5t-109 -265.5t-265 -109.5zM483 127q98 0 167 70t69 168t-69 168t-167 70t-166.5 -69.5t-68.5 -168.5t68.5 -168.5t166.5 -69.5zM483 250q-47 0 -80.5 34t-33.5 81t33.5 81
t80.5 34t80.5 -34t33.5 -81t-33.5 -81t-80.5 -34z" />
    <glyph glyph-name="blackcircle" unicode="&#x25cf;" horiz-adv-x="927" 
d="M483 -10q-155 0 -264 109.5t-109 265.5q0 155 109 265t264 110q156 0 265 -109.5t109 -265.5t-109 -265.5t-265 -109.5z" />
    <glyph glyph-name="uni25E2" unicode="&#x25e2;" horiz-adv-x="897" 
d="M925 533l-606 -606l-222 828z" />
    <glyph glyph-name="uni25E3" unicode="&#x25e3;" horiz-adv-x="897" 
d="M690 -73l-606 606l828 222z" />
    <glyph glyph-name="uni25E4" unicode="&#x25e4;" horiz-adv-x="897" 
d="M837 -54l-828 222l606 606z" />
    <glyph glyph-name="uni25E5" unicode="&#x25e5;" horiz-adv-x="897" 
d="M842 163l-828 -221l223 828z" />
    <glyph glyph-name="uni2605" unicode="&#x2605;" horiz-adv-x="900" 
d="M562 303l72 -218l-187 135l-186 -135l72 219l-186 135l229 -1l72 218l71 -218l230 -1z" />
    <glyph glyph-name="ballotboxwithx" unicode="&#x2612;" horiz-adv-x="700" 
d="M100 0v500h500v-500h-500zM220 381v-262h260v262h-260zM298 129l-66 66l52 53l-53 54l66 66l53 -53l54 55l66 -66l-54 -55l53 -53l-66 -66l-53 52z" />
    <glyph glyph-name="uni263C" unicode="&#x263c;" horiz-adv-x="928" 
d="M304 365q0 71 51.5 122.5t122.5 51.5t122.5 -51.5t51.5 -122.5t-51.5 -122.5t-122.5 -51.5t-122.5 51.5t-51.5 122.5zM468 577l-17 142h54l-17 -142h-20zM488 155l17 -142h-54l17 142h20zM267 356l-142 -17v54l142 -17v-20zM689 376l142 17v-54l-142 17v20zM290 464
l-133 55l28 47l115 -87zM666 268l133 -55l-28 -47l-115 87zM365 544l-87 115l47 28l55 -133zM591 188l87 -115l-47 -28l-55 133zM576 554l55 133l47 -28l-87 -115zM380 178l-55 -133l-47 28l87 115zM656 480l113 86l30 -46l-133 -56zM300 252l-113 -86l-30 46l133 56z" />
    <glyph glyph-name="uni263E" unicode="&#x263e;" horiz-adv-x="787" 
d="M546 616q-99 0 -169 -73.5t-70 -177.5t70 -177.5t169 -73.5q32 0 71 12q-81 -57 -178 -57q-122 0 -209 87t-87 209t87 209t209 87q97 0 178 -57q-46 12 -71 12z" />
    <glyph glyph-name="spade" unicode="&#x2660;" horiz-adv-x="920" 
d="M604 0h-259q27 50 39.5 75.5t33.5 92.5t21 122q-21 -59 -64 -97.5t-106 -38.5q-70 0 -120.5 47t-50.5 111q0 82 52 150t183 173l140 112h1l140 -112q128 -103 178 -171t50 -152q0 -64 -46 -110.5t-111 -46.5q-69 0 -114.5 38.5t-66.5 96.5q0 -29 6 -61t13 -55.5t21.5 -56
t21 -45.5t22.5 -42t16 -30z" />
    <glyph glyph-name="club" unicode="&#x2663;" horiz-adv-x="920" 
d="M602 0h-259q80 150 91 248q-22 -53 -66.5 -85.5t-100.5 -32.5q-73 0 -125 52t-52 125t52 125t125 52q19 0 42 -7q-19 41 -19 87q0 73 51 124.5t124 51.5t124.5 -51.5t51.5 -124.5q0 -45 -19 -88q22 8 46 8q73 0 124.5 -51.5t51.5 -125.5q0 -73 -52 -125t-125 -52
q-56 0 -99 32t-64 85q3 -25 10.5 -52t15.5 -48t20 -46.5t19 -39t19 -35.5t14 -26z" />
    <glyph glyph-name="heart" unicode="&#x2665;" horiz-adv-x="920" 
d="M139 550q0 78 53 134t130 56q75 0 126 -45.5t59 -115.5q9 70 59.5 115.5t125.5 45.5q77 0 133 -56.5t56 -133.5q0 -85 -52.5 -177t-179.5 -233l-142 -157l-141 157q-125 139 -176 231.5t-51 178.5z" />
    <glyph glyph-name="diamond" unicode="&#x2666;" horiz-adv-x="920" 
d="M155 390l327 401l327 -401l-327 -400z" />
    <glyph glyph-name="uni267B" unicode="&#x267b;" horiz-adv-x="921" 
d="M838 246l1 -2l-91 -157q-13 -19 -19.5 -27.5t-23 -16.5t-39.5 -8h-54v-47l-106 128l106 127v-46h136q25 0 47.5 12.5t32.5 24.5zM201 111h-2l-90 158q-10 19 -14 29.5t-3 28.5t13 38l27 46l-40 23l164 29l55 -156l-38 23q-66 -113 -68 -118q-12 -21 -13 -46.5t4 -39.5z
M406 728v1h182q22 -1 33.5 -2.5t26.5 -11.5t26 -30l26 -46l41 23l-58 -157l-162 30l38 22l-67 118q-13 22 -34.5 35t-36.5 16zM214 558l63 112q11 18 32 29q43 22 91 9t64 -42l-109 -189zM446 35h-127q-23 0 -42 12q-40 23 -53.5 74t4.5 76h218v-162zM784 491l65 -110
q9 -14 9 -41q1 -45 -35.5 -81.5t-69.5 -36.5l-109 189z" />
    <glyph glyph-name="uni267C" unicode="&#x267c;" horiz-adv-x="921" 
d="M854 366q0 -156 -110 -265.5t-265 -109.5q-157 0 -267 109.5t-110 265.5t110 266.5t267 110.5q155 0 265 -110.5t110 -266.5zM321 606l-49 -86l109 -63l84 146q-12 23 -49.5 33t-70.5 -7q-19 -12 -24 -23zM416 652v-1q46 -4 67 -41l53 -91l-30 -18l126 -23l44 122
l-31 -18l-21 36q-13 22 -27.5 28t-39.5 6h-141zM349 114h99v126h-170q-14 -20 -3 -59.5t42 -57.5q16 -9 32 -9zM260 173h1q-18 41 3 79l53 91l30 -18l-43 121l-127 -22l31 -18l-21 -36q-9 -15 -10 -29.5t2 -21.5t11 -24zM763 383l-49 85l-110 -63l85 -147q26 0 54.5 28.5
t27.5 64.5q0 18 -8 32zM756 276l-1 1q-26 -37 -70 -37h-105v35l-83 -98l83 -99v36h41q26 0 39 9.5t25 30.5z" />
    <glyph glyph-name="uni267D" unicode="&#x267d;" horiz-adv-x="921" 
d="M854 366q0 -156 -110 -265.5t-265 -109.5q-157 0 -267 109.5t-110 265.5t110 266.5t267 110.5q155 0 265 -110.5t110 -266.5zM835 366q0 149 -104 253.5t-252 104.5q-149 0 -254 -104.5t-105 -253.5q0 -148 105 -252.5t254 -104.5q148 0 252 104.5t104 252.5zM272 520
l49 86q5 11 24 23q33 17 70.5 7t49.5 -33l-84 -146zM416 651v1h141q25 0 39.5 -6t27.5 -28l21 -36l31 18l-44 -122l-126 23l30 18l-53 91q-9 16 -26 26.5t-29 12.5zM448 114h-99q-15 0 -32 9q-31 18 -42 57.5t3 59.5h170v-126zM261 173h-1l-70 122q-8 17 -11 24t-2 21.5
t10 29.5l21 36l-31 18l127 22l43 -121l-30 18l-53 -91q-9 -17 -10 -36.5t3 -31.5zM714 468l49 -85q8 -14 8 -32q1 -36 -27.5 -64.5t-54.5 -28.5l-85 147zM755 277l1 -1l-71 -122q-8 -14 -14 -21t-19 -13t-31 -6h-41v-36l-83 99l83 98v-35h105q20 0 37.5 9t25.5 19z" />
    <glyph glyph-name="mediumwhitecircle" unicode="&#x26aa;" horiz-adv-x="698" 
d="M348 -10q-108 0 -183.5 76t-75.5 184t75.5 184t183.5 76t183.5 -76t75.5 -184t-75.5 -184t-183.5 -76zM348 120q52 0 89 38.5t37 91.5t-37 91.5t-89 38.5q-53 0 -89 -38t-36 -92t36 -92t89 -38z" />
    <glyph glyph-name="mediumblackcircle" unicode="&#x26ab;" horiz-adv-x="698" 
d="M348 -10q-108 0 -183.5 76t-75.5 184t75.5 184t183.5 76t183.5 -76t75.5 -184t-75.5 -184t-183.5 -76z" />
    <glyph glyph-name="anglebracketleft" unicode="&#x3008;" horiz-adv-x="379" 
d="M120 -231l-111 495l260 466h189l-274 -486l109 -475h-173z" />
    <glyph glyph-name="anglebracketright" unicode="&#x3009;" horiz-adv-x="379" 
d="M-78 -231l274 486l-108 475h173l110 -495l-259 -466h-190z" />
    <glyph glyph-name="cordinal" unicode="&#xe181;" horiz-adv-x="332" 
d="M213 435q-66 0 -106.5 46.5t-32.5 111.5q7 62 53 102.5t108 40.5q48 0 84.5 -23.5t51.5 -62.5l-113 -50q-7 23 -31 23q-16 0 -26.5 -10.5t-11.5 -26.5q-2 -15 7 -26.5t25 -11.5q23 0 34 23l108 -50q-21 -40 -60 -63t-90 -23z" />
    <glyph glyph-name="p.smcp" unicode="&#xe200;" horiz-adv-x="484" 
d="M-22 0l105 596h206q88 0 153 -68t47 -172q-17 -100 -85.5 -156.5t-173.5 -56.5h-55l-25 -143h-172zM262 439h-35l-24 -136h38q33 0 54 18t26 49q6 32 -11.5 50.5t-47.5 18.5z" />
    <glyph glyph-name="p.smcp" unicode="&#xf770;" horiz-adv-x="484" 
d="M-22 0l105 596h206q88 0 153 -68t47 -172q-17 -100 -85.5 -156.5t-173.5 -56.5h-55l-25 -143h-172zM262 439h-35l-24 -136h38q33 0 54 18t26 49q6 32 -11.5 50.5t-47.5 18.5z" />
    <glyph glyph-name="a.smcp" unicode="&#xe201;" horiz-adv-x="586" 
d="M-44 0l317 596h176l90 -596h-173l-10 70h-184l-36 -70h-180zM319 355l-69 -133h86z" />
    <glyph glyph-name="a.smcp" unicode="&#xf761;" horiz-adv-x="586" 
d="M-44 0l317 596h176l90 -596h-173l-10 70h-184l-36 -70h-180zM319 355l-69 -133h86z" />
    <glyph glyph-name="b.smcp" unicode="&#xe202;" horiz-adv-x="498" 
d="M-22 0l105 596h218q99 0 152.5 -54.5t39.5 -138.5q-13 -69 -67 -106q59 -46 42 -140q-13 -77 -76 -117t-167 -40h-247zM241 225h-52l-13 -76h54q60 0 68 37q3 19 -10.5 29t-46.5 10zM275 448h-47l-12 -72h48q54 0 61 34q3 19 -8.5 28.5t-41.5 9.5z" />
    <glyph glyph-name="b.smcp" unicode="&#xf762;" horiz-adv-x="498" 
d="M-22 0l105 596h218q99 0 152.5 -54.5t39.5 -138.5q-13 -69 -67 -106q59 -46 42 -140q-13 -77 -76 -117t-167 -40h-247zM241 225h-52l-13 -76h54q60 0 68 37q3 19 -10.5 29t-46.5 10zM275 448h-47l-12 -72h48q54 0 61 34q3 19 -8.5 28.5t-41.5 9.5z" />
    <glyph glyph-name="c.smcp" unicode="&#xe203;" horiz-adv-x="621" 
d="M309 -8q-141 0 -223 100t-59 235q21 122 114 199.5t217 77.5q95 0 169.5 -49t103.5 -128l-172 -77q-11 38 -41 61t-75 23q-55 0 -93 -35t-48 -88q-11 -60 23.5 -104.5t95.5 -44.5q83 0 122 85l163 -76q-94 -179 -297 -179z" />
    <glyph glyph-name="c.smcp" unicode="&#xf763;" horiz-adv-x="621" 
d="M309 -8q-141 0 -223 100t-59 235q21 122 114 199.5t217 77.5q95 0 169.5 -49t103.5 -128l-172 -77q-11 38 -41 61t-75 23q-55 0 -93 -35t-48 -88q-11 -60 23.5 -104.5t95.5 -44.5q83 0 122 85l163 -76q-94 -179 -297 -179z" />
    <glyph glyph-name="d.smcp" unicode="&#xe204;" horiz-adv-x="555" 
d="M-22 0l105 596h204q131 1 207 -91t54 -218q-20 -124 -105.5 -205.5t-217.5 -81.5h-247zM265 435h-39l-48 -273h51q56 0 95 38t49 97q11 61 -18.5 99.5t-89.5 38.5z" />
    <glyph glyph-name="d.smcp" unicode="&#xf764;" horiz-adv-x="555" 
d="M-22 0l105 596h204q131 1 207 -91t54 -218q-20 -124 -105.5 -205.5t-217.5 -81.5h-247zM265 435h-39l-48 -273h51q56 0 95 38t49 97q11 61 -18.5 99.5t-89.5 38.5z" />
    <glyph glyph-name="e.smcp" unicode="&#xe205;" horiz-adv-x="403" 
d="M-22 0l105 596h360l-28 -157h-188l-12 -63h189l-27 -156h-189l-11 -62h189l-28 -158h-360z" />
    <glyph glyph-name="e.smcp" unicode="&#xf765;" horiz-adv-x="403" 
d="M-22 0l105 596h360l-28 -157h-188l-12 -63h189l-27 -156h-189l-11 -62h189l-28 -158h-360z" />
    <glyph glyph-name="f.smcp" unicode="&#xe206;" horiz-adv-x="384" 
d="M-22 0l105 596h341l-28 -158h-169l-11 -61h169l-27 -156h-169l-39 -221h-172z" />
    <glyph glyph-name="f.smcp" unicode="&#xf766;" horiz-adv-x="384" 
d="M-22 0l105 596h341l-28 -158h-169l-11 -61h169l-27 -156h-169l-39 -221h-172z" />
    <glyph glyph-name="g.smcp" unicode="&#xe207;" horiz-adv-x="637" 
d="M307 -8q-145 0 -224.5 99t-55.5 236q20 118 114.5 197.5t216.5 79.5q176 0 261 -146l-173 -76q-28 60 -101 60q-58 0 -98 -36.5t-51 -93.5q-12 -64 23 -111t102 -47q70 0 108 61h-153l26 145h339l-16 -92q-21 -121 -107 -198.5t-211 -77.5z" />
    <glyph glyph-name="g.smcp" unicode="&#xf767;" horiz-adv-x="637" 
d="M307 -8q-145 0 -224.5 99t-55.5 236q20 118 114.5 197.5t216.5 79.5q176 0 261 -146l-173 -76q-28 60 -101 60q-58 0 -98 -36.5t-51 -93.5q-12 -64 23 -111t102 -47q70 0 108 61h-153l26 145h339l-16 -92q-21 -121 -107 -198.5t-211 -77.5z" />
    <glyph glyph-name="h.smcp" unicode="&#xe208;" horiz-adv-x="501" 
d="M-22 0l105 596h172l-37 -208h113l37 208h171l-105 -596h-171l37 213h-113l-37 -213h-172z" />
    <glyph glyph-name="h.smcp" unicode="&#xf768;" horiz-adv-x="501" 
d="M-22 0l105 596h172l-37 -208h113l37 208h171l-105 -596h-171l37 213h-113l-37 -213h-172z" />
    <glyph glyph-name="i.smcp" unicode="&#xe209;" horiz-adv-x="221" 
d="M-19 0l105 596h171l-105 -596h-171z" />
    <glyph glyph-name="i.smcp" unicode="&#xf769;" horiz-adv-x="221" 
d="M-19 0l105 596h171l-105 -596h-171z" />
    <glyph glyph-name="j.smcp" unicode="&#xe20a;" horiz-adv-x="439" 
d="M198 -8q-165 0 -214 160l166 56q8 -55 43 -55q33 0 43 45l69 398h172l-75 -425q-15 -83 -66.5 -131t-137.5 -48z" />
    <glyph glyph-name="j.smcp" unicode="&#xf76a;" horiz-adv-x="439" 
d="M198 -8q-165 0 -214 160l166 56q8 -55 43 -55q33 0 43 45l69 398h172l-75 -425q-15 -83 -66.5 -131t-137.5 -48z" />
    <glyph glyph-name="k.smcp" unicode="&#xe20b;" horiz-adv-x="527" 
d="M299 0l-72 227l-47 -54l-30 -173h-172l105 596h172l-30 -169l147 169h212l-220 -247l118 -349h-183z" />
    <glyph glyph-name="k.smcp" unicode="&#xf76b;" horiz-adv-x="527" 
d="M299 0l-72 227l-47 -54l-30 -173h-172l105 596h172l-30 -169l147 169h212l-220 -247l118 -349h-183z" />
    <glyph glyph-name="l.smcp" unicode="&#xe20c;" horiz-adv-x="369" 
d="M-22 0l105 596h172l-76 -430h157l-29 -166h-329z" />
    <glyph glyph-name="l.smcp" unicode="&#xf76c;" horiz-adv-x="369" 
d="M-22 0l105 596h172l-76 -430h157l-29 -166h-329z" />
    <glyph glyph-name="m.smcp" unicode="&#xe20d;" horiz-adv-x="637" 
d="M-22 0l105 596h144l115 -176l172 176h161l-105 -596h-171l57 326l-149 -152l-101 151l-56 -325h-172z" />
    <glyph glyph-name="m.smcp" unicode="&#xf76d;" horiz-adv-x="637" 
d="M-22 0l105 596h144l115 -176l172 176h161l-105 -596h-171l57 326l-149 -152l-101 151l-56 -325h-172z" />
    <glyph glyph-name="n.smcp" unicode="&#xe20e;" horiz-adv-x="556" 
d="M-22 0l107 596h174l113 -277l50 277h171l-104 -596h-162l-124 301l-53 -301h-172z" />
    <glyph glyph-name="n.smcp" unicode="&#xf76e;" horiz-adv-x="556" 
d="M-22 0l107 596h174l113 -277l50 277h171l-104 -596h-162l-124 301l-53 -301h-172z" />
    <glyph glyph-name="o.smcp" unicode="&#xe20f;" horiz-adv-x="648" 
d="M307 -8q-140 0 -222 100t-58 235q20 118 114.5 197.5t216.5 79.5q138 0 220.5 -100t59.5 -235q-21 -120 -113 -198.5t-218 -78.5zM321 163q54 0 92.5 34.5t48.5 87.5q10 60 -24 104.5t-95 44.5q-54 0 -92.5 -35t-48.5 -88q-11 -60 23 -104t96 -44z" />
    <glyph glyph-name="o.smcp" unicode="&#xf76f;" horiz-adv-x="648" 
d="M307 -8q-140 0 -222 100t-58 235q20 118 114.5 197.5t216.5 79.5q138 0 220.5 -100t59.5 -235q-21 -120 -113 -198.5t-218 -78.5zM321 163q54 0 92.5 34.5t48.5 87.5q10 60 -24 104.5t-95 44.5q-54 0 -92.5 -35t-48.5 -88q-11 -60 23 -104t96 -44z" />
    <glyph glyph-name="q.smcp" unicode="&#xe211;" horiz-adv-x="669" 
d="M308 -8q-140 0 -222.5 100t-58.5 235q20 118 114.5 197.5t216.5 79.5q139 0 221 -99.5t59 -234.5q-12 -71 -48 -126q15 -4 36 -4h9l-26 -140h-9q-59 0 -104 23t-70.5 55.5t-46.5 64.5t-45 55t-53 23h-16l27 138h16q56 0 91 -24t65 -68q1 3 2.5 9t2.5 9q11 62 -25 109
t-100 47q-57 0 -97 -36.5t-51 -92.5q-12 -62 23 -109t97 -47q21 0 28 4q7 -9 28.5 -42t40.5 -54t44 -36q-27 -15 -70.5 -25.5t-78.5 -10.5z" />
    <glyph glyph-name="q.smcp" unicode="&#xf771;" horiz-adv-x="669" 
d="M308 -8q-140 0 -222.5 100t-58.5 235q20 118 114.5 197.5t216.5 79.5q139 0 221 -99.5t59 -234.5q-12 -71 -48 -126q15 -4 36 -4h9l-26 -140h-9q-59 0 -104 23t-70.5 55.5t-46.5 64.5t-45 55t-53 23h-16l27 138h16q56 0 91 -24t65 -68q1 3 2.5 9t2.5 9q11 62 -25 109
t-100 47q-57 0 -97 -36.5t-51 -92.5q-12 -62 23 -109t97 -47q21 0 28 4q7 -9 28.5 -42t40.5 -54t44 -36q-27 -15 -70.5 -25.5t-78.5 -10.5z" />
    <glyph glyph-name="r.smcp" unicode="&#xe212;" horiz-adv-x="498" 
d="M-22 0l105 596h205q115 0 175 -64.5t43 -163.5q-22 -120 -142 -158q24 -51 93 -51h10l-28 -159h-15q-105 0 -163.5 55.5t-74.5 151.5l-36 -207h-172zM264 444h-36l-19 -108h37q74 0 84 52q5 26 -11.5 41t-54.5 15z" />
    <glyph glyph-name="r.smcp" unicode="&#xf772;" horiz-adv-x="498" 
d="M-22 0l105 596h205q115 0 175 -64.5t43 -163.5q-22 -120 -142 -158q24 -51 93 -51h10l-28 -159h-15q-105 0 -163.5 55.5t-74.5 151.5l-36 -207h-172zM264 444h-36l-19 -108h37q74 0 84 52q5 26 -11.5 41t-54.5 15z" />
    <glyph glyph-name="s.smcp" unicode="&#xe213;" horiz-adv-x="462" 
d="M202 -9q-160 0 -233 122l151 103q15 -31 39.5 -49t50.5 -18q45 0 50 34q-1 6 0 9t-3 8t-5.5 7.5t-8 6.5t-10 6.5t-12 6.5t-13.5 6t-14.5 6t-15.5 7q-32 14 -53.5 27t-44.5 35.5t-31 56t-1 76.5q13 79 74.5 122t153.5 43q72 0 127.5 -30t85.5 -74l-142 -95q-11 22 -34 38
t-48 16q-40 0 -47 -32q-1 -4 0 -8t3.5 -7.5t5 -6.5t8 -6.5t9.5 -6t12 -6.5t13 -6t15 -6.5t15 -6.5q33 -14 54.5 -27.5t46 -37t33 -59t0.5 -81.5q-14 -74 -74.5 -123.5t-156.5 -49.5z" />
    <glyph glyph-name="s.smcp" unicode="&#xf773;" horiz-adv-x="462" 
d="M202 -9q-160 0 -233 122l151 103q15 -31 39.5 -49t50.5 -18q45 0 50 34q-1 6 0 9t-3 8t-5.5 7.5t-8 6.5t-10 6.5t-12 6.5t-13.5 6t-14.5 6t-15.5 7q-32 14 -53.5 27t-44.5 35.5t-31 56t-1 76.5q13 79 74.5 122t153.5 43q72 0 127.5 -30t85.5 -74l-142 -95q-11 22 -34 38
t-48 16q-40 0 -47 -32q-1 -4 0 -8t3.5 -7.5t5 -6.5t8 -6.5t9.5 -6t12 -6.5t13 -6t15 -6.5t15 -6.5q33 -14 54.5 -27.5t46 -37t33 -59t0.5 -81.5q-14 -74 -74.5 -123.5t-156.5 -49.5z" />
    <glyph glyph-name="t.smcp" unicode="&#xe214;" horiz-adv-x="429" 
d="M53 438l28 158h389l-27 -158h-108l-77 -438h-171l76 438h-110z" />
    <glyph glyph-name="t.smcp" unicode="&#xf774;" horiz-adv-x="429" 
d="M53 438l28 158h389l-27 -158h-108l-77 -438h-171l76 438h-110z" />
    <glyph glyph-name="u.smcp" unicode="&#xe215;" horiz-adv-x="486" 
d="M200 -8q-92 0 -149 51t-39 146l71 407h171l-67 -387q-4 -24 7.5 -38t33.5 -14q21 0 36.5 13.5t19.5 35.5l69 390h171l-69 -396q-37 -208 -255 -208z" />
    <glyph glyph-name="u.smcp" unicode="&#xf775;" horiz-adv-x="486" 
d="M200 -8q-92 0 -149 51t-39 146l71 407h171l-67 -387q-4 -24 7.5 -38t33.5 -14q21 0 36.5 13.5t19.5 35.5l69 390h171l-69 -396q-37 -208 -255 -208z" />
    <glyph glyph-name="v.smcp" unicode="&#xe216;" horiz-adv-x="519" 
d="M127 0l-61 596h172l24 -298l134 298h181l-280 -596h-170z" />
    <glyph glyph-name="v.smcp" unicode="&#xf776;" horiz-adv-x="519" 
d="M127 0l-61 596h172l24 -298l134 298h181l-280 -596h-170z" />
    <glyph glyph-name="w.smcp" unicode="&#xe217;" horiz-adv-x="848" 
d="M123 0l-59 596h177l22 -300l133 300h169l27 -301l127 301h186l-267 -596h-179l-25 307l-134 -307h-177z" />
    <glyph glyph-name="w.smcp" unicode="&#xf777;" horiz-adv-x="848" 
d="M123 0l-59 596h177l22 -300l133 300h169l27 -301l127 301h186l-267 -596h-179l-25 307l-134 -307h-177z" />
    <glyph glyph-name="x.smcp" unicode="&#xe218;" horiz-adv-x="544" 
d="M323 0l-63 161l-108 -161h-195l229 311l-115 285h173l56 -145l101 145h194l-220 -297l124 -299h-176z" />
    <glyph glyph-name="x.smcp" unicode="&#xf778;" horiz-adv-x="544" 
d="M323 0l-63 161l-108 -161h-195l229 311l-115 285h173l56 -145l101 145h194l-220 -297l124 -299h-176z" />
    <glyph glyph-name="y.smcp" unicode="&#xe219;" horiz-adv-x="543" 
d="M135 0l51 288l-122 308h177l55 -153l111 153h194l-245 -315l-49 -281h-172z" />
    <glyph glyph-name="y.smcp" unicode="&#xf779;" horiz-adv-x="543" 
d="M135 0l51 288l-122 308h177l55 -153l111 153h194l-245 -315l-49 -281h-172z" />
    <glyph glyph-name="z.smcp" unicode="&#xe21a;" horiz-adv-x="441" 
d="M-22 0l27 150l243 290h-188l27 156h392l-26 -151l-241 -288h191l-28 -157h-397z" />
    <glyph glyph-name="z.smcp" unicode="&#xf77a;" horiz-adv-x="441" 
d="M-22 0l27 150l243 290h-188l27 156h392l-26 -151l-241 -288h191l-28 -157h-397z" />
    <glyph glyph-name="anocross.smcp" unicode="&#xe220;" horiz-adv-x="586" 
d="M-44 0l317 596h176l90 -596h-174l-47 354l-182 -354h-180z" />
    <glyph glyph-name="aacute.smcp" unicode="&#xe221;" horiz-adv-x="586" 
d="M-44 0l317 596h176l90 -596h-173l-10 70h-184l-36 -70h-180zM302 630l143 177h170l-187 -177h-126zM319 355l-69 -133h86z" />
    <glyph glyph-name="aacute.smcp" unicode="&#xf7e1;" horiz-adv-x="586" 
d="M-44 0l317 596h176l90 -596h-173l-10 70h-184l-36 -70h-180zM302 630l143 177h170l-187 -177h-126zM319 355l-69 -133h86z" />
    <glyph glyph-name="agrave.smcp" unicode="&#xe222;" horiz-adv-x="586" 
d="M-44 0l317 596h176l90 -596h-173l-10 70h-184l-36 -70h-180zM305 630l-123 177h162l80 -177h-119zM319 355l-69 -133h86z" />
    <glyph glyph-name="agrave.smcp" unicode="&#xf7e0;" horiz-adv-x="586" 
d="M-44 0l317 596h176l90 -596h-173l-10 70h-184l-36 -70h-180zM305 630l-123 177h162l80 -177h-119zM319 355l-69 -133h86z" />
    <glyph glyph-name="acircumflex.smcp" unicode="&#xe223;" horiz-adv-x="586" 
d="M-44 0l317 596h176l90 -596h-173l-10 70h-184l-36 -70h-180zM193 630l150 177h103l87 -177h-120l-33 76l-61 -76h-126zM319 355l-69 -133h86z" />
    <glyph glyph-name="acircumflex.smcp" unicode="&#xf7e2;" horiz-adv-x="586" 
d="M-44 0l317 596h176l90 -596h-173l-10 70h-184l-36 -70h-180zM193 630l150 177h103l87 -177h-120l-33 76l-61 -76h-126zM319 355l-69 -133h86z" />
    <glyph glyph-name="adieresis.smcp" unicode="&#xe224;" horiz-adv-x="586" 
d="M-44 0l317 596h176l90 -596h-173l-10 70h-184l-36 -70h-180zM182 630l30 168h166l-29 -168h-167zM384 630l29 168h167l-30 -168h-166zM319 355l-69 -133h86z" />
    <glyph glyph-name="adieresis.smcp" unicode="&#xf7e4;" horiz-adv-x="586" 
d="M-44 0l317 596h176l90 -596h-173l-10 70h-184l-36 -70h-180zM182 630l30 168h166l-29 -168h-167zM384 630l29 168h167l-30 -168h-166zM319 355l-69 -133h86z" />
    <glyph glyph-name="atilde.smcp" unicode="&#xe225;" horiz-adv-x="586" 
d="M-44 0l317 596h176l90 -596h-173l-10 70h-184l-36 -70h-180zM188 630q11 69 47.5 110t87.5 41q38 0 76 -23q30 -22 41 -22q21 0 25 42h95q-11 -71 -46 -111.5t-88 -40.5q-39 0 -78 26q-28 18 -40 18q-22 0 -26 -40h-94zM319 355l-69 -133h86z" />
    <glyph glyph-name="atilde.smcp" unicode="&#xf7e3;" horiz-adv-x="586" 
d="M-44 0l317 596h176l90 -596h-173l-10 70h-184l-36 -70h-180zM188 630q11 69 47.5 110t87.5 41q38 0 76 -23q30 -22 41 -22q21 0 25 42h95q-11 -71 -46 -111.5t-88 -40.5q-39 0 -78 26q-28 18 -40 18q-22 0 -26 -40h-94zM319 355l-69 -133h86z" />
    <glyph glyph-name="aring.smcp" unicode="&#xe226;" horiz-adv-x="586" 
d="M-44 0l301 567q-24 41 -13 91q11 46 48.5 76.5t86.5 30.5q61 0 93.5 -43.5t19.5 -100.5q-9 -40 -37 -68l84 -553h-173l-10 70h-184l-36 -70h-180zM319 355l-69 -133h86zM364 606q30 0 37 29q3 16 -5.5 28t-23.5 12q-29 0 -36 -29q-4 -16 4 -28t24 -12z" />
    <glyph glyph-name="aring.smcp" unicode="&#xf7e5;" horiz-adv-x="586" 
d="M-44 0l301 567q-24 41 -13 91q11 46 48.5 76.5t86.5 30.5q61 0 93.5 -43.5t19.5 -100.5q-9 -40 -37 -68l84 -553h-173l-10 70h-184l-36 -70h-180zM319 355l-69 -133h86zM364 606q30 0 37 29q3 16 -5.5 28t-23.5 12q-29 0 -36 -29q-4 -16 4 -28t24 -12z" />
    <glyph glyph-name="amacron.smcp" unicode="&#xe228;" horiz-adv-x="586" 
d="M-44 0l317 596h176l90 -596h-173l-10 70h-184l-36 -70h-180zM231 630l21 113h264l-21 -113h-264zM319 355l-69 -133h86z" />
    <glyph glyph-name="amacron.smcp" unicode="&#xf641;" horiz-adv-x="586" 
d="M-44 0l317 596h176l90 -596h-173l-10 70h-184l-36 -70h-180zM231 630l21 113h264l-21 -113h-264zM319 355l-69 -133h86z" />
    <glyph glyph-name="abreve.smcp" unicode="&#xe229;" horiz-adv-x="586" 
d="M-44 0l317 596h176l90 -596h-173l-10 70h-184l-36 -70h-180zM371 626q-82 0 -118 49t-21 129h107q-14 -74 44 -76q56 2 70 76h107q-15 -82 -63 -130t-126 -48zM319 355l-69 -133h86z" />
    <glyph glyph-name="abreve.smcp" unicode="&#xf640;" horiz-adv-x="586" 
d="M-44 0l317 596h176l90 -596h-173l-10 70h-184l-36 -70h-180zM371 626q-82 0 -118 49t-21 129h107q-14 -74 44 -76q56 2 70 76h107q-15 -82 -63 -130t-126 -48zM319 355l-69 -133h86z" />
    <glyph glyph-name="aringacute.smcp" unicode="&#xe22d;" horiz-adv-x="586" 
d="M-44 0l303 569q-27 43 -15 94q11 46 48.5 76.5t86.5 30.5q61 0 93.5 -43.5t19.5 -100.5q-9 -40 -37 -68l84 -558h-173l-10 70h-184l-36 -70h-180zM323 800l143 177h170l-187 -177h-126zM319 355l-69 -133h86zM364 611q30 0 37 29q3 16 -5.5 28t-23.5 12q-29 0 -36 -29
q-4 -16 4 -28t24 -12z" />
    <glyph glyph-name="aringacute.smcp" unicode="&#xf625;" horiz-adv-x="586" 
d="M-44 0l303 569q-27 43 -15 94q11 46 48.5 76.5t86.5 30.5q61 0 93.5 -43.5t19.5 -100.5q-9 -40 -37 -68l84 -558h-173l-10 70h-184l-36 -70h-180zM323 800l143 177h170l-187 -177h-126zM319 355l-69 -133h86zM364 611q30 0 37 29q3 16 -5.5 28t-23.5 12q-29 0 -36 -29
q-4 -16 4 -28t24 -12z" />
    <glyph glyph-name="aogonek.smcp" unicode="&#xe22f;" horiz-adv-x="586" 
d="M-44 0l317 596h176l90 -596h-1q-103 -58 -132.5 -78t-32.5 -36q-1 -11 6.5 -17t20.5 -6q23 0 52 29l95 -63q-72 -67 -157 -67q-76 0 -114.5 36.5t-28.5 89.5q6 35 31.5 64.5t85.5 62.5l-8 55h-184l-36 -70h-180zM319 355l-69 -133h86z" />
    <glyph glyph-name="aogonek.smcp" unicode="&#xf642;" horiz-adv-x="586" 
d="M-44 0l317 596h176l90 -596h-1q-103 -58 -132.5 -78t-32.5 -36q-1 -11 6.5 -17t20.5 -6q23 0 52 29l95 -63q-72 -67 -157 -67q-76 0 -114.5 36.5t-28.5 89.5q6 35 31.5 64.5t85.5 62.5l-8 55h-184l-36 -70h-180zM319 355l-69 -133h86z" />
    <glyph glyph-name="edieresis.smcp" unicode="&#xe230;" horiz-adv-x="403" 
d="M-22 0l105 596h360l-28 -157h-188l-12 -63h189l-27 -156h-189l-11 -62h189l-28 -158h-360zM84 630l30 168h166l-29 -168h-167zM286 630l29 168h167l-30 -168h-166z" />
    <glyph glyph-name="edieresis.smcp" unicode="&#xf7eb;" horiz-adv-x="403" 
d="M-22 0l105 596h360l-28 -157h-188l-12 -63h189l-27 -156h-189l-11 -62h189l-28 -158h-360zM84 630l30 168h166l-29 -168h-167zM286 630l29 168h167l-30 -168h-166z" />
    <glyph glyph-name="ae.smcp" unicode="&#xe231;" horiz-adv-x="773" 
d="M-44 0l403 596h452l-28 -158h-234l-2 -61h225l-27 -156h-202l-2 -63h193l-28 -158h-337l2 67h-176l-45 -67h-194zM299 221h76l4 117z" />
    <glyph glyph-name="ae.smcp" unicode="&#xf7e6;" horiz-adv-x="773" 
d="M-44 0l403 596h452l-28 -158h-234l-2 -61h225l-27 -156h-202l-2 -63h193l-28 -158h-337l2 67h-176l-45 -67h-194zM299 221h76l4 117z" />
    <glyph glyph-name="aeacute.smcp" unicode="&#xe232;" horiz-adv-x="784" 
d="M-33 0l403 596h452l-28 -158h-234l-2 -61h225l-27 -156h-202l-2 -63h193l-28 -158h-337l2 67h-176l-45 -67h-194zM477 630l143 177h170l-187 -177h-126zM310 221h76l4 117z" />
    <glyph glyph-name="aeacute.smcp" unicode="&#xf624;" horiz-adv-x="784" 
d="M-33 0l403 596h452l-28 -158h-234l-2 -61h225l-27 -156h-202l-2 -63h193l-28 -158h-337l2 67h-176l-45 -67h-194zM477 630l143 177h170l-187 -177h-126zM310 221h76l4 117z" />
    <glyph glyph-name="cacute.smcp" unicode="&#xe234;" horiz-adv-x="621" 
d="M303 633l143 177h170l-187 -177h-126zM309 -8q-141 0 -223 100t-59 235q21 122 114 199.5t217 77.5q95 0 169.5 -49t103.5 -128l-172 -77q-11 38 -41 61t-75 23q-55 0 -93 -35t-48 -88q-11 -60 23.5 -104.5t95.5 -44.5q83 0 122 85l163 -76q-94 -179 -297 -179z" />
    <glyph glyph-name="cacute.smcp" unicode="&#xf643;" horiz-adv-x="621" 
d="M303 633l143 177h170l-187 -177h-126zM309 -8q-141 0 -223 100t-59 235q21 122 114 199.5t217 77.5q95 0 169.5 -49t103.5 -128l-172 -77q-11 38 -41 61t-75 23q-55 0 -93 -35t-48 -88q-11 -60 23.5 -104.5t95.5 -44.5q83 0 122 85l163 -76q-94 -179 -297 -179z" />
    <glyph glyph-name="ccircumflex.smcp" unicode="&#xe235;" horiz-adv-x="621" 
d="M309 -8q-141 0 -223 100t-59 235q21 122 114 199.5t217 77.5q95 0 169.5 -49t103.5 -128l-172 -77q-11 38 -41 61t-75 23q-55 0 -93 -35t-48 -88q-11 -60 23.5 -104.5t95.5 -44.5q83 0 122 85l163 -76q-94 -179 -297 -179zM192 632l150 177h103l87 -177h-120l-33 76
l-61 -76h-126z" />
    <glyph glyph-name="ccircumflex.smcp" unicode="&#xf628;" horiz-adv-x="621" 
d="M309 -8q-141 0 -223 100t-59 235q21 122 114 199.5t217 77.5q95 0 169.5 -49t103.5 -128l-172 -77q-11 38 -41 61t-75 23q-55 0 -93 -35t-48 -88q-11 -60 23.5 -104.5t95.5 -44.5q83 0 122 85l163 -76q-94 -179 -297 -179zM192 632l150 177h103l87 -177h-120l-33 76
l-61 -76h-126z" />
    <glyph glyph-name="ccaron.smcp" unicode="&#xe236;" horiz-adv-x="621" 
d="M309 -8q-141 0 -223 100t-59 235q21 122 114 199.5t217 77.5q95 0 169.5 -49t103.5 -128l-172 -77q-11 38 -41 61t-75 23q-55 0 -93 -35t-48 -88q-11 -60 23.5 -104.5t95.5 -44.5q83 0 122 85l163 -76q-94 -179 -297 -179zM314 633l-87 177h121l34 -76l60 76h125
l-150 -177h-103z" />
    <glyph glyph-name="ccaron.smcp" unicode="&#xf644;" horiz-adv-x="621" 
d="M309 -8q-141 0 -223 100t-59 235q21 122 114 199.5t217 77.5q95 0 169.5 -49t103.5 -128l-172 -77q-11 38 -41 61t-75 23q-55 0 -93 -35t-48 -88q-11 -60 23.5 -104.5t95.5 -44.5q83 0 122 85l163 -76q-94 -179 -297 -179zM314 633l-87 177h121l34 -76l60 76h125
l-150 -177h-103z" />
    <glyph glyph-name="cdotaccent.smcp" unicode="&#xe237;" horiz-adv-x="621" 
d="M309 -8q-141 0 -223 100t-59 235q21 122 114 199.5t217 77.5q95 0 169.5 -49t103.5 -128l-172 -77q-11 38 -41 61t-75 23q-55 0 -93 -35t-48 -88q-11 -60 23.5 -104.5t95.5 -44.5q83 0 122 85l163 -76q-94 -179 -297 -179zM283 633l31 175h172l-31 -175h-172z" />
    <glyph glyph-name="cdotaccent.smcp" unicode="&#xf629;" horiz-adv-x="621" 
d="M309 -8q-141 0 -223 100t-59 235q21 122 114 199.5t217 77.5q95 0 169.5 -49t103.5 -128l-172 -77q-11 38 -41 61t-75 23q-55 0 -93 -35t-48 -88q-11 -60 23.5 -104.5t95.5 -44.5q83 0 122 85l163 -76q-94 -179 -297 -179zM283 633l31 175h172l-31 -175h-172z" />
    <glyph glyph-name="ccedilla.smcp" unicode="&#xe238;" horiz-adv-x="621" 
d="M263 -265q-114 0 -174 65l105 62q30 -32 71 -32q47 0 51 25q3 12 -8 18.5t-35 6.5h-65l23 121q-108 28 -165.5 120t-38.5 206q21 122 114 199.5t217 77.5q95 0 169.5 -49t103.5 -128l-172 -77q-11 38 -41 61t-75 23q-55 0 -93 -35t-48 -88q-11 -60 23.5 -104.5
t95.5 -44.5q83 0 122 85l163 -76q-86 -164 -264 -178l-6 -33q52 -7 77 -38.5t17 -81.5q-10 -50 -55 -77.5t-112 -27.5z" />
    <glyph glyph-name="ccedilla.smcp" unicode="&#xf7e7;" horiz-adv-x="621" 
d="M263 -265q-114 0 -174 65l105 62q30 -32 71 -32q47 0 51 25q3 12 -8 18.5t-35 6.5h-65l23 121q-108 28 -165.5 120t-38.5 206q21 122 114 199.5t217 77.5q95 0 169.5 -49t103.5 -128l-172 -77q-11 38 -41 61t-75 23q-55 0 -93 -35t-48 -88q-11 -60 23.5 -104.5
t95.5 -44.5q83 0 122 85l163 -76q-86 -164 -264 -178l-6 -33q52 -7 77 -38.5t17 -81.5q-10 -50 -55 -77.5t-112 -27.5z" />
    <glyph glyph-name="dcaron.smcp" unicode="&#xe239;" horiz-adv-x="555" 
d="M-22 0l105 596h204q131 1 207 -91t54 -218q-20 -124 -105.5 -205.5t-217.5 -81.5h-247zM265 435h-39l-48 -273h51q56 0 95 38t49 97q11 61 -18.5 99.5t-89.5 38.5zM240 630l-87 177h121l34 -76l60 76h125l-150 -177h-103z" />
    <glyph glyph-name="dcaron.smcp" unicode="&#xf645;" horiz-adv-x="555" 
d="M-22 0l105 596h204q131 1 207 -91t54 -218q-20 -124 -105.5 -205.5t-217.5 -81.5h-247zM265 435h-39l-48 -273h51q56 0 95 38t49 97q11 61 -18.5 99.5t-89.5 38.5zM240 630l-87 177h121l34 -76l60 76h125l-150 -177h-103z" />
    <glyph glyph-name="dcroat.smcp" unicode="&#xe23c;" horiz-adv-x="577" 
d="M7 231l23 136h35l40 229h204q131 1 207 -91t54 -218q-20 -124 -105.5 -205.5t-217.5 -81.5h-246l40 231h-34zM295 231h-83l-12 -69h51q56 0 95 38t49 97q11 61 -18.5 99.5t-89.5 38.5h-39l-12 -68h82z" />
    <glyph glyph-name="dcroat.smcp" unicode="&#xf646;" horiz-adv-x="577" 
d="M7 231l23 136h35l40 229h204q131 1 207 -91t54 -218q-20 -124 -105.5 -205.5t-217.5 -81.5h-246l40 231h-34zM295 231h-83l-12 -69h51q56 0 95 38t49 97q11 61 -18.5 99.5t-89.5 38.5h-39l-12 -68h82z" />
    <glyph glyph-name="eacute.smcp" unicode="&#xe23d;" horiz-adv-x="403" 
d="M-22 0l105 596h360l-28 -157h-188l-12 -63h189l-27 -156h-189l-11 -62h189l-28 -158h-360zM201 630l143 177h170l-187 -177h-126z" />
    <glyph glyph-name="eacute.smcp" unicode="&#xf7e9;" horiz-adv-x="403" 
d="M-22 0l105 596h360l-28 -157h-188l-12 -63h189l-27 -156h-189l-11 -62h189l-28 -158h-360zM201 630l143 177h170l-187 -177h-126z" />
    <glyph glyph-name="egrave.smcp" unicode="&#xe23e;" horiz-adv-x="403" 
d="M-22 0l105 596h360l-28 -157h-188l-12 -63h189l-27 -156h-189l-11 -62h189l-28 -158h-360zM228 630l-123 177h162l80 -177h-119z" />
    <glyph glyph-name="egrave.smcp" unicode="&#xf7e8;" horiz-adv-x="403" 
d="M-22 0l105 596h360l-28 -157h-188l-12 -63h189l-27 -156h-189l-11 -62h189l-28 -158h-360zM228 630l-123 177h162l80 -177h-119z" />
    <glyph glyph-name="ecircumflex.smcp" unicode="&#xe23f;" horiz-adv-x="403" 
d="M-22 0l105 596h360l-28 -157h-188l-12 -63h189l-27 -156h-189l-11 -62h189l-28 -158h-360zM98 630l150 177h103l87 -177h-120l-33 76l-61 -76h-126z" />
    <glyph glyph-name="ecircumflex.smcp" unicode="&#xf7ea;" horiz-adv-x="403" 
d="M-22 0l105 596h360l-28 -157h-188l-12 -63h189l-27 -156h-189l-11 -62h189l-28 -158h-360zM98 630l150 177h103l87 -177h-120l-33 76l-61 -76h-126z" />
    <glyph glyph-name="gcommaaccent.smcp" unicode="&#xe240;" horiz-adv-x="637" 
d="M307 -8q-145 0 -224.5 99t-55.5 236q20 118 114.5 197.5t216.5 79.5q176 0 261 -146l-173 -76q-28 60 -101 60q-58 0 -98 -36.5t-51 -93.5q-12 -64 23 -111t102 -47q70 0 108 61h-153l26 145h339l-16 -92q-21 -121 -107 -198.5t-211 -77.5zM149 -265l82 223h164
l-121 -223h-125z" />
    <glyph glyph-name="gcommaaccent.smcp" unicode="&#xf64c;" horiz-adv-x="637" 
d="M307 -8q-145 0 -224.5 99t-55.5 236q20 118 114.5 197.5t216.5 79.5q176 0 261 -146l-173 -76q-28 60 -101 60q-58 0 -98 -36.5t-51 -93.5q-12 -64 23 -111t102 -47q70 0 108 61h-153l26 145h339l-16 -92q-21 -121 -107 -198.5t-211 -77.5zM149 -265l82 223h164
l-121 -223h-125z" />
    <glyph glyph-name="ecaron.smcp" unicode="&#xe241;" horiz-adv-x="403" 
d="M-22 0l105 596h360l-28 -157h-188l-12 -63h189l-27 -156h-189l-11 -62h189l-28 -158h-360zM217 630l-87 177h121l34 -76l60 76h125l-150 -177h-103z" />
    <glyph glyph-name="ecaron.smcp" unicode="&#xf647;" horiz-adv-x="403" 
d="M-22 0l105 596h360l-28 -157h-188l-12 -63h189l-27 -156h-189l-11 -62h189l-28 -158h-360zM217 630l-87 177h121l34 -76l60 76h125l-150 -177h-103z" />
    <glyph glyph-name="emacron.smcp" unicode="&#xe242;" horiz-adv-x="403" 
d="M-22 0l105 596h360l-28 -157h-188l-12 -63h189l-27 -156h-189l-11 -62h189l-28 -158h-360zM138 630l21 113h264l-21 -113h-264z" />
    <glyph glyph-name="emacron.smcp" unicode="&#xf649;" horiz-adv-x="403" 
d="M-22 0l105 596h360l-28 -157h-188l-12 -63h189l-27 -156h-189l-11 -62h189l-28 -158h-360zM138 630l21 113h264l-21 -113h-264z" />
    <glyph glyph-name="ebreve.smcp" unicode="&#xe243;" horiz-adv-x="403" 
d="M-22 0l105 596h360l-28 -157h-188l-12 -63h189l-27 -156h-189l-11 -62h189l-28 -158h-360zM271 624q-82 0 -118 49t-21 129h107q-14 -74 44 -76q56 2 70 76h107q-15 -82 -63 -130t-126 -48z" />
    <glyph glyph-name="ebreve.smcp" unicode="&#xf62a;" horiz-adv-x="403" 
d="M-22 0l105 596h360l-28 -157h-188l-12 -63h189l-27 -156h-189l-11 -62h189l-28 -158h-360zM271 624q-82 0 -118 49t-21 129h107q-14 -74 44 -76q56 2 70 76h107q-15 -82 -63 -130t-126 -48z" />
    <glyph glyph-name="edotaccent.smcp" unicode="&#xe246;" horiz-adv-x="403" 
d="M-22 0l105 596h360l-28 -157h-188l-12 -63h189l-27 -156h-189l-11 -62h189l-28 -158h-360zM182 630l31 175h172l-31 -175h-172z" />
    <glyph glyph-name="edotaccent.smcp" unicode="&#xf648;" horiz-adv-x="403" 
d="M-22 0l105 596h360l-28 -157h-188l-12 -63h189l-27 -156h-189l-11 -62h189l-28 -158h-360zM182 630l31 175h172l-31 -175h-172z" />
    <glyph glyph-name="eogonek.smcp" unicode="&#xe249;" horiz-adv-x="403" 
d="M-22 0l105 596h360l-28 -157h-188l-12 -63h189l-27 -156h-189l-11 -62h189l-28 -158h-1q-103 -58 -132.5 -78t-32.5 -36q-1 -11 6.5 -17t20.5 -6q23 0 52 29l95 -63q-72 -67 -157 -67q-76 0 -114.5 36.5t-28.5 89.5q9 61 90 112h-158z" />
    <glyph glyph-name="eogonek.smcp" unicode="&#xf64a;" horiz-adv-x="403" 
d="M-22 0l105 596h360l-28 -157h-188l-12 -63h189l-27 -156h-189l-11 -62h189l-28 -158h-1q-103 -58 -132.5 -78t-32.5 -36q-1 -11 6.5 -17t20.5 -6q23 0 52 29l95 -63q-72 -67 -157 -67q-76 0 -114.5 36.5t-28.5 89.5q9 61 90 112h-158z" />
    <glyph glyph-name="gcircumflex.smcp" unicode="&#xe24b;" horiz-adv-x="637" 
d="M307 -8q-145 0 -224.5 99t-55.5 236q20 118 114.5 197.5t216.5 79.5q176 0 261 -146l-173 -76q-28 60 -101 60q-58 0 -98 -36.5t-51 -93.5q-12 -64 23 -111t102 -47q70 0 108 61h-153l26 145h339l-16 -92q-21 -121 -107 -198.5t-211 -77.5zM190 632l150 177h103l87 -177
h-120l-33 76l-61 -76h-126z" />
    <glyph glyph-name="gcircumflex.smcp" unicode="&#xf62c;" horiz-adv-x="637" 
d="M307 -8q-145 0 -224.5 99t-55.5 236q20 118 114.5 197.5t216.5 79.5q176 0 261 -146l-173 -76q-28 60 -101 60q-58 0 -98 -36.5t-51 -93.5q-12 -64 23 -111t102 -47q70 0 108 61h-153l26 145h339l-16 -92q-21 -121 -107 -198.5t-211 -77.5zM190 632l150 177h103l87 -177
h-120l-33 76l-61 -76h-126z" />
    <glyph glyph-name="gbreve.smcp" unicode="&#xe24e;" horiz-adv-x="637" 
d="M307 -8q-145 0 -224.5 99t-55.5 236q20 118 114.5 197.5t216.5 79.5q176 0 261 -146l-173 -76q-28 60 -101 60q-58 0 -98 -36.5t-51 -93.5q-12 -64 23 -111t102 -47q70 0 108 61h-153l26 145h339l-16 -92q-21 -121 -107 -198.5t-211 -77.5zM375 630q-82 0 -118 49
t-21 129h107q-14 -74 44 -76q56 2 70 76h107q-15 -82 -63 -130t-126 -48z" />
    <glyph glyph-name="gbreve.smcp" unicode="&#xf64b;" horiz-adv-x="637" 
d="M307 -8q-145 0 -224.5 99t-55.5 236q20 118 114.5 197.5t216.5 79.5q176 0 261 -146l-173 -76q-28 60 -101 60q-58 0 -98 -36.5t-51 -93.5q-12 -64 23 -111t102 -47q70 0 108 61h-153l26 145h339l-16 -92q-21 -121 -107 -198.5t-211 -77.5zM375 630q-82 0 -118 49
t-21 129h107q-14 -74 44 -76q56 2 70 76h107q-15 -82 -63 -130t-126 -48z" />
    <glyph glyph-name="gdotaccent.smcp" unicode="&#xe24f;" horiz-adv-x="637" 
d="M307 -8q-145 0 -224.5 99t-55.5 236q20 118 114.5 197.5t216.5 79.5q176 0 261 -146l-173 -76q-28 60 -101 60q-58 0 -98 -36.5t-51 -93.5q-12 -64 23 -111t102 -47q70 0 108 61h-153l26 145h339l-16 -92q-21 -121 -107 -198.5t-211 -77.5zM280 633l31 175h172l-31 -175
h-172z" />
    <glyph glyph-name="gdotaccent.smcp" unicode="&#xf62d;" horiz-adv-x="637" 
d="M307 -8q-145 0 -224.5 99t-55.5 236q20 118 114.5 197.5t216.5 79.5q176 0 261 -146l-173 -76q-28 60 -101 60q-58 0 -98 -36.5t-51 -93.5q-12 -64 23 -111t102 -47q70 0 108 61h-153l26 145h339l-16 -92q-21 -121 -107 -198.5t-211 -77.5zM280 633l31 175h172l-31 -175
h-172z" />
    <glyph glyph-name="hcircumflex.smcp" unicode="&#xe253;" horiz-adv-x="501" 
d="M-22 0l105 596h172l-37 -208h113l37 208h171l-105 -596h-171l37 213h-113l-37 -213h-172zM142 630l150 177h103l87 -177h-120l-33 76l-61 -76h-126z" />
    <glyph glyph-name="hcircumflex.smcp" unicode="&#xf62f;" horiz-adv-x="501" 
d="M-22 0l105 596h172l-37 -208h113l37 208h171l-105 -596h-171l37 213h-113l-37 -213h-172zM142 630l150 177h103l87 -177h-120l-33 76l-61 -76h-126z" />
    <glyph glyph-name="hbar.smcp" unicode="&#xe257;" horiz-adv-x="541" 
d="M43 443l18 100h32l10 53h172l-10 -53h113l10 53h171l-10 -53h33l-19 -100h-31l-78 -443h-171l37 213h-113l-37 -213h-172l78 443h-33zM248 443l-10 -55h113l10 55h-113z" />
    <glyph glyph-name="hbar.smcp" unicode="&#xf62e;" horiz-adv-x="541" 
d="M43 443l18 100h32l10 53h172l-10 -53h113l10 53h171l-10 -53h33l-19 -100h-31l-78 -443h-171l37 213h-113l-37 -213h-172l78 443h-33zM248 443l-10 -55h113l10 55h-113z" />
    <glyph glyph-name="iacute.smcp" unicode="&#xe258;" horiz-adv-x="221" 
d="M115 630l143 177h170l-187 -177h-126zM-19 0l105 596h171l-105 -596h-171z" />
    <glyph glyph-name="iacute.smcp" unicode="&#xf7ed;" horiz-adv-x="221" 
d="M115 630l143 177h170l-187 -177h-126zM-19 0l105 596h171l-105 -596h-171z" />
    <glyph glyph-name="igrave.smcp" unicode="&#xe259;" horiz-adv-x="221" 
d="M117 630l-123 177h162l80 -177h-119zM-19 0l105 596h171l-105 -596h-171z" />
    <glyph glyph-name="igrave.smcp" unicode="&#xf7ec;" horiz-adv-x="221" 
d="M117 630l-123 177h162l80 -177h-119zM-19 0l105 596h171l-105 -596h-171z" />
    <glyph glyph-name="icircumflex.smcp" unicode="&#xe25a;" horiz-adv-x="221" 
d="M-19 0l105 596h171l-105 -596h-171zM2 630l150 177h103l87 -177h-120l-33 76l-61 -76h-126z" />
    <glyph glyph-name="icircumflex.smcp" unicode="&#xf7ee;" horiz-adv-x="221" 
d="M-19 0l105 596h171l-105 -596h-171zM2 630l150 177h103l87 -177h-120l-33 76l-61 -76h-126z" />
    <glyph glyph-name="idieresis.smcp" unicode="&#xe25b;" horiz-adv-x="221" 
d="M197 630l29 168h167l-30 -168h-166zM-5 630l30 168h166l-29 -168h-167zM-19 0l105 596h171l-105 -596h-171z" />
    <glyph glyph-name="idieresis.smcp" unicode="&#xf7ef;" horiz-adv-x="221" 
d="M197 630l29 168h167l-30 -168h-166zM-5 630l30 168h166l-29 -168h-167zM-19 0l105 596h171l-105 -596h-171z" />
    <glyph glyph-name="itilde.smcp" unicode="&#xe25c;" horiz-adv-x="221" 
d="M-19 0l105 596h171l-105 -596h-171zM13 630q11 69 47.5 110t87.5 41q38 0 76 -23q30 -22 41 -22q21 0 25 42h95q-11 -71 -46 -111.5t-88 -40.5q-39 0 -78 26q-28 18 -40 18q-22 0 -26 -40h-94z" />
    <glyph glyph-name="itilde.smcp" unicode="&#xf632;" horiz-adv-x="221" 
d="M-19 0l105 596h171l-105 -596h-171zM13 630q11 69 47.5 110t87.5 41q38 0 76 -23q30 -22 41 -22q21 0 25 42h95q-11 -71 -46 -111.5t-88 -40.5q-39 0 -78 26q-28 18 -40 18q-22 0 -26 -40h-94z" />
    <glyph glyph-name="imacron.smcp" unicode="&#xe25e;" horiz-adv-x="221" 
d="M47 630l21 113h264l-21 -113h-264zM-19 0l105 596h171l-105 -596h-171z" />
    <glyph glyph-name="imacron.smcp" unicode="&#xf64d;" horiz-adv-x="221" 
d="M47 630l21 113h264l-21 -113h-264zM-19 0l105 596h171l-105 -596h-171z" />
    <glyph glyph-name="ibreve.smcp" unicode="&#xe25f;" horiz-adv-x="221" 
d="M-19 0l105 596h171l-105 -596h-171zM184 625q-82 0 -118 49t-21 129h107q-14 -74 44 -76q56 2 70 76h107q-15 -82 -63 -130t-126 -48z" />
    <glyph glyph-name="ibreve.smcp" unicode="&#xf630;" horiz-adv-x="221" 
d="M-19 0l105 596h171l-105 -596h-171zM184 625q-82 0 -118 49t-21 129h107q-14 -74 44 -76q56 2 70 76h107q-15 -82 -63 -130t-126 -48z" />
    <glyph glyph-name="idotaccent.smcp" unicode="&#xe262;" horiz-adv-x="221" 
d="M-19 0l105 596h171l-105 -596h-171zM92 630l31 175h172l-31 -175h-172z" />
    <glyph glyph-name="idotaccent.smcp" unicode="&#xf666;" horiz-adv-x="221" 
d="M-19 0l105 596h171l-105 -596h-171zM92 630l31 175h172l-31 -175h-172z" />
    <glyph glyph-name="iogonek.smcp" unicode="&#xe264;" horiz-adv-x="221" 
d="M4 -238q-76 0 -114.5 36.5t-28.5 89.5q6 36 33.5 66t90.5 65l101 577h171l-105 -596q-103 -58 -132.5 -78t-32.5 -36q-1 -11 6.5 -17t20.5 -6q23 0 52 29l95 -63q-72 -67 -157 -67z" />
    <glyph glyph-name="iogonek.smcp" unicode="&#xf64e;" horiz-adv-x="221" 
d="M4 -238q-76 0 -114.5 36.5t-28.5 89.5q6 36 33.5 66t90.5 65l101 577h171l-105 -596q-103 -58 -132.5 -78t-32.5 -36q-1 -11 6.5 -17t20.5 -6q23 0 52 29l95 -63q-72 -67 -157 -67z" />
    <glyph glyph-name="jcircumflex.smcp" unicode="&#xe265;" horiz-adv-x="438" 
d="M198 -8q-165 0 -214 160l166 56q8 -55 43 -55q33 0 43 45l69 398h172l-75 -425q-15 -83 -66.5 -131t-137.5 -48zM222 630l150 177h103l87 -177h-120l-33 76l-61 -76h-126z" />
    <glyph glyph-name="jcircumflex.smcp" unicode="&#xf633;" horiz-adv-x="438" 
d="M198 -8q-165 0 -214 160l166 56q8 -55 43 -55q33 0 43 45l69 398h172l-75 -425q-15 -83 -66.5 -131t-137.5 -48zM222 630l150 177h103l87 -177h-120l-33 76l-61 -76h-126z" />
    <glyph glyph-name="kcommaaccent.smcp" unicode="&#xe268;" horiz-adv-x="527" 
d="M299 0l-72 227l-47 -54l-30 -173h-172l105 596h172l-30 -169l147 169h212l-220 -247l118 -349h-183zM68 -255l82 223h164l-121 -223h-125z" />
    <glyph glyph-name="kcommaaccent.smcp" unicode="&#xf64f;" horiz-adv-x="527" 
d="M299 0l-72 227l-47 -54l-30 -173h-172l105 596h172l-30 -169l147 169h212l-220 -247l118 -349h-183zM68 -255l82 223h164l-121 -223h-125z" />
    <glyph glyph-name="lacute.smcp" unicode="&#xe26b;" horiz-adv-x="369" 
d="M-22 0l105 596h172l-76 -430h157l-29 -166h-329zM108 630l143 177h170l-187 -177h-126z" />
    <glyph glyph-name="lacute.smcp" unicode="&#xf650;" horiz-adv-x="369" 
d="M-22 0l105 596h172l-76 -430h157l-29 -166h-329zM108 630l143 177h170l-187 -177h-126z" />
    <glyph glyph-name="lcaron.smcp" unicode="&#xe26c;" horiz-adv-x="369" 
d="M-22 0l105 596h172l-76 -430h157l-29 -166h-329zM263 418l67 178h145l-107 -178h-105z" />
    <glyph glyph-name="lcaron.smcp" unicode="&#xf651;" horiz-adv-x="369" 
d="M-22 0l105 596h172l-76 -430h157l-29 -166h-329zM263 418l67 178h145l-107 -178h-105z" />
    <glyph glyph-name="lcommaaccent.smcp" unicode="&#xe26d;" horiz-adv-x="369" 
d="M-22 0l105 596h172l-76 -430h157l-29 -166h-329zM-21 -255l82 223h164l-121 -223h-125z" />
    <glyph glyph-name="lcommaaccent.smcp" unicode="&#xf652;" horiz-adv-x="369" 
d="M-22 0l105 596h172l-76 -430h157l-29 -166h-329zM-21 -255l82 223h164l-121 -223h-125z" />
    <glyph glyph-name="ldot.smcp" unicode="&#xe271;" horiz-adv-x="427" 
d="M-22 0l105 596h172l-76 -430h213l-29 -166h-385zM231 246l31 175h172l-31 -175h-172z" />
    <glyph glyph-name="ldot.smcp" unicode="&#xf634;" horiz-adv-x="427" 
d="M-22 0l105 596h172l-76 -430h213l-29 -166h-385zM231 246l31 175h172l-31 -175h-172z" />
    <glyph glyph-name="lslash.smcp" unicode="&#xe272;" horiz-adv-x="402" 
d="M8 240l22 127l48 13l38 216h172l-30 -168l104 28l-22 -128l-104 -28l-24 -134h157l-29 -166h-329l44 252z" />
    <glyph glyph-name="lslash.smcp" unicode="&#xf6f9;" horiz-adv-x="402" 
d="M8 240l22 127l48 13l38 216h172l-30 -168l104 28l-22 -128l-104 -28l-24 -134h157l-29 -166h-329l44 252z" />
    <glyph glyph-name="nacute.smcp" unicode="&#xe276;" horiz-adv-x="556" 
d="M-22 0l107 596h174l113 -277l50 277h171l-104 -596h-162l-124 301l-53 -301h-172zM277 625l143 177h170l-187 -177h-126z" />
    <glyph glyph-name="nacute.smcp" unicode="&#xf653;" horiz-adv-x="556" 
d="M-22 0l107 596h174l113 -277l50 277h171l-104 -596h-162l-124 301l-53 -301h-172zM277 625l143 177h170l-187 -177h-126z" />
    <glyph glyph-name="ntilde.smcp" unicode="&#xe279;" horiz-adv-x="556" 
d="M-22 0l107 596h174l113 -277l50 277h171l-104 -596h-162l-124 301l-53 -301h-172zM175 630q11 69 47.5 110t87.5 41q38 0 76 -23q30 -22 41 -22q21 0 25 42h95q-11 -71 -46 -111.5t-88 -40.5q-39 0 -78 26q-28 18 -40 18q-22 0 -26 -40h-94z" />
    <glyph glyph-name="ncaron.smcp" unicode="&#xe27a;" horiz-adv-x="556" 
d="M-22 0l107 596h174l113 -277l50 277h171l-104 -596h-162l-124 301l-53 -301h-172zM287 625l-87 177h121l34 -76l60 76h125l-150 -177h-103z" />
    <glyph glyph-name="ncaron.smcp" unicode="&#xf654;" horiz-adv-x="556" 
d="M-22 0l107 596h174l113 -277l50 277h171l-104 -596h-162l-124 301l-53 -301h-172zM287 625l-87 177h121l34 -76l60 76h125l-150 -177h-103z" />
    <glyph glyph-name="ncommaaccent.smcp" unicode="&#xe27d;" horiz-adv-x="556" 
d="M-22 0l107 596h174l113 -277l50 277h171l-104 -596h-162l-124 301l-53 -301h-172zM85 -252l82 223h164l-121 -223h-125z" />
    <glyph glyph-name="ncommaaccent.smcp" unicode="&#xf655;" horiz-adv-x="556" 
d="M-22 0l107 596h174l113 -277l50 277h171l-104 -596h-162l-124 301l-53 -301h-172zM85 -252l82 223h164l-121 -223h-125z" />
    <glyph glyph-name="oacute.smcp" unicode="&#xe281;" horiz-adv-x="648" 
d="M307 -8q-140 0 -222 100t-58 235q20 118 114.5 197.5t216.5 79.5q138 0 220.5 -100t59.5 -235q-21 -120 -113 -198.5t-218 -78.5zM321 163q54 0 92.5 34.5t48.5 87.5q10 60 -24 104.5t-95 44.5q-54 0 -92.5 -35t-48.5 -88q-11 -60 23 -104t96 -44zM303 633l143 177h170
l-187 -177h-126z" />
    <glyph glyph-name="oacute.smcp" unicode="&#xf7f3;" horiz-adv-x="648" 
d="M307 -8q-140 0 -222 100t-58 235q20 118 114.5 197.5t216.5 79.5q138 0 220.5 -100t59.5 -235q-21 -120 -113 -198.5t-218 -78.5zM321 163q54 0 92.5 34.5t48.5 87.5q10 60 -24 104.5t-95 44.5q-54 0 -92.5 -35t-48.5 -88q-11 -60 23 -104t96 -44zM303 633l143 177h170
l-187 -177h-126z" />
    <glyph glyph-name="ograve.smcp" unicode="&#xe282;" horiz-adv-x="648" 
d="M307 -8q-140 0 -222 100t-58 235q20 118 114.5 197.5t216.5 79.5q138 0 220.5 -100t59.5 -235q-21 -120 -113 -198.5t-218 -78.5zM321 163q54 0 92.5 34.5t48.5 87.5q10 60 -24 104.5t-95 44.5q-54 0 -92.5 -35t-48.5 -88q-11 -60 23 -104t96 -44zM309 633l-123 177h162
l80 -177h-119z" />
    <glyph glyph-name="ograve.smcp" unicode="&#xf7f2;" horiz-adv-x="648" 
d="M307 -8q-140 0 -222 100t-58 235q20 118 114.5 197.5t216.5 79.5q138 0 220.5 -100t59.5 -235q-21 -120 -113 -198.5t-218 -78.5zM321 163q54 0 92.5 34.5t48.5 87.5q10 60 -24 104.5t-95 44.5q-54 0 -92.5 -35t-48.5 -88q-11 -60 23 -104t96 -44zM309 633l-123 177h162
l80 -177h-119z" />
    <glyph glyph-name="ocircumflex.smcp" unicode="&#xe283;" horiz-adv-x="648" 
d="M307 -8q-140 0 -222 100t-58 235q20 118 114.5 197.5t216.5 79.5q138 0 220.5 -100t59.5 -235q-21 -120 -113 -198.5t-218 -78.5zM321 163q54 0 92.5 34.5t48.5 87.5q10 60 -24 104.5t-95 44.5q-54 0 -92.5 -35t-48.5 -88q-11 -60 23 -104t96 -44zM198 632l150 177h103
l87 -177h-120l-33 76l-61 -76h-126z" />
    <glyph glyph-name="ocircumflex.smcp" unicode="&#xf7f4;" horiz-adv-x="648" 
d="M307 -8q-140 0 -222 100t-58 235q20 118 114.5 197.5t216.5 79.5q138 0 220.5 -100t59.5 -235q-21 -120 -113 -198.5t-218 -78.5zM321 163q54 0 92.5 34.5t48.5 87.5q10 60 -24 104.5t-95 44.5q-54 0 -92.5 -35t-48.5 -88q-11 -60 23 -104t96 -44zM198 632l150 177h103
l87 -177h-120l-33 76l-61 -76h-126z" />
    <glyph glyph-name="odieresis.smcp" unicode="&#xe284;" horiz-adv-x="648" 
d="M307 -8q-140 0 -222 100t-58 235q20 118 114.5 197.5t216.5 79.5q138 0 220.5 -100t59.5 -235q-21 -120 -113 -198.5t-218 -78.5zM321 163q54 0 92.5 34.5t48.5 87.5q10 60 -24 104.5t-95 44.5q-54 0 -92.5 -35t-48.5 -88q-11 -60 23 -104t96 -44zM393 633l29 168h167
l-30 -168h-166zM191 633l30 168h166l-29 -168h-167z" />
    <glyph glyph-name="odieresis.smcp" unicode="&#xf7f6;" horiz-adv-x="648" 
d="M307 -8q-140 0 -222 100t-58 235q20 118 114.5 197.5t216.5 79.5q138 0 220.5 -100t59.5 -235q-21 -120 -113 -198.5t-218 -78.5zM321 163q54 0 92.5 34.5t48.5 87.5q10 60 -24 104.5t-95 44.5q-54 0 -92.5 -35t-48.5 -88q-11 -60 23 -104t96 -44zM393 633l29 168h167
l-30 -168h-166zM191 633l30 168h166l-29 -168h-167z" />
    <glyph glyph-name="otilde.smcp" unicode="&#xe285;" horiz-adv-x="648" 
d="M307 -8q-140 0 -222 100t-58 235q20 118 114.5 197.5t216.5 79.5q138 0 220.5 -100t59.5 -235q-21 -120 -113 -198.5t-218 -78.5zM321 163q54 0 92.5 34.5t48.5 87.5q10 60 -24 104.5t-95 44.5q-54 0 -92.5 -35t-48.5 -88q-11 -60 23 -104t96 -44zM205 633
q11 69 47.5 110t87.5 41q38 0 76 -23q30 -22 41 -22q21 0 25 42h95q-11 -71 -46 -111.5t-88 -40.5q-39 0 -78 26q-28 18 -40 18q-22 0 -26 -40h-94z" />
    <glyph glyph-name="otilde.smcp" unicode="&#xf7f5;" horiz-adv-x="648" 
d="M307 -8q-140 0 -222 100t-58 235q20 118 114.5 197.5t216.5 79.5q138 0 220.5 -100t59.5 -235q-21 -120 -113 -198.5t-218 -78.5zM321 163q54 0 92.5 34.5t48.5 87.5q10 60 -24 104.5t-95 44.5q-54 0 -92.5 -35t-48.5 -88q-11 -60 23 -104t96 -44zM205 633
q11 69 47.5 110t87.5 41q38 0 76 -23q30 -22 41 -22q21 0 25 42h95q-11 -71 -46 -111.5t-88 -40.5q-39 0 -78 26q-28 18 -40 18q-22 0 -26 -40h-94z" />
    <glyph glyph-name="omacron.smcp" unicode="&#xe287;" horiz-adv-x="648" 
d="M307 -8q-140 0 -222 100t-58 235q20 118 114.5 197.5t216.5 79.5q138 0 220.5 -100t59.5 -235q-21 -120 -113 -198.5t-218 -78.5zM321 163q54 0 92.5 34.5t48.5 87.5q10 60 -24 104.5t-95 44.5q-54 0 -92.5 -35t-48.5 -88q-11 -60 23 -104t96 -44zM241 633l21 113h264
l-21 -113h-264z" />
    <glyph glyph-name="omacron.smcp" unicode="&#xf657;" horiz-adv-x="648" 
d="M307 -8q-140 0 -222 100t-58 235q20 118 114.5 197.5t216.5 79.5q138 0 220.5 -100t59.5 -235q-21 -120 -113 -198.5t-218 -78.5zM321 163q54 0 92.5 34.5t48.5 87.5q10 60 -24 104.5t-95 44.5q-54 0 -92.5 -35t-48.5 -88q-11 -60 23 -104t96 -44zM241 633l21 113h264
l-21 -113h-264z" />
    <glyph glyph-name="obreve.smcp" unicode="&#xe288;" horiz-adv-x="648" 
d="M307 -8q-140 0 -222 100t-58 235q20 118 114.5 197.5t216.5 79.5q138 0 220.5 -100t59.5 -235q-21 -120 -113 -198.5t-218 -78.5zM321 163q54 0 92.5 34.5t48.5 87.5q10 60 -24 104.5t-95 44.5q-54 0 -92.5 -35t-48.5 -88q-11 -60 23 -104t96 -44zM377 631q-82 0 -118 49
t-21 129h107q-14 -74 44 -76q56 2 70 76h107q-15 -82 -63 -130t-126 -48z" />
    <glyph glyph-name="obreve.smcp" unicode="&#xf635;" horiz-adv-x="648" 
d="M307 -8q-140 0 -222 100t-58 235q20 118 114.5 197.5t216.5 79.5q138 0 220.5 -100t59.5 -235q-21 -120 -113 -198.5t-218 -78.5zM321 163q54 0 92.5 34.5t48.5 87.5q10 60 -24 104.5t-95 44.5q-54 0 -92.5 -35t-48.5 -88q-11 -60 23 -104t96 -44zM377 631q-82 0 -118 49
t-21 129h107q-14 -74 44 -76q56 2 70 76h107q-15 -82 -63 -130t-126 -48z" />
    <glyph glyph-name="ohungarumlaut.smcp" unicode="&#xe28a;" horiz-adv-x="648" 
d="M307 -8q-140 0 -222 100t-58 235q20 118 114.5 197.5t216.5 79.5q138 0 220.5 -100t59.5 -235q-21 -120 -113 -198.5t-218 -78.5zM321 163q54 0 92.5 34.5t48.5 87.5q10 60 -24 104.5t-95 44.5q-54 0 -92.5 -35t-48.5 -88q-11 -60 23 -104t96 -44zM224 632l117 177h145
l-161 -177h-101zM401 632l117 177h145l-161 -177h-101z" />
    <glyph glyph-name="ohungarumlaut.smcp" unicode="&#xf656;" horiz-adv-x="648" 
d="M307 -8q-140 0 -222 100t-58 235q20 118 114.5 197.5t216.5 79.5q138 0 220.5 -100t59.5 -235q-21 -120 -113 -198.5t-218 -78.5zM321 163q54 0 92.5 34.5t48.5 87.5q10 60 -24 104.5t-95 44.5q-54 0 -92.5 -35t-48.5 -88q-11 -60 23 -104t96 -44zM224 632l117 177h145
l-161 -177h-101zM401 632l117 177h145l-161 -177h-101z" />
    <glyph glyph-name="oslash.smcp" unicode="&#xe295;" horiz-adv-x="647" 
d="M307 -8q-79 0 -144 35l-25 -27h-164l99 108q-68 97 -46 219q20 118 114.5 197.5t216.5 79.5q76 0 140 -35l25 27h168l-101 -109q68 -96 47 -218q-21 -121 -111.5 -199t-218.5 -78zM196 312q-6 -38 4 -67l174 189q-13 4 -32 4q-56 0 -95.5 -35.5t-50.5 -90.5zM320 158
q57 0 96.5 35t49.5 90q6 35 -3 67l-175 -189q15 -3 32 -3z" />
    <glyph glyph-name="oslash.smcp" unicode="&#xf7f8;" horiz-adv-x="647" 
d="M307 -8q-79 0 -144 35l-25 -27h-164l99 108q-68 97 -46 219q20 118 114.5 197.5t216.5 79.5q76 0 140 -35l25 27h168l-101 -109q68 -96 47 -218q-21 -121 -111.5 -199t-218.5 -78zM196 312q-6 -38 4 -67l174 189q-13 4 -32 4q-56 0 -95.5 -35.5t-50.5 -90.5zM320 158
q57 0 96.5 35t49.5 90q6 35 -3 67l-175 -189q15 -3 32 -3z" />
    <glyph glyph-name="oslashacute.smcp" unicode="&#xe296;" horiz-adv-x="647" 
d="M307 -8q-79 0 -144 35l-25 -27h-164l99 108q-68 97 -46 219q20 118 114.5 197.5t216.5 79.5q76 0 140 -35l25 27h168l-101 -109q68 -96 47 -218q-21 -121 -111.5 -199t-218.5 -78zM303 633l143 177h170l-187 -177h-126zM196 312q-6 -38 4 -67l174 189q-13 4 -32 4
q-56 0 -95.5 -35.5t-50.5 -90.5zM320 158q57 0 96.5 35t49.5 90q6 35 -3 67l-175 -189q15 -3 32 -3z" />
    <glyph glyph-name="oslashacute.smcp" unicode="&#xf627;" horiz-adv-x="647" 
d="M307 -8q-79 0 -144 35l-25 -27h-164l99 108q-68 97 -46 219q20 118 114.5 197.5t216.5 79.5q76 0 140 -35l25 27h168l-101 -109q68 -96 47 -218q-21 -121 -111.5 -199t-218.5 -78zM303 633l143 177h170l-187 -177h-126zM196 312q-6 -38 4 -67l174 189q-13 4 -32 4
q-56 0 -95.5 -35.5t-50.5 -90.5zM320 158q57 0 96.5 35t49.5 90q6 35 -3 67l-175 -189q15 -3 32 -3z" />
    <glyph glyph-name="oe.smcp" unicode="&#xe298;" horiz-adv-x="838" 
d="M412 0l5 29q-51 -37 -115 -37q-92 0 -161 46.5t-99 123.5t-15 165q20 118 114.5 197.5t216.5 79.5q100 0 151 -53l8 45h359l-27 -157h-188l-12 -63h189l-28 -156h-188l-11 -62h188l-28 -158h-359zM321 163q54 0 92.5 34.5t48.5 87.5q10 60 -24 104.5t-95 44.5
q-54 0 -92.5 -35t-48.5 -88q-11 -60 23 -104t96 -44z" />
    <glyph glyph-name="oe.smcp" unicode="&#xf6fa;" horiz-adv-x="838" 
d="M412 0l5 29q-51 -37 -115 -37q-92 0 -161 46.5t-99 123.5t-15 165q20 118 114.5 197.5t216.5 79.5q100 0 151 -53l8 45h359l-27 -157h-188l-12 -63h189l-28 -156h-188l-11 -62h188l-28 -158h-359zM321 163q54 0 92.5 34.5t48.5 87.5q10 60 -24 104.5t-95 44.5
q-54 0 -92.5 -35t-48.5 -88q-11 -60 23 -104t96 -44z" />
    <glyph glyph-name="racute.smcp" unicode="&#xe29a;" horiz-adv-x="498" 
d="M-22 0l105 596h205q115 0 175 -64.5t43 -163.5q-22 -120 -142 -158q24 -51 93 -51h10l-28 -159h-15q-105 0 -163.5 55.5t-74.5 151.5l-36 -207h-172zM229 630l143 177h170l-187 -177h-126zM264 444h-36l-19 -108h37q74 0 84 52q5 26 -11.5 41t-54.5 15z" />
    <glyph glyph-name="racute.smcp" unicode="&#xf658;" horiz-adv-x="498" 
d="M-22 0l105 596h205q115 0 175 -64.5t43 -163.5q-22 -120 -142 -158q24 -51 93 -51h10l-28 -159h-15q-105 0 -163.5 55.5t-74.5 151.5l-36 -207h-172zM229 630l143 177h170l-187 -177h-126zM264 444h-36l-19 -108h37q74 0 84 52q5 26 -11.5 41t-54.5 15z" />
    <glyph glyph-name="rcaron.smcp" unicode="&#xe29b;" horiz-adv-x="498" 
d="M-22 0l105 596h205q115 0 175 -64.5t43 -163.5q-22 -120 -142 -158q24 -51 93 -51h10l-28 -159h-15q-105 0 -163.5 55.5t-74.5 151.5l-36 -207h-172zM259 630l-87 177h121l34 -76l60 76h125l-150 -177h-103zM264 444h-36l-19 -108h37q74 0 84 52q5 26 -11.5 41t-54.5 15z
" />
    <glyph glyph-name="rcaron.smcp" unicode="&#xf659;" horiz-adv-x="498" 
d="M-22 0l105 596h205q115 0 175 -64.5t43 -163.5q-22 -120 -142 -158q24 -51 93 -51h10l-28 -159h-15q-105 0 -163.5 55.5t-74.5 151.5l-36 -207h-172zM259 630l-87 177h121l34 -76l60 76h125l-150 -177h-103zM264 444h-36l-19 -108h37q74 0 84 52q5 26 -11.5 41t-54.5 15z
" />
    <glyph glyph-name="rcommaaccent.smcp" unicode="&#xe29e;" horiz-adv-x="498" 
d="M-22 0l105 596h205q115 0 175 -64.5t43 -163.5q-22 -120 -142 -158q24 -51 93 -51h10l-28 -159h-15q-105 0 -163.5 55.5t-74.5 151.5l-36 -207h-172zM65 -252l82 223h164l-121 -223h-125zM264 444h-36l-19 -108h37q74 0 84 52q5 26 -11.5 41t-54.5 15z" />
    <glyph glyph-name="rcommaaccent.smcp" unicode="&#xf65a;" horiz-adv-x="498" 
d="M-22 0l105 596h205q115 0 175 -64.5t43 -163.5q-22 -120 -142 -158q24 -51 93 -51h10l-28 -159h-15q-105 0 -163.5 55.5t-74.5 151.5l-36 -207h-172zM65 -252l82 223h164l-121 -223h-125zM264 444h-36l-19 -108h37q74 0 84 52q5 26 -11.5 41t-54.5 15z" />
    <glyph glyph-name="A.swsh" unicode="&#xe2e0;" horiz-adv-x="1078" 
d="M856 0l-18 132h-230l-80 -151q-60 -110 -125 -155t-162 -45q-135 0 -207 89t-53 202q19 102 92 162.5t193 60.5h241l151 279h-275q-51 0 -61 -40q-5 -18 6.5 -33.5t31.5 -15.5q26 0 42 28l124 -90q-64 -90 -179 -90q-100 0 -154.5 69.5t-34.5 160.5q17 74 79.5 120.5
t156.5 46.5h524l112 -730h-174zM246 -59q41 0 70 22t60 78l49 91h-168q-46 0 -73.5 -22t-32.5 -61q-8 -44 20.5 -76t74.5 -32zM790 480l-99 -185h124z" />
    <glyph glyph-name="B.swsh" unicode="&#xe2e1;" horiz-adv-x="872" 
d="M94 -62l-135 111q87 106 218 106h127l76 429h174l-22 -121h66q83 0 99 65q10 43 -39 69.5t-168 26.5q-125 0 -186.5 -38t-70.5 -90q-10 -60 65 -92l-91 -143q-80 30 -120.5 99t-24.5 158q22 127 144.5 195t294.5 68q101 0 178 -22.5t120.5 -61t61 -86t7.5 -99.5
q-16 -84 -85 -130q87 -62 66 -183q-18 -96 -95 -147.5t-206 -51.5h-349q-36 0 -60.5 -13.5t-44.5 -48.5zM575 308h-70l-27 -153h79q107 0 121 73q6 37 -19 58.5t-84 21.5z" />
    <glyph glyph-name="C.swsh" unicode="&#xe2e2;" horiz-adv-x="758" 
d="M388 -130q-187 0 -289.5 132t-63.5 361q20 123 94 220.5t172.5 148t202.5 50.5q150 0 229.5 -86.5t54.5 -200.5q-15 -77 -74.5 -125.5t-146.5 -48.5q-133 0 -205 104l158 112q17 -48 53 -48q39 0 46 38q8 40 -25 68t-97 28q-99 0 -183.5 -80.5t-106.5 -196.5
q-28 -146 30 -228t168 -82q92 0 161 93l132 -110q-117 -149 -310 -149z" />
    <glyph glyph-name="D.swsh" unicode="&#xe2e3;" horiz-adv-x="930" 
d="M105 -62l-135 111q87 106 218 106h125l75 427h175l-75 -427h69q76 3 131.5 58t70.5 140q21 118 -56 195t-236 77q-111 0 -170.5 -38t-68.5 -93q-11 -73 70 -107l-91 -143q-81 38 -122 107.5t-26 158.5q22 131 139 201t282 70q150 0 261.5 -62.5t160 -167.5t25.5 -229
q-26 -145 -129.5 -233.5t-246.5 -88.5h-341q-36 0 -60.5 -13.5t-44.5 -48.5z" />
    <glyph glyph-name="E.swsh" unicode="&#xe2e4;" horiz-adv-x="665" 
d="M309 -163q-142 0 -215 85t-53 204q20 122 142 185q-63 50 -92 124.5t-14 161.5q22 126 126.5 202.5t240.5 76.5q137 0 213 -80t58 -187q-13 -71 -67.5 -116.5t-127.5 -45.5q-107 0 -167 86l115 104q24 -34 47 -34q33 0 40 37q5 27 -27 53.5t-90 26.5q-72 0 -124.5 -43.5
t-62.5 -107.5q-13 -74 42 -135t148 -65h1l-28 -149h-14q-76 0 -127 -31t-58 -84q-7 -46 23 -77.5t77 -31.5q78 0 139 92l139 -99q-107 -152 -284 -152z" />
    <glyph glyph-name="F.swsh" unicode="&#xe2e5;" horiz-adv-x="842" 
d="M285 -145q-118 0 -179.5 68.5t-44.5 171.5q10 58 55 110l156 -90q-28 -20 -32 -43q-4 -21 9 -36t36 -15q62 0 85 124l74 425h-84q-112 0 -127 -86q-7 -39 17 -67t67 -42l-91 -143q-84 27 -132.5 103.5t-31.5 172.5q17 105 96 163.5t196 58.5h351q35 0 50.5 15.5
t22.5 53.5l10 53h173l-17 -94q-16 -88 -67 -138.5t-153 -50.5h-105l-28 -158h262l-29 -162h-261l-26 -148q-21 -114 -84.5 -180t-167.5 -66z" />
    <glyph glyph-name="G.swsh" unicode="&#xe2e6;" horiz-adv-x="780" 
d="M366 -303q-113 0 -186 49.5t-98 125.5l184 62q24 -75 116 -75q69 0 109 47.5t51 112.5l7 41q-62 -70 -191 -70q-160 0 -253 122.5t-65 287.5q25 144 138.5 242t268.5 98q111 0 194.5 -53.5t124.5 -139.5l-170 -82q-41 110 -164 110q-86 0 -145.5 -55t-74.5 -135
q-17 -96 33.5 -164t147.5 -68q61 0 108 29t75 80h-212l29 161h393l-77 -427q-24 -134 -107.5 -216.5t-235.5 -82.5z" />
    <glyph glyph-name="H.swsh" unicode="&#xe2e7;" horiz-adv-x="989" 
d="M285 -136q-118 0 -191 80.5t-51 194.5q14 80 81 151l134 -114q-35 -27 -41 -60q-7 -37 15 -63t63 -26q48 0 74 46t43 143l63 357h-186q-20 0 -36.5 -11t-20.5 -31q-4 -18 7 -32t29 -14q20 0 37 15l91 -120q-56 -47 -141 -47q-95 0 -149 66.5t-39 154.5q13 75 75 125.5
t149 50.5h386l-50 -282h196l49 277q18 100 76 155.5t154 55.5q142 0 208 -97l-137 -100q-19 40 -61 40q-29 0 -45.5 -18.5t-21.5 -46.5l-125 -714h-175l49 283h-196l-20 -117q-25 -143 -92 -222.5t-201 -79.5z" />
    <glyph glyph-name="I.swsh" unicode="&#xe2e8;" horiz-adv-x="816" 
d="M198 238q-73 33 -113.5 105t-25.5 158q17 107 97 168t198 61h307q35 0 50 15t23 54l10 53h173l-17 -94q-17 -89 -67.5 -139t-152.5 -50h-64l-72 -406h238l-28 -163h-472q-35 0 -50.5 -15t-22.5 -54l-10 -53h-174l18 94q18 102 66.5 146.5t153.5 44.5h107l71 406h-82
q-54 0 -87 -23t-40 -64q-6 -34 14.5 -61.5t54.5 -44.5z" />
    <glyph glyph-name="J.swsh" unicode="&#xe2e9;" horiz-adv-x="622" 
d="M272 -234q-119 0 -191.5 80.5t-50.5 194.5q14 80 81 151l134 -114q-35 -27 -41 -60q-7 -38 15 -64t63 -26q47 0 73.5 45.5t43.5 144.5l80 455h-190q-20 0 -36.5 -11t-20.5 -31q-4 -18 7 -32t29 -14q20 0 37 15l91 -120q-56 -47 -141 -47q-95 0 -149 66.5t-39 154.5
q13 75 75 125.5t149 50.5h390l-116 -662q-25 -143 -92 -222.5t-201 -79.5z" />
    <glyph glyph-name="K.swsh" unicode="&#xe2ea;" horiz-adv-x="1047" 
d="M289 -136q-118 0 -191 80.5t-51 194.5q14 80 81 151l134 -114q-35 -27 -41 -60q-7 -37 15 -63t63 -26q49 0 75 46t42 143l63 357h-190q-20 0 -37 -11t-21 -31q-3 -18 8 -32t28 -14q19 0 38 15l91 -120q-56 -47 -141 -47q-96 0 -150 66.5t-39 154.5q14 75 75.5 125.5
t148.5 50.5h391l-49 -277l263 277h216l-284 -298l64 -183q20 -57 38 -71.5t72 -14.5h14l-31 -163h-44q-95 0 -135 37.5t-78 152.5l-40 121l-98 -106l-7 -39q-25 -143 -92 -222.5t-201 -79.5z" />
    <glyph glyph-name="L.swsh" unicode="&#xe2eb;" horiz-adv-x="905" 
d="M162 -174q-97 0 -148.5 61t-36.5 151q12 67 68.5 107t136.5 40q24 0 57 -7l70 403q19 112 90.5 173t182.5 61q93 0 158.5 -45t93.5 -113l-156 -88q-29 84 -107 84q-34 0 -57.5 -24.5t-31.5 -64.5l-80 -465q3 -2 20.5 -13t21.5 -13.5t19.5 -12t21 -12t19 -10t21 -10
t19 -7.5t20 -6.5t19 -3t19.5 -1.5q62 0 75 79l19 109h181l-25 -148q-18 -96 -76 -153t-160 -57q-117 0 -261 100q-65 -114 -193 -114zM163 -24q37 0 50 56q-23 10 -42 10q-38 0 -41 -30q-3 -15 7 -25.5t26 -10.5z" />
    <glyph glyph-name="M.swsh" unicode="&#xe2ec;" horiz-adv-x="1052" 
d="M207 -142q-109 0 -173 73.5t-47 171.5q16 92 97 154l114 -120q-37 -23 -42 -51q-5 -27 11 -46t44 -19q25 0 43 19t23 51l103 591q-27 41 -53 41q-36 0 -42 -39l-18 -108h-172l24 140q13 74 67.5 119t134.5 45q75 0 123 -28t83 -87l175 -292l249 257h160l-128 -730h-175
l77 445l-221 -228l-148 243l-67 -382q-17 -104 -79.5 -162t-162.5 -58z" />
    <glyph glyph-name="N.swsh" unicode="&#xe2ed;" horiz-adv-x="1049" 
d="M291 -135q-124 0 -196.5 80.5t-50.5 197.5q14 82 81 151l133 -114q-34 -26 -40 -60q-8 -40 14.5 -66.5t64.5 -26.5q49 0 76 44t42 136l64 366h-190q-20 0 -37 -11t-21 -31q-3 -18 8 -32t29 -14t36 14l92 -119q-56 -47 -141 -47q-96 0 -150 66.5t-39 154.5
q14 75 75.5 125.5t148.5 50.5h395l176 -415l72 410q17 101 76.5 156t155.5 55q70 0 123.5 -27.5t83.5 -72.5l-138 -97q-23 40 -61 40q-57 0 -68 -67l-125 -712h-169l-183 430l-47 -270q-25 -140 -93.5 -217.5t-196.5 -77.5z" />
    <glyph glyph-name="O.swsh" unicode="&#xe2ee;" horiz-adv-x="830" 
d="M367 -98q-78 0 -146.5 25t-119.5 72t-73.5 124t-5.5 172q14 75 49 122l153 -92q-21 -32 -25 -62q-14 -80 34 -135.5t144 -55.5q58 0 107 25t82 67t54.5 90t30.5 100q21 124 -35 199.5t-144 75.5q-56 0 -91 -26t-42 -66q-6 -32 7.5 -52t44.5 -20q36 0 58 50l146 -74
q-69 -135 -203 -135q-113 0 -179 73.5t-45 186.5q18 98 103 160.5t212 62.5q121 0 208.5 -64.5t122.5 -169.5t13 -226q-15 -87 -52.5 -163t-94.5 -135.5t-138 -94t-175 -34.5z" />
    <glyph glyph-name="P.swsh" unicode="&#xe2ef;" horiz-adv-x="910" 
d="M259 -146q-111 0 -175.5 70t-47.5 172q11 68 62 120l146 -96q-26 -23 -30 -45q-4 -23 10.5 -39t40.5 -16q32 0 51 33t32 105l74 422h175l-48 -271q16 -2 51 -2q138 0 158 129q12 80 -57 134t-221 54q-115 0 -177 -36t-72 -95q-13 -69 80 -106l-88 -142
q-83 28 -130.5 102.5t-30.5 171.5q22 120 137.5 191t297.5 71q213 0 333.5 -108t95.5 -257q-21 -121 -105.5 -192.5t-224.5 -71.5q-30 -1 -74 4l-6 -37q-45 -265 -257 -265z" />
    <glyph glyph-name="Q.swsh" unicode="&#xe2f0;" horiz-adv-x="784" 
d="M374 -10q-167 0 -264 121t-69 289q25 146 138.5 243t268.5 97q109 0 193.5 -55.5t123 -149t20.5 -201.5q-26 -145 -136 -242q23 -61 48 -88.5t69 -27.5h163l-32 -165h-159q-85 0 -136 50.5t-88 150.5q-2 3 -18 52.5t-16 50.5q-26 69 -51.5 101t-70.5 32h-56l28 153h63
q71 0 115 -31t74 -93q22 36 30 75q16 89 -35.5 153.5t-140.5 64.5q-85 0 -145 -53t-75 -134q-16 -91 33.5 -156.5t141.5 -65.5q19 0 33 3q43 -126 58 -158q-57 -16 -108 -16z" />
    <glyph glyph-name="R.swsh" unicode="&#xe2f1;" horiz-adv-x="933" 
d="M871 -139h-3q-55 0 -103 14t-93 48t-76 86t-47 134t-11 186h75q60 0 101 30t51 86q15 71 -58.5 125.5t-232.5 54.5q-113 0 -173.5 -35.5t-70.5 -93.5q-12 -71 80 -106l-88 -142q-82 27 -129.5 102t-30.5 171q20 118 136 189t294 71q117 0 210.5 -31.5t147.5 -84t77 -118
t9 -134.5q-15 -83 -73 -144.5t-147 -79.5q24 -165 170 -165h16zM246 -145q-112 0 -175.5 70t-46.5 172q10 64 62 117l146 -95q-27 -21 -31 -43q-4 -23 9.5 -39.5t38.5 -16.5q60 0 80 120l77 442h172l-82 -470q-43 -257 -250 -257z" />
    <glyph glyph-name="S.swsh" unicode="&#xe2f2;" horiz-adv-x="704" 
d="M316 -202q-88 0 -158 30t-108.5 77.5t-54.5 104t-5 111.5q13 75 74 123.5t144 48.5q64 0 117 -29t85 -78l-153 -103q-19 45 -51 45q-39 0 -47 -43q-8 -46 39 -85.5t125 -39.5q59 0 105 38.5t56 96.5q9 49 -16.5 103.5t-67 105.5t-82.5 105t-65 119t-13 130q16 93 86 149
t174 56q161 0 242 -132l-150 -96q-34 68 -94 68q-32 0 -53 -17.5t-26 -46.5q-6 -32 20.5 -78t67.5 -97.5t81 -109.5t62 -132t10 -147q-20 -120 -113.5 -198.5t-230.5 -78.5z" />
    <glyph glyph-name="T.swsh" unicode="&#xe2f3;" horiz-adv-x="847" 
d="M297 -187q-108 0 -171 72t-46 172q12 71 65 122l137 -100q-25 -18 -29 -41q-4 -24 10.5 -42.5t40.5 -18.5q58 0 78 108l85 484h-110q-112 0 -128 -91q-7 -39 16.5 -68t61.5 -43l-84 -145q-86 26 -134 103t-32 174q17 106 97.5 168.5t196.5 62.5h355q35 0 50.5 15.5
t22.5 53.5l10 53h171l-17 -94q-16 -89 -65 -139t-150 -50h-87l-88 -505q-21 -120 -84.5 -185.5t-171.5 -65.5z" />
    <glyph glyph-name="U.swsh" unicode="&#xe2f4;" horiz-adv-x="874" 
d="M557 -10q-110 0 -173 62t-42 179l61 342h-56q-105 0 -120 -88q-6 -36 19.5 -63.5t67.5 -41.5l-91 -143q-83 26 -132 102t-32 171q17 101 94 160.5t193 59.5h259l-89 -504q-6 -33 13.5 -56t52.5 -23q32 0 57.5 22.5t31.5 56.5l87 499q18 100 76 155.5t154 55.5
q142 0 208 -97l-137 -100q-19 40 -61 40q-29 0 -45.5 -18.5t-21.5 -46.5l-84 -478q-43 -246 -290 -246z" />
    <glyph glyph-name="V.swsh" unicode="&#xe2f5;" horiz-adv-x="879" 
d="M438 0l-70 573h-21q-105 0 -120 -88q-6 -36 19.5 -63.5t67.5 -41.5l-91 -143q-83 26 -132 102t-32 171q17 101 94 160.5t193 59.5h177l47 -443l153 321q29 61 75.5 91.5t131.5 30.5h387l-29 -161h-356q-42 0 -61 -38l-262 -531h-171z" />
    <glyph glyph-name="W.swsh" unicode="&#xe2f6;" horiz-adv-x="1271" 
d="M423 0l-60 573h-16q-105 0 -120 -88q-6 -36 19.5 -63.5t67.5 -41.5l-91 -143q-83 26 -132 102t-32 171q17 101 94 160.5t193 59.5h181l37 -435l199 435h173l46 -436l133 307q31 73 75 101t133 28h361l-29 -161h-328q-26 0 -38.5 -8t-22.5 -30l-240 -531h-177l-45 446
l-204 -446h-177z" />
    <glyph glyph-name="X.swsh" unicode="&#xe2f7;" horiz-adv-x="1034" 
d="M260 -199q-131 0 -204 90.5t-53 205.5q18 98 93.5 158.5t186.5 60.5h147l-29 -164h-128q-40 0 -67 -21.5t-32 -59.5q-7 -40 21 -73t74 -33q65 0 106 58l268 360l-125 295q-19 47 -32 62.5t-34 15.5q-32 0 -38 -41l-18 -108h-172l24 140q13 75 68 120.5t136 45.5
t128 -36.5t83 -120.5l98 -234l151 208h197l-271 -363l156 -367h-179l-95 225l-207 -290q-53 -75 -111 -104.5t-142 -29.5z" />
    <glyph glyph-name="Y.swsh" unicode="&#xe2f8;" horiz-adv-x="907" 
d="M395 -145q-118 0 -179.5 68.5t-44.5 171.5q10 58 55 110l156 -91q-28 -20 -32 -42q-4 -21 9 -36t36 -15q62 0 85 124l36 209l-135 326q-18 45 -32 61t-32 16q-32 0 -40 -42l-18 -108h-170l23 133q11 79 64.5 125.5t137.5 46.5t136.5 -43.5t86.5 -130.5l92 -231l165 223
h197l-303 -389l-42 -240q-20 -114 -83.5 -180t-167.5 -66z" />
    <glyph glyph-name="Z.swsh" unicode="&#xe2f9;" horiz-adv-x="680" 
d="M-24 0l30 166l463 405h-155q-36 0 -51 -16t-23 -59l-11 -64h-172l16 94q19 118 69.5 161t164.5 43h430l-27 -155l-472 -415h174q35 0 48 15.5t21 59.5l16 92h174l-23 -129q-10 -57 -22.5 -91t-37 -60t-63 -36.5t-98.5 -10.5h-451z" />
    <glyph glyph-name="ucircumflex.smcp" unicode="&#xe300;" horiz-adv-x="486" 
d="M200 -8q-92 0 -149 51t-39 146l71 407h171l-67 -387q-4 -24 7.5 -38t33.5 -14q21 0 36.5 13.5t19.5 35.5l69 390h171l-69 -396q-37 -208 -255 -208zM136 630l150 177h103l87 -177h-120l-33 76l-61 -76h-126z" />
    <glyph glyph-name="ucircumflex.smcp" unicode="&#xf7fb;" horiz-adv-x="486" 
d="M200 -8q-92 0 -149 51t-39 146l71 407h171l-67 -387q-4 -24 7.5 -38t33.5 -14q21 0 36.5 13.5t19.5 35.5l69 390h171l-69 -396q-37 -208 -255 -208zM136 630l150 177h103l87 -177h-120l-33 76l-61 -76h-126z" />
    <glyph glyph-name="sacute.smcp" unicode="&#xe302;" horiz-adv-x="462" 
d="M221 633l143 177h170l-187 -177h-126zM202 -9q-160 0 -233 122l151 103q15 -31 39.5 -49t50.5 -18q45 0 50 34q-1 6 0 9t-3 8t-5.5 7.5t-8 6.5t-10 6.5t-12 6.5t-13.5 6t-14.5 6t-15.5 7q-32 14 -53.5 27t-44.5 35.5t-31 56t-1 76.5q13 79 74.5 122t153.5 43
q72 0 127.5 -30t85.5 -74l-142 -95q-11 22 -34 38t-48 16q-40 0 -47 -32q-1 -4 0 -8t3.5 -7.5t5 -6.5t8 -6.5t9.5 -6t12 -6.5t13 -6t15 -6.5t15 -6.5q33 -14 54.5 -27.5t46 -37t33 -59t0.5 -81.5q-14 -74 -74.5 -123.5t-156.5 -49.5z" />
    <glyph glyph-name="sacute.smcp" unicode="&#xf65b;" horiz-adv-x="462" 
d="M221 633l143 177h170l-187 -177h-126zM202 -9q-160 0 -233 122l151 103q15 -31 39.5 -49t50.5 -18q45 0 50 34q-1 6 0 9t-3 8t-5.5 7.5t-8 6.5t-10 6.5t-12 6.5t-13.5 6t-14.5 6t-15.5 7q-32 14 -53.5 27t-44.5 35.5t-31 56t-1 76.5q13 79 74.5 122t153.5 43
q72 0 127.5 -30t85.5 -74l-142 -95q-11 22 -34 38t-48 16q-40 0 -47 -32q-1 -4 0 -8t3.5 -7.5t5 -6.5t8 -6.5t9.5 -6t12 -6.5t13 -6t15 -6.5t15 -6.5q33 -14 54.5 -27.5t46 -37t33 -59t0.5 -81.5q-14 -74 -74.5 -123.5t-156.5 -49.5z" />
    <glyph glyph-name="scircumflex.smcp" unicode="&#xe303;" horiz-adv-x="462" 
d="M202 -9q-160 0 -233 122l151 103q15 -31 39.5 -49t50.5 -18q45 0 50 34q-1 6 0 9t-3 8t-5.5 7.5t-8 6.5t-10 6.5t-12 6.5t-13.5 6t-14.5 6t-15.5 7q-32 14 -53.5 27t-44.5 35.5t-31 56t-1 76.5q13 79 74.5 122t153.5 43q72 0 127.5 -30t85.5 -74l-142 -95q-11 22 -34 38
t-48 16q-40 0 -47 -32q-1 -4 0 -8t3.5 -7.5t5 -6.5t8 -6.5t9.5 -6t12 -6.5t13 -6t15 -6.5t15 -6.5q33 -14 54.5 -27.5t46 -37t33 -59t0.5 -81.5q-14 -74 -74.5 -123.5t-156.5 -49.5zM114 632l150 177h103l87 -177h-120l-33 76l-61 -76h-126z" />
    </font>
</defs>
</svg>
